<svg width="486" height="380" viewBox="0 0 486 380" fill="none" xmlns="http://www.w3.org/2000/svg">
  <path d="M89 189C201.981 189 155.224 46 246 46" stroke="url(#paint0_linear_122_667)" stroke-width="8" />
  <path d="M89 189C201.981 189 155.224 332 246 332" stroke="url(#paint1_linear_122_667)" stroke-width="8" />
  <path d="M113 189C206.742 189 177.859 245.084 242.718 264.616C266.791 270.818 317.196 268.623 366 268.623"
    stroke="url(#paint2_linear_122_667)" stroke-width="8" />
  <path d="M113 189C206.742 189 177.859 142.921 242.718 123.385C266.791 117.181 317.196 119.377 366 119.377"
    stroke="url(#paint3_linear_122_667)" stroke-width="8" />
  <path d="M107 190L246 190" stroke="url(#paint4_linear_122_667)" stroke-width="8" />
  <rect x="374" y="79" width="80" height="80" rx="12" fill="url(#paint5_linear_122_667)" />
  <rect x="254" y="10" width="80" height="80" rx="12" fill="url(#paint6_linear_122_667)" />
  <rect x="374" y="227" width="80" height="80" rx="12" fill="url(#paint7_linear_122_667)" />
  <rect x="254" y="290" width="80" height="80" rx="12" fill="url(#paint8_linear_122_667)" />
  <rect x="254" y="150" width="80" height="80" rx="12" fill="url(#paint9_linear_122_667)" />
  <g clipPath="url(#clip0_122_667)">
    <path
      d="M303.598 52.9845C303.52 52.9471 300.604 51.5111 300.085 51.3247C299.874 51.2487 299.647 51.1745 299.406 51.1745C299.012 51.1745 298.682 51.3708 298.424 51.7562C298.133 52.1892 297.251 53.22 296.978 53.5279C296.943 53.5685 296.894 53.6171 296.865 53.6171C296.839 53.6171 296.388 53.4313 296.251 53.3719C293.123 52.0131 290.749 48.7454 290.423 48.1944C290.376 48.1152 290.374 48.0792 290.374 48.0792C290.386 48.0372 290.491 47.9318 290.545 47.8774C290.704 47.7202 290.876 47.5131 291.042 47.3127C291.121 47.2178 291.2 47.1227 291.278 47.0331C291.519 46.7521 291.627 46.5339 291.752 46.2811L291.817 46.1498C292.121 45.545 291.861 45.0347 291.777 44.8698C291.708 44.7319 290.477 41.7602 290.346 41.448C290.031 40.6947 289.615 40.3439 289.037 40.3439C288.984 40.3439 289.037 40.3439 288.812 40.3534C288.538 40.3649 287.047 40.5613 286.387 40.977C285.688 41.4179 284.505 42.8234 284.505 45.295C284.505 47.5196 285.917 49.62 286.523 50.4188C286.538 50.4389 286.565 50.4798 286.606 50.5385C288.927 53.9284 291.82 56.4406 294.754 57.6124C297.578 58.7405 298.915 58.8709 299.675 58.8709C299.675 58.8709 299.675 58.8709 299.675 58.8709C299.995 58.8709 300.251 58.8458 300.476 58.8236L300.619 58.81C301.595 58.7235 303.739 57.6126 304.226 56.2574C304.611 55.19 304.712 54.0237 304.456 53.6005C304.281 53.3127 303.98 53.1679 303.598 52.9845Z"
      fill="white" />
    <path
      d="M294.355 30C283.522 30 274.708 38.7473 274.708 49.4991C274.708 52.9766 275.639 56.3806 277.402 59.3599L274.028 69.3138C273.965 69.4994 274.011 69.7045 274.149 69.8443C274.248 69.9455 274.382 70 274.519 70C274.572 70 274.625 69.9921 274.677 69.9756L285.056 66.6774C287.896 68.1949 291.106 68.996 294.355 68.996C305.187 68.9961 314 60.2497 314 49.4991C314 38.7473 305.187 30 294.355 30ZM294.355 64.9343C291.298 64.9343 288.337 64.0516 285.792 62.3814C285.706 62.3252 285.607 62.2964 285.507 62.2964C285.454 62.2964 285.401 62.3044 285.35 62.3208L280.15 63.9735L281.829 59.0217C281.883 58.8614 281.856 58.6847 281.756 58.5481C279.818 55.8997 278.793 52.7708 278.793 49.4991C278.793 40.987 285.774 34.0618 294.355 34.0618C302.935 34.0618 309.915 40.987 309.915 49.4991C309.915 58.0101 302.935 64.9343 294.355 64.9343Z"
      fill="white" />
  </g>
  <g clipPath="url(#clip1_122_667)">
    <path
      d="M414 250.605C419.34 250.605 419.973 250.625 422.083 250.722C427.503 250.968 430.035 253.54 430.282 258.92C430.378 261.028 430.397 261.662 430.397 267.002C430.397 272.343 430.377 272.975 430.282 275.083C430.033 280.458 427.508 283.035 422.083 283.282C419.973 283.378 419.343 283.398 414 283.398C408.66 283.398 408.027 283.378 405.918 283.282C400.485 283.033 397.967 280.45 397.72 275.082C397.623 272.973 397.603 272.342 397.603 267C397.603 261.66 397.625 261.028 397.72 258.918C397.968 253.54 400.493 250.967 405.918 250.72C408.028 250.625 408.66 250.605 414 250.605ZM414 247C408.568 247 407.888 247.023 405.755 247.12C398.492 247.453 394.455 251.483 394.122 258.753C394.023 260.888 394 261.568 394 267C394 272.432 394.023 273.113 394.12 275.247C394.453 282.51 398.483 286.547 405.753 286.88C407.888 286.977 408.568 287 414 287C419.432 287 420.113 286.977 422.247 286.88C429.503 286.547 433.55 282.517 433.878 275.247C433.977 273.113 434 272.432 434 267C434 261.568 433.977 260.888 433.88 258.755C433.553 251.498 429.518 247.455 422.248 247.122C420.113 247.023 419.432 247 414 247V247ZM414 256.73C408.328 256.73 403.73 261.328 403.73 267C403.73 272.672 408.328 277.272 414 277.272C419.672 277.272 424.27 272.673 424.27 267C424.27 261.328 419.672 256.73 414 256.73ZM414 273.667C410.318 273.667 407.333 270.683 407.333 267C407.333 263.318 410.318 260.333 414 260.333C417.682 260.333 420.667 263.318 420.667 267C420.667 270.683 417.682 273.667 414 273.667ZM424.677 253.925C423.35 253.925 422.275 255 422.275 256.325C422.275 257.65 423.35 258.725 424.677 258.725C426.002 258.725 427.075 257.65 427.075 256.325C427.075 255 426.002 253.925 424.677 253.925Z"
      fill="white" />
  </g>
  <g clipPath="url(#clip2_122_667)">
    <path
      d="M434 106.595C432.528 107.248 430.947 107.688 429.287 107.887C430.982 106.872 432.283 105.263 432.895 103.347C431.31 104.287 429.553 104.97 427.683 105.338C426.188 103.743 424.053 102.747 421.693 102.747C416.395 102.747 412.502 107.69 413.698 112.822C406.88 112.48 400.833 109.213 396.785 104.248C394.635 107.937 395.67 112.762 399.323 115.205C397.98 115.162 396.713 114.793 395.608 114.178C395.518 117.98 398.243 121.537 402.19 122.328C401.035 122.642 399.77 122.715 398.483 122.468C399.527 125.728 402.557 128.1 406.15 128.167C402.7 130.872 398.353 132.08 394 131.567C397.632 133.895 401.947 135.253 406.58 135.253C421.817 135.253 430.425 122.385 429.905 110.843C431.508 109.685 432.9 108.24 434 106.595Z"
      fill="white" />
  </g>
  <path
    d="M302.333 313.333H285.666C281.066 313.333 277.333 317.05 277.333 321.633V331.6V333.267C277.333 337.85 281.066 341.567 285.666 341.567H288.166C288.616 341.567 289.216 341.867 289.5 342.233L292 345.55C293.1 347.017 294.9 347.017 296 345.55L298.5 342.233C298.816 341.817 299.316 341.567 299.833 341.567H302.333C306.933 341.567 310.666 337.85 310.666 333.267V321.633C310.666 317.05 306.933 313.333 302.333 313.333ZM295.666 332.917H285.666C284.983 332.917 284.416 332.35 284.416 331.667C284.416 330.983 284.983 330.417 285.666 330.417H295.666C296.35 330.417 296.916 330.983 296.916 331.667C296.916 332.35 296.35 332.917 295.666 332.917ZM302.333 324.583H285.666C284.983 324.583 284.416 324.017 284.416 323.333C284.416 322.65 284.983 322.083 285.666 322.083H302.333C303.016 322.083 303.583 322.65 303.583 323.333C303.583 324.017 303.016 324.583 302.333 324.583Z"
    fill="white" />
  <path
    d="M302.333 175.833H285.666C280.666 175.833 277.333 178.333 277.333 184.167V195.833C277.333 201.667 280.666 204.167 285.666 204.167H302.333C307.333 204.167 310.666 201.667 310.666 195.833V184.167C310.666 178.333 307.333 175.833 302.333 175.833ZM303.116 185.983L297.9 190.15C296.8 191.033 295.4 191.467 294 191.467C292.6 191.467 291.183 191.033 290.1 190.15L284.883 185.983C284.35 185.55 284.266 184.75 284.683 184.217C285.116 183.683 285.9 183.583 286.433 184.017L291.65 188.183C292.916 189.2 295.066 189.2 296.333 188.183L301.55 184.017C302.083 183.583 302.883 183.667 303.3 184.217C303.733 184.75 303.65 185.55 303.116 185.983Z"
    fill="white" />
  <rect x="32" y="150" width="80" height="80" rx="16" fill="#1D528B" />
  <rect x="40" y="166" width="6" height="6" rx="3" fill="#BC0101" />
  <rect x="50" y="166" width="6" height="6" rx="3" fill="#FECA69" />
  <rect x="60" y="166" width="6" height="6" rx="3" fill="#1BA55A" />
  <rect x="40" y="178" width="15" height="4" rx="2" fill="#9BB3CC" />
  <rect x="70" y="186" width="15" height="4" rx="2" fill="#9BB3CC" />
  <rect x="59" y="194" width="15" height="4" rx="2" fill="#9BB3CC" />
  <rect x="89" y="202" width="15" height="4" rx="2" fill="#9BB3CC" />
  <rect x="89" y="210" width="15" height="4" rx="2" fill="#9BB3CC" />
  <rect x="59" y="178" width="26" height="4" rx="2" fill="#9BB3CC" />
  <rect x="40" y="186" width="26" height="4" rx="2" fill="#9BB3CC" />
  <rect x="78" y="194" width="26" height="4" rx="2" fill="#9BB3CC" />
  <rect x="59" y="202" width="26" height="4" rx="2" fill="#9BB3CC" />
  <rect x="40" y="210" width="26" height="4" rx="2" fill="#9BB3CC" />
  <rect x="89" y="178" width="15" height="4" rx="2" fill="#9BB3CC" />
  <rect x="89" y="186" width="15" height="4" rx="2" fill="#9BB3CC" />
  <rect x="40" y="194" width="15" height="4" rx="2" fill="#9BB3CC" />
  <rect x="40" y="202" width="15" height="4" rx="2" fill="#9BB3CC" />
  <rect x="70" y="210" width="15" height="4" rx="2" fill="#9BB3CC" />
  <defs>
    <linearGradient id="paint0_linear_122_667" x1="246" y1="46" x2="100.95" y2="185.836" gradientUnits="userSpaceOnUse">
      <stop stop-color="#20BD61" />
      <stop offset="1" stop-color="#20BD61" stop-opacity="0" />
    </linearGradient>
    <linearGradient id="paint1_linear_122_667" x1="245.928" y1="332.082" x2="88.9275" y2="193.082"
      gradientUnits="userSpaceOnUse">
      <stop stop-color="#5A90FA" />
      <stop offset="1" stop-color="#5A90FA" stop-opacity="0" />
    </linearGradient>
    <linearGradient id="paint2_linear_122_667" x1="365.935" y1="268.896" x2="102.934" y2="189.218"
      gradientUnits="userSpaceOnUse">
      <stop stop-color="#CC5369" />
      <stop offset="1" stop-color="#CC5369" stop-opacity="0" />
    </linearGradient>
    <linearGradient id="paint3_linear_122_667" x1="366" y1="119" x2="129.053" y2="197.876"
      gradientUnits="userSpaceOnUse">
      <stop stop-color="#2795D1" />
      <stop offset="1" stop-color="#2795D1" stop-opacity="0" />
    </linearGradient>
    <linearGradient id="paint4_linear_122_667" x1="246" y1="190" x2="111.5" y2="190" gradientUnits="userSpaceOnUse">
      <stop stop-color="#C8A7F2" />
      <stop offset="1" stop-color="#C9A9F2" stop-opacity="0" />
    </linearGradient>
    <linearGradient id="paint5_linear_122_667" x1="414" y1="79" x2="414" y2="159" gradientUnits="userSpaceOnUse">
      <stop stop-color="#2CA5DC" />
      <stop offset="1" stop-color="#2185C6" />
    </linearGradient>
    <linearGradient id="paint6_linear_122_667" x1="294" y1="10" x2="294" y2="90" gradientUnits="userSpaceOnUse">
      <stop stop-color="#24D166" />
      <stop offset="1" stop-color="#1BA55A" />
    </linearGradient>
    <linearGradient id="paint7_linear_122_667" x1="414" y1="227" x2="414" y2="307" gradientUnits="userSpaceOnUse">
      <stop stop-color="#5E55C7" />
      <stop offset="0.307292" stop-color="#9C33A8" />
      <stop offset="0.64223" stop-color="#F56D32" />
      <stop offset="1" stop-color="#FECA69" />
    </linearGradient>
    <linearGradient id="paint8_linear_122_667" x1="294" y1="290" x2="294" y2="370" gradientUnits="userSpaceOnUse">
      <stop stop-color="#80AAFB" />
      <stop offset="1" stop-color="#2D72F8" />
    </linearGradient>
    <linearGradient id="paint9_linear_122_667" x1="294" y1="150" x2="294" y2="230" gradientUnits="userSpaceOnUse">
      <stop stop-color="#DECBF6" />
      <stop offset="1" stop-color="#B183EC" />
    </linearGradient>
    <clipPath id="clip0_122_667">
      <rect width="40" height="40" fill="white" transform="translate(274 30)" />
    </clipPath>
    <clipPath id="clip1_122_667">
      <rect width="40" height="40" fill="white" transform="translate(394 247)" />
    </clipPath>
    <clipPath id="clip2_122_667">
      <rect width="40" height="40" fill="white" transform="translate(394 99)" />
    </clipPath>
  </defs>
</svg>
