<svg width="144" height="64" viewBox="0 0 144 64" fill="none" xmlns="http://www.w3.org/2000/svg">
<path d="M91.7593 20L91.7591 29.909L92.016 29.6728C93.4341 28.4047 94.8521 27.7348 96.2702 27.6632L96.5248 27.6568C98.0048 27.6568 99.1424 28.0926 99.9376 28.9643C100.68 29.7778 101.076 30.895 101.125 32.316L101.13 32.6251V43.9999H96.0941V33.9652C96.0941 32.6796 95.5418 32.0368 94.4374 32.0368C93.6333 32.0368 92.7811 32.4544 91.8809 33.2896L91.7591 33.4049L91.7593 43.9967H86.7129V21.0529L91.7593 20ZM62.0416 25.9213C64.5378 25.9213 66.374 26.384 67.5501 27.3092C68.7263 28.2345 69.3143 29.7885 69.3143 31.9712V43.644H64.4898L64.1298 41.4732C62.4976 43.1577 60.6494 43.9999 58.5852 43.9999C57.145 43.9999 55.9869 43.5788 55.1108 42.7365C54.2347 41.8943 53.7967 40.7021 53.7967 39.16C53.7967 37.1433 54.6008 35.613 56.2089 34.5691C57.8171 33.5252 60.3734 32.8491 63.8778 32.5406V32.2203C63.8778 30.7494 62.9897 30.0139 61.2135 30.0139C59.4373 30.0139 57.5411 30.4528 55.5249 31.3307L54.8768 27.2736C57.109 26.3721 59.4973 25.9213 62.0416 25.9213ZM78.4259 25.9213C80.0945 25.9213 81.7431 26.1796 83.4117 26.8351V31.5034C81.8838 30.689 79.9537 30.2319 78.4259 30.2319C77.3602 30.2319 76.7169 30.53 76.7169 31.3047C76.7169 33.5295 84.3768 32.4768 84.3969 38.3965C84.3969 41.9523 81.5219 43.9983 77.3401 43.9983C75.6111 43.9983 73.7213 43.6607 71.8515 42.8661V38.1382C73.5403 39.052 75.6715 39.7274 77.3401 39.7274C78.4661 39.7274 79.2701 39.4294 79.2701 38.5158C79.2701 36.1518 71.6304 37.0257 71.6304 31.5432C71.6304 28.027 74.3445 25.9213 78.4259 25.9213ZM51.4806 20.5149V43.6771H47.0577L46.7962 42.4455C46.0926 43.0813 44.826 43.995 42.8557 43.995C39.3374 43.995 36.0201 40.8564 36 35.0955C36 28.7984 39.277 25.9379 42.8758 25.9379C44.5468 25.9379 45.59 26.5935 46.3105 27.1014L46.4343 27.1894L46.4545 21.5676L51.4806 20.5149ZM63.8716 35.1322C62.1185 35.3926 60.8937 35.8009 60.1972 36.3571C59.5008 36.9133 59.1526 37.6056 59.1526 38.434C59.1526 38.9784 59.3087 39.3985 59.6209 39.6944C59.9331 39.9902 60.3413 40.1382 60.8457 40.1382C61.8543 40.1382 62.8629 39.7003 63.8716 38.8246V35.1322ZM44.062 30.3082C42.2124 30.3082 40.9659 32.2946 40.9659 34.9566C40.9659 37.5588 42.2325 39.585 44.062 39.585C45.1261 39.585 45.8262 39.2424 46.3393 38.7323L46.4545 38.6117L46.4343 31.2418C45.952 30.7253 45.2481 30.3082 44.062 30.3082Z" fill="#333333"/>
<path d="M105.467 44.0001C106.866 44.0001 108 42.8795 108 41.4971C108 40.1148 106.866 38.9941 105.467 38.9941C104.068 38.9941 102.934 40.1148 102.934 41.4971C102.934 42.8795 104.068 44.0001 105.467 44.0001Z" fill="#333333"/>
</svg>
