<svg width="144" height="64" viewBox="0 0 144 64" fill="none" xmlns="http://www.w3.org/2000/svg">
<path d="M28.5379 39.29V35.9294H19.8639V20.2911H16V39.29H28.5379Z" fill="#333333"/>
<path d="M41.152 27.1709C40.5212 26.5094 39.7852 26.0066 38.9441 25.6362C38.1029 25.2922 37.183 25.1069 36.1841 25.1069C35.1853 25.1069 34.2391 25.2922 33.3979 25.6362C32.5568 26.0066 31.8208 26.5094 31.2163 27.1709C30.6117 27.8324 30.1649 28.5998 29.8495 29.473C29.5341 30.3727 29.4026 31.3252 29.4026 32.3308C29.4026 33.3627 29.5341 34.3153 29.8495 35.1885C30.1649 36.0882 30.6117 36.8556 31.2163 37.4906C31.8208 38.1786 32.5568 38.7078 33.3979 39.0518C34.2391 39.4223 35.1853 39.581 36.1841 39.581C37.183 39.581 38.1029 39.4223 38.9441 39.0518C39.7852 38.7078 40.5212 38.1786 41.152 37.4906C41.7303 36.8556 42.1771 36.0882 42.4925 35.1885C42.8079 34.3153 42.9656 33.3627 42.9656 32.3308C42.9656 31.3252 42.8079 30.3727 42.4925 29.473C42.1771 28.5998 41.7303 27.8324 41.152 27.1709ZM36.1841 28.1764C37.1304 28.1764 37.8927 28.5469 38.4446 29.2878C38.9966 30.0287 39.2858 31.0342 39.2858 32.3308C39.2858 33.6538 38.9966 34.6593 38.4446 35.4002C37.8927 36.1411 37.1304 36.5116 36.1841 36.5116C35.1853 36.5116 34.4231 36.1411 33.8711 35.4002C33.3191 34.6593 33.0562 33.6538 33.0562 32.3308C33.0562 31.0606 33.3191 30.0287 33.8974 29.2878C34.4493 28.5469 35.2116 28.1764 36.1841 28.1764Z" fill="#333333"/>
<path d="M53.0673 37.9934C53.3827 38.602 53.8821 38.9989 54.6181 39.2106C55.3541 39.4223 56.274 39.4487 57.4306 39.29V36.5116C57.01 36.5645 56.7209 36.538 56.5632 36.4057C56.3792 36.2734 56.3003 36.0088 56.3003 35.6384V29.9493C56.3003 28.3881 55.8009 27.1974 54.8546 26.3506C53.8821 25.5303 52.489 25.1069 50.7016 25.1069C49.1771 25.1069 47.8891 25.5039 46.8115 26.2712C45.7338 27.065 45.0241 28.097 44.6824 29.3671L48.1783 30.0287C48.336 29.3936 48.5988 28.9438 48.9931 28.6262C49.3611 28.3352 49.8868 28.1764 50.5702 28.1764C51.2799 28.1764 51.8056 28.3352 52.1736 28.6527C52.5153 28.9702 52.6993 29.473 52.6993 30.108V30.3197L49.256 30.9813C47.5474 31.2988 46.2858 31.8015 45.4709 32.5424C44.6561 33.2834 44.2618 34.2359 44.2618 35.4267C44.2618 36.6439 44.6824 37.6494 45.5761 38.3903C46.4435 39.1577 47.5737 39.5281 48.9668 39.5281C49.8342 39.5281 50.6228 39.3958 51.3325 39.1312C52.0159 38.8666 52.5941 38.4961 53.0673 37.9934ZM49.7028 36.7233C49.1245 36.7233 48.6777 36.591 48.3623 36.3263C48.0469 36.0617 47.8891 35.6913 47.8891 35.215C47.8891 34.7652 48.0469 34.3947 48.3623 34.1036C48.6777 33.839 49.2297 33.6273 49.9919 33.4686L52.6993 32.9129V34.3418C52.6993 35.0562 52.4101 35.6384 51.8319 36.0617C51.2536 36.5116 50.5439 36.7233 49.7028 36.7233Z" fill="#333333"/>
<path d="M63.1855 39.29V31.2459C63.1855 30.4256 63.4221 29.7641 63.8952 29.2613C64.3683 28.7585 64.9992 28.4939 65.7352 28.4939C66.4449 28.4939 66.9968 28.7321 67.3648 29.1819C67.7328 29.6582 67.9431 30.3197 67.9431 31.1665V39.29H71.623V30.108C71.623 28.5733 71.2024 27.3561 70.3613 26.4564C69.5202 25.5568 68.3899 25.1069 66.9705 25.1069C66.182 25.1069 65.4723 25.2657 64.8415 25.5568C64.1843 25.8478 63.6324 26.2712 63.1855 26.8004V25.3716H59.5056V39.29H63.1855Z" fill="#333333"/>
<path d="M80.8291 39.581C81.8016 39.581 82.7216 39.4487 83.589 39.1841C84.4564 38.9195 85.2186 38.5491 85.902 38.0463C86.638 37.5171 87.2163 36.8291 87.6106 36.0353C88.0048 35.2415 88.2151 34.3947 88.2151 33.4421C88.2151 32.5424 88.0311 31.7486 87.6894 31.0606C87.3214 30.3991 86.7957 29.8434 86.0598 29.3671C85.6129 29.1025 85.0872 28.8644 84.4827 28.6527C83.8518 28.441 82.8793 28.1764 81.5388 27.8589C80.7502 27.7001 80.2245 27.5678 79.9091 27.4884C79.5937 27.409 79.3571 27.3297 79.1468 27.2503C78.6211 27.065 78.2531 26.8269 78.0429 26.5623C77.8063 26.2977 77.7012 25.9537 77.7012 25.5303C77.7012 24.8423 77.964 24.3131 78.5423 23.8897C79.1205 23.4664 79.8565 23.2547 80.8028 23.2547C81.749 23.2547 82.5901 23.4928 83.3787 23.9162C84.141 24.3396 84.8507 25.0011 85.4815 25.8743L88.0311 23.3605C87.2952 22.3286 86.3226 21.5083 85.0609 20.8997C83.7993 20.3175 82.4062 20 80.9079 20C79.9617 20 79.0943 20.1323 78.2531 20.3969C77.412 20.6615 76.7023 21.0055 76.0715 21.4818C75.3618 22.011 74.8098 22.6725 74.4418 23.4135C74.0738 24.1808 73.8898 25.0011 73.8898 25.9008C73.8898 26.7475 74.0213 27.462 74.3367 28.097C74.6258 28.7321 75.0727 29.2613 75.7035 29.6847C76.1241 30.0022 76.6498 30.2668 77.2543 30.505C77.8326 30.7431 78.6737 30.9813 79.7514 31.2194C80.5136 31.4046 81.1445 31.5634 81.6176 31.6692C82.0907 31.7751 82.4062 31.8545 82.5901 31.9074C83.221 32.1191 83.6941 32.3837 83.957 32.6748C84.2198 32.9923 84.3775 33.3627 84.3775 33.839C84.3775 34.6329 84.0621 35.2415 83.4313 35.6648C82.8004 36.1147 81.9856 36.3263 80.9605 36.3263C79.9091 36.3263 78.884 36.0617 77.9377 35.5325C76.9652 35.0033 76.1503 34.2359 75.4669 33.2304L72.8122 35.8236C73.5481 36.9614 74.6521 37.8611 76.1503 38.5491C77.6223 39.237 79.1994 39.581 80.8291 39.581Z" fill="#333333"/>
<path d="M102.296 37.3319C102.769 36.6968 103.137 35.9294 103.4 35.0827C103.663 34.2359 103.794 33.3098 103.794 32.3308C103.794 31.3782 103.663 30.452 103.4 29.6053C103.137 28.7585 102.769 27.9912 102.296 27.3561C101.744 26.6152 101.087 26.0595 100.325 25.6891C99.5361 25.3186 98.695 25.1069 97.775 25.1069C96.9602 25.1069 96.2242 25.2657 95.5671 25.5568C94.8837 25.8478 94.3317 26.2712 93.9111 26.8004V25.3716H90.2313V44H93.9111V37.8611C94.3317 38.4168 94.8837 38.8401 95.5671 39.1312C96.2242 39.4487 96.9602 39.581 97.775 39.581C98.695 39.581 99.5361 39.3958 100.325 38.9989C101.087 38.6284 101.744 38.0728 102.296 37.3319ZM96.9076 28.2822C97.9064 28.2822 98.6687 28.6527 99.247 29.3671C99.799 30.108 100.088 31.0871 100.088 32.3308C100.088 33.6009 99.799 34.6064 99.247 35.3208C98.6687 36.0617 97.9064 36.4057 96.9076 36.4057C95.9614 36.4057 95.2254 36.0882 94.6734 35.4267C94.0951 34.7652 93.8323 33.8655 93.8323 32.7277V31.9603C93.8323 30.849 94.0951 29.9493 94.6734 29.2878C95.2254 28.6262 95.9614 28.2822 96.9076 28.2822Z" fill="#333333"/>
<path d="M116.952 27.1709C116.321 26.5094 115.585 26.0066 114.744 25.6362C113.903 25.2922 112.983 25.1069 111.984 25.1069C110.985 25.1069 110.039 25.2922 109.198 25.6362C108.357 26.0066 107.621 26.5094 107.016 27.1709C106.412 27.8324 105.965 28.5998 105.65 29.473C105.334 30.3727 105.203 31.3252 105.203 32.3308C105.203 33.3627 105.334 34.3153 105.65 35.1885C105.965 36.0882 106.412 36.8556 107.016 37.4906C107.621 38.1786 108.357 38.7078 109.198 39.0518C110.039 39.4223 110.985 39.581 111.984 39.581C112.983 39.581 113.903 39.4223 114.744 39.0518C115.585 38.7078 116.321 38.1786 116.952 37.4906C117.53 36.8556 117.977 36.0882 118.293 35.1885C118.608 34.3153 118.766 33.3627 118.766 32.3308C118.766 31.3252 118.608 30.3727 118.293 29.473C117.977 28.5998 117.53 27.8324 116.952 27.1709ZM111.984 28.1764C112.931 28.1764 113.693 28.5469 114.245 29.2878C114.797 30.0287 115.086 31.0342 115.086 32.3308C115.086 33.6538 114.797 34.6593 114.245 35.4002C113.693 36.1411 112.931 36.5116 111.984 36.5116C110.985 36.5116 110.223 36.1411 109.671 35.4002C109.119 34.6593 108.856 33.6538 108.856 32.3308C108.856 31.0606 109.119 30.0287 109.697 29.2878C110.249 28.5469 111.012 28.1764 111.984 28.1764Z" fill="#333333"/>
<path d="M125.634 39.4487C126.055 39.4487 126.475 39.4487 126.87 39.3958C127.264 39.3693 127.632 39.3164 128 39.237V36.1676C127.685 36.2205 127.448 36.247 127.29 36.247C127.133 36.247 126.949 36.247 126.738 36.247C126.055 36.247 125.582 36.1676 125.345 35.9559C125.109 35.7442 125.004 35.4002 125.004 34.8975V28.4675H127.816V25.3716H125.004V21.4024H121.376V25.3716H119.536V28.4675H121.376V35.6648C121.376 36.9879 121.692 37.9669 122.375 38.5491C123.032 39.1577 124.11 39.4487 125.634 39.4487Z" fill="#333333"/>
</svg>
