<svg width="144" height="64" viewBox="0 0 144 64" fill="none" xmlns="http://www.w3.org/2000/svg">
<path d="M52.003 25.5024H49.0151V26.9138C49.0151 27.9282 48.4666 28.7002 47.3239 28.7002H46.7744V31.6327H48.7081V36.3338C48.7081 38.5172 50.0922 39.8617 52.3506 39.8617C53.4049 39.8617 53.9544 39.6193 54.0855 39.5483V36.7705C53.7976 36.8394 53.5031 36.8765 53.2071 36.8812C52.4786 36.8812 51.9988 36.6388 51.9988 35.732V31.6327H54.1302V28.7002H52.003V25.5024Z" fill="#333333"/>
<path d="M58.0193 32.8676C58.0848 32.0517 58.7883 31.0153 60.1944 31.0153C61.7752 31.0153 62.3466 32.0297 62.3903 32.8676H58.0193ZM62.6317 35.7123C62.3195 36.572 61.6431 37.1456 60.4348 37.1456C59.138 37.1456 58.0182 36.2639 57.9526 35.029H65.5499C65.5972 34.6857 65.6191 34.3393 65.6155 33.9927C65.6155 30.4637 63.534 28.3691 60.1454 28.3691C57.3116 28.3691 54.6973 30.6184 54.6973 34.1463C54.6973 37.8288 57.3782 39.9903 60.3879 39.9903C63.1552 39.9903 64.8911 38.4023 65.4178 36.5062L62.6317 35.7123Z" fill="#333333"/>
<path d="M66.2275 36.6389C66.2275 38.3804 67.6117 39.9683 70.0064 39.9683C71.4561 39.9683 72.5104 39.3509 73.0817 38.4243C73.0817 39.1744 73.0599 39.5734 73.0817 39.6591H76.0686C76.0468 39.5494 76.0686 38.8233 76.0686 37.9615V32.6033C76.0686 30.354 74.7729 28.3691 71.2365 28.3691C68.029 28.3691 66.5793 30.4418 66.4492 32.0078L69.3487 32.6033C69.4153 31.7874 70.0522 30.9934 71.2168 30.9934C72.271 30.9934 72.8195 31.545 72.8195 32.1843C72.8195 32.5594 72.6217 32.8456 72.0296 32.9334L69.459 33.3304C67.6554 33.5957 66.2275 34.702 66.2275 36.6389ZM70.8192 37.5426C69.8961 37.5426 69.5225 36.991 69.5225 36.4185C69.5225 35.6464 70.0501 35.3153 70.7526 35.2056L72.8174 34.8744V35.3592C72.8174 37.0578 71.8069 37.5426 70.8192 37.5426Z" fill="#333333"/>
<path d="M80.7414 39.6591V33.3523C80.7414 32.3609 81.3784 31.4562 82.5429 31.4562C83.7512 31.4562 84.2997 32.2721 84.2997 33.3085V39.6591H87.5998V33.3304C87.5998 32.3609 88.2367 31.4562 89.4232 31.4562C90.6096 31.4562 91.158 32.2721 91.158 33.3085V39.6591H94.3843V32.5552C94.3843 29.5779 92.4069 28.365 90.3421 28.365C88.8705 28.365 87.8163 28.8497 86.9587 30.0845C86.4103 29.0043 85.2936 28.365 83.7325 28.365C82.5461 28.365 81.14 28.9824 80.5905 29.9529V28.6993H77.4111V39.6581L80.7414 39.6591Z" fill="#333333"/>
<path d="M95.8145 36.8156C95.8145 38.4871 97.1986 39.9904 99.3529 39.9904C101.242 39.9904 102.296 38.976 102.757 38.2259C102.757 38.998 102.713 39.395 102.757 39.6593H104.756C104.713 39.395 104.756 38.8434 104.756 37.9178V32.6034C104.756 30.5308 103.526 28.7224 100.363 28.7224C98.0739 28.7224 96.2547 30.1338 96.0351 32.1626L98.0125 32.6254C98.1446 31.3905 98.9574 30.4858 100.406 30.4858C102.01 30.4858 102.691 31.3467 102.691 32.383C102.691 32.758 102.515 33.0882 101.878 33.177L99.022 33.5948C97.1986 33.8602 95.8145 34.9185 95.8145 36.8156ZM99.637 38.2542C98.5828 38.2542 97.923 37.5041 97.923 36.7101C97.923 35.7615 98.5828 35.2549 99.4611 35.1222L102.687 34.6374V35.1201C102.691 37.433 101.328 38.2542 99.637 38.2542Z" fill="#333333"/>
<path d="M107.949 43.8493V38.2257C108.521 39.1743 109.751 39.9463 111.376 39.9463C114.473 39.9463 116.297 37.4986 116.297 34.3447C116.297 31.2577 114.606 28.8079 111.442 28.8079C109.729 28.8079 108.477 29.6436 107.903 30.704V29.0523H105.906V43.8493H107.949ZM114.194 34.3426C114.194 36.526 112.985 38.092 111.071 38.092C109.182 38.092 107.93 36.525 107.93 34.3426C107.93 32.2261 109.179 30.6382 111.071 30.6382C113.004 30.6402 114.188 32.2282 114.188 34.3447L114.194 34.3426Z" fill="#333333"/>
<path d="M120.711 25.7012H118.821V27.4207C118.821 28.3474 118.338 29.0525 117.195 29.0525H116.625V30.9278H118.646V36.7488C118.646 38.6679 119.791 39.77 121.589 39.77C122.065 39.7785 122.54 39.7115 122.995 39.5715V37.807C122.728 37.8636 122.456 37.8934 122.182 37.8958C121.106 37.8958 120.711 37.41 120.711 36.4406V30.9278H123V29.0525H120.711V25.7012Z" fill="#333333"/>
<path d="M29.2171 38.1862L29.7073 38.9791C28.869 38.4936 27.877 38.3493 26.9359 38.5759L25.0459 39.024C21.8197 39.8023 19.6154 35.7918 22.0112 33.4569L27.3521 28.2178C26.7644 29.428 26.4955 30.7693 26.5711 32.1135C26.6467 33.4578 27.0643 34.7601 27.784 35.8962L29.2171 38.1862Z" fill="#333333"/>
<path d="M40.6145 37.1834L40.5843 40.1921C40.585 41.0215 40.3157 41.8285 39.8174 42.4901C39.319 43.1517 38.6189 43.6317 37.8237 43.8571C37.0285 44.0824 36.1818 44.0407 35.4123 43.7384C34.6429 43.436 33.993 42.8896 33.5615 42.1822L30.5267 37.314L29.0239 34.9383C28.1441 33.5391 27.7612 31.8824 27.9374 30.2372C28.0166 29.5297 28.2022 28.8382 28.488 28.1865C28.5032 28.465 28.5482 28.741 28.6222 29.0097C28.8066 29.7654 29.1874 30.4585 29.7259 31.0181C30.2644 31.5777 30.9412 31.9838 31.6871 32.195L38.1146 34.0754C38.7942 34.2812 39.3963 34.6879 39.8422 35.2423C40.2881 35.7967 40.5573 36.4731 40.6145 37.1834Z" fill="#333333"/>
<path d="M40.6587 23.4121V24.1612L40.5692 34.0544C40.5692 34.0505 40.5677 34.0468 40.5649 34.044C40.5622 34.0413 40.5585 34.0398 40.5546 34.0398C40.0055 33.3177 39.2391 32.7927 38.3691 32.5427L32.1789 30.7469C31.6136 30.5836 31.1014 30.2734 30.6938 29.8476C30.2863 29.4219 29.998 28.8957 29.8581 28.3222C29.7318 27.8462 29.713 27.348 29.803 26.8638C29.893 26.3796 30.0896 25.9217 30.3784 25.5235C30.4953 25.3639 30.6244 25.2137 30.7645 25.0742L34.9607 20.9582C35.4358 20.4926 36.0378 20.1789 36.6905 20.0569C37.3432 19.9349 38.0173 20.01 38.6275 20.2728C39.2376 20.5355 39.7564 20.974 40.1182 21.5329C40.48 22.0917 40.6684 22.7457 40.6597 23.4121H40.6587Z" fill="#333333"/>
</svg>
