<svg width="486" height="380" viewBox="0 0 486 380" fill="none" xmlns="http://www.w3.org/2000/svg">
<g filter="url(#filter0_d_127_763)">
<rect x="125" y="137" width="321" height="106" rx="8" fill="white"/>
</g>
<path d="M204 188.918L210.042 176.438C210.413 175.67 211.512 175.69 211.857 176.469L224.474 205.054C224.885 205.985 226.261 205.779 226.382 204.769L229.616 177.748C229.753 176.602 231.402 176.561 231.595 177.699L236.326 205.552C236.518 206.681 238.148 206.654 238.303 205.52L242.416 175.284C242.573 174.13 244.241 174.13 244.398 175.284L248.543 205.754C248.697 206.882 250.315 206.918 250.518 205.798L256.315 173.841C256.516 172.731 258.113 172.751 258.287 173.865L261.452 194.21C261.595 195.124 262.795 195.371 263.287 194.588L266.225 189.915C266.553 189.392 267.272 189.289 267.734 189.698L275.033 196.148C275.465 196.53 276.13 196.468 276.484 196.012L284.191 186.106C284.532 185.668 285.164 185.591 285.6 185.935L294.859 193.238C295.343 193.62 296.055 193.477 296.353 192.937L302.459 181.902C302.908 181.09 304.124 181.274 304.313 182.183L308.473 202.233C308.704 203.348 310.32 203.272 310.446 202.14L313.346 176.043C313.476 174.871 315.172 174.851 315.331 176.018L318.973 202.792C319.135 203.979 320.866 203.931 320.961 202.737L322.982 177.272C323.077 176.078 324.808 176.03 324.97 177.216L328.203 201.022C328.36 202.177 330.032 202.175 330.185 201.019L333.531 175.861C333.675 174.776 335.206 174.678 335.489 175.735L341.866 199.604C342.118 200.545 343.428 200.608 343.769 199.697L348.623 186.737C348.876 186.064 349.736 185.869 350.254 186.368L357.381 193.239C357.792 193.636 358.451 193.608 358.828 193.178L366.941 183.916C367.311 183.494 367.954 183.458 368.368 183.836L376.29 191.071C376.722 191.465 377.398 191.407 377.756 190.944L385.941 180.354C386.285 179.909 386.929 179.835 387.365 180.191L397.766 188.692C397.945 188.838 398.168 188.918 398.399 188.918H416" stroke="#EDF5FE" stroke-width="4" stroke-linecap="round"/>
<path d="M204 188.918L210.058 176.432C210.43 175.666 211.528 175.685 211.873 176.464L224.526 205.063C224.938 205.993 226.313 205.787 226.434 204.778L229.679 177.732C229.816 176.586 231.464 176.545 231.657 177.683L236.405 205.568C236.597 206.696 238.227 206.669 238.382 205.535L242.509 175.266C242.666 174.113 244.334 174.113 244.491 175.266L248.65 205.769C248.804 206.896 250.421 206.932 250.625 205.813L256.441 173.826C256.642 172.718 258.239 172.738 258.413 173.851L261.589 194.216C261.731 195.129 262.93 195.377 263.423 194.595L266.374 189.912C266.702 189.391 267.419 189.287 267.881 189.695L275.203 196.15C275.635 196.531 276.299 196.469 276.653 196.015L284.382 186.103C284.723 185.667 285.354 185.59 285.789 185.933L295.077 193.241C295.561 193.622 296.271 193.479 296.57 192.94L304 179.541" stroke="#1BA55A" stroke-width="4" stroke-linecap="round"/>
<path d="M148 190C148 181.163 155.163 174 164 174C172.837 174 180 181.163 180 190C180 198.837 172.837 206 164 206C155.163 206 148 198.837 148 190Z" fill="#007AFF"/>
<rect x="156" y="185" width="4" height="10" rx="2" fill="white"/>
<rect x="162" y="182" width="4" height="16" rx="2" fill="white"/>
<rect x="168" y="185" width="4" height="10" rx="2" fill="white"/>
<g filter="url(#filter1_d_127_763)">
<rect x="66" y="234" width="342" height="106" rx="8" fill="white"/>
</g>
<path d="M140 279.2L135 281.95L130 286.7V303H137C138.657 303 140 301.657 140 300V279.2Z" fill="#4CAF50"/>
<path d="M98 279.2L101.614 280.91L108 286.7V303H101C99.343 303 98 301.657 98 300V279.2Z" fill="#1E88E5"/>
<path d="M130 274.2L119 282.45L108 274.2L107 280L108 286.7L119 294.95L130 286.7L131 280L130 274.2Z" fill="#E53935"/>
<path d="M98 275.298V279.2L108 286.7V274.2L104.876 271.859C104.132 271.301 103.228 271 102.298 271C99.924 271 98 272.924 98 275.298Z" fill="#C62828"/>
<path d="M140 275.298V279.2L130 286.7V274.2L133.124 271.859C133.868 271.301 134.772 271 135.702 271C138.076 271 140 272.924 140 275.298Z" fill="#FBC02D"/>
<path d="M159.158 281.168C158.439 281.168 157.814 281.037 157.282 280.776C156.75 280.515 156.339 280.151 156.05 279.684C155.761 279.217 155.616 278.676 155.616 278.06H156.848C156.848 278.443 156.937 278.797 157.114 279.124C157.291 279.441 157.548 279.698 157.884 279.894C158.229 280.081 158.654 280.174 159.158 280.174C159.821 280.174 160.334 280.015 160.698 279.698C161.062 279.381 161.244 278.984 161.244 278.508C161.244 278.116 161.16 277.803 160.992 277.57C160.824 277.327 160.595 277.131 160.306 276.982C160.026 276.833 159.699 276.702 159.326 276.59C158.962 276.478 158.579 276.352 158.178 276.212C157.422 275.951 156.862 275.629 156.498 275.246C156.134 274.854 155.952 274.345 155.952 273.72C155.943 273.197 156.064 272.735 156.316 272.334C156.568 271.923 156.923 271.606 157.38 271.382C157.847 271.149 158.397 271.032 159.032 271.032C159.657 271.032 160.199 271.149 160.656 271.382C161.123 271.615 161.482 271.937 161.734 272.348C161.995 272.759 162.131 273.225 162.14 273.748H160.908C160.908 273.477 160.838 273.211 160.698 272.95C160.558 272.679 160.343 272.46 160.054 272.292C159.774 272.124 159.419 272.04 158.99 272.04C158.458 272.031 158.019 272.166 157.674 272.446C157.338 272.726 157.17 273.113 157.17 273.608C157.17 274.028 157.287 274.35 157.52 274.574C157.763 274.798 158.099 274.985 158.528 275.134C158.957 275.274 159.452 275.437 160.012 275.624C160.479 275.792 160.899 275.988 161.272 276.212C161.645 276.436 161.935 276.725 162.14 277.08C162.355 277.435 162.462 277.887 162.462 278.438C162.462 278.905 162.341 279.348 162.098 279.768C161.855 280.179 161.487 280.515 160.992 280.776C160.507 281.037 159.895 281.168 159.158 281.168ZM166.664 281C166.029 281 165.53 280.846 165.166 280.538C164.802 280.23 164.62 279.675 164.62 278.872V275.05H163.416V274.056H164.62L164.774 272.39H165.796V274.056H167.84V275.05H165.796V278.872C165.796 279.311 165.884 279.609 166.062 279.768C166.239 279.917 166.552 279.992 167 279.992H167.728V281H166.664ZM171.504 281.168C170.925 281.168 170.444 281.07 170.062 280.874C169.679 280.678 169.394 280.417 169.208 280.09C169.021 279.763 168.928 279.409 168.928 279.026C168.928 278.317 169.198 277.771 169.74 277.388C170.281 277.005 171.018 276.814 171.952 276.814H173.828V276.73C173.828 276.123 173.669 275.666 173.352 275.358C173.034 275.041 172.61 274.882 172.078 274.882C171.62 274.882 171.224 274.999 170.888 275.232C170.561 275.456 170.356 275.787 170.272 276.226H169.068C169.114 275.722 169.282 275.297 169.572 274.952C169.87 274.607 170.239 274.345 170.678 274.168C171.116 273.981 171.583 273.888 172.078 273.888C173.048 273.888 173.776 274.149 174.262 274.672C174.756 275.185 175.004 275.871 175.004 276.73V281H173.954L173.884 279.754C173.688 280.146 173.398 280.482 173.016 280.762C172.642 281.033 172.138 281.168 171.504 281.168ZM171.686 280.174C172.134 280.174 172.516 280.057 172.834 279.824C173.16 279.591 173.408 279.287 173.576 278.914C173.744 278.541 173.828 278.149 173.828 277.738V277.724H172.05C171.359 277.724 170.869 277.845 170.58 278.088C170.3 278.321 170.16 278.615 170.16 278.97C170.16 279.334 170.29 279.628 170.552 279.852C170.822 280.067 171.2 280.174 171.686 280.174ZM178.938 281.168C178.359 281.168 177.879 281.07 177.496 280.874C177.113 280.678 176.829 280.417 176.642 280.09C176.455 279.763 176.362 279.409 176.362 279.026C176.362 278.317 176.633 277.771 177.174 277.388C177.715 277.005 178.453 276.814 179.386 276.814H181.262V276.73C181.262 276.123 181.103 275.666 180.786 275.358C180.469 275.041 180.044 274.882 179.512 274.882C179.055 274.882 178.658 274.999 178.322 275.232C177.995 275.456 177.79 275.787 177.706 276.226H176.502C176.549 275.722 176.717 275.297 177.006 274.952C177.305 274.607 177.673 274.345 178.112 274.168C178.551 273.981 179.017 273.888 179.512 273.888C180.483 273.888 181.211 274.149 181.696 274.672C182.191 275.185 182.438 275.871 182.438 276.73V281H181.388L181.318 279.754C181.122 280.146 180.833 280.482 180.45 280.762C180.077 281.033 179.573 281.168 178.938 281.168ZM179.12 280.174C179.568 280.174 179.951 280.057 180.268 279.824C180.595 279.591 180.842 279.287 181.01 278.914C181.178 278.541 181.262 278.149 181.262 277.738V277.724H179.484C178.793 277.724 178.303 277.845 178.014 278.088C177.734 278.321 177.594 278.615 177.594 278.97C177.594 279.334 177.725 279.628 177.986 279.852C178.257 280.067 178.635 280.174 179.12 280.174ZM184.062 281V274.056H185.126L185.224 275.386C185.439 274.929 185.766 274.565 186.204 274.294C186.643 274.023 187.184 273.888 187.828 273.888V275.12H187.506C187.096 275.12 186.718 275.195 186.372 275.344C186.027 275.484 185.752 275.727 185.546 276.072C185.341 276.417 185.238 276.893 185.238 277.5V281H184.062ZM189.008 281V274.056H190.072L190.156 275.064C190.38 274.691 190.679 274.401 191.052 274.196C191.426 273.991 191.846 273.888 192.312 273.888C192.863 273.888 193.334 274 193.726 274.224C194.128 274.448 194.436 274.789 194.65 275.246C194.893 274.826 195.224 274.495 195.644 274.252C196.074 274.009 196.536 273.888 197.03 273.888C197.861 273.888 198.524 274.14 199.018 274.644C199.513 275.139 199.76 275.904 199.76 276.94V281H198.598V277.066C198.598 276.347 198.454 275.806 198.164 275.442C197.875 275.078 197.46 274.896 196.918 274.896C196.358 274.896 195.892 275.115 195.518 275.554C195.154 275.983 194.972 276.599 194.972 277.402V281H193.796V277.066C193.796 276.347 193.652 275.806 193.362 275.442C193.073 275.078 192.658 274.896 192.116 274.896C191.566 274.896 191.104 275.115 190.73 275.554C190.366 275.983 190.184 276.599 190.184 277.402V281H189.008ZM207.981 281L204.299 271.2H205.573L208.667 279.754L211.789 271.2H213.035L209.353 281H207.981ZM216.374 281.168C215.712 281.168 215.124 281.019 214.61 280.72C214.097 280.412 213.691 279.987 213.392 279.446C213.103 278.905 212.958 278.265 212.958 277.528C212.958 276.8 213.103 276.165 213.392 275.624C213.682 275.073 214.083 274.649 214.596 274.35C215.119 274.042 215.721 273.888 216.402 273.888C217.074 273.888 217.653 274.042 218.138 274.35C218.633 274.649 219.011 275.045 219.272 275.54C219.534 276.035 219.664 276.567 219.664 277.136C219.664 277.239 219.66 277.341 219.65 277.444C219.65 277.547 219.65 277.663 219.65 277.794H214.12C214.148 278.326 214.27 278.769 214.484 279.124C214.708 279.469 214.984 279.731 215.31 279.908C215.646 280.085 216.001 280.174 216.374 280.174C216.86 280.174 217.266 280.062 217.592 279.838C217.919 279.614 218.157 279.311 218.306 278.928H219.468C219.282 279.572 218.922 280.109 218.39 280.538C217.868 280.958 217.196 281.168 216.374 281.168ZM216.374 274.882C215.814 274.882 215.315 275.055 214.876 275.4C214.447 275.736 214.2 276.231 214.134 276.884H218.502C218.474 276.259 218.26 275.769 217.858 275.414C217.457 275.059 216.962 274.882 216.374 274.882ZM221.083 281V274.056H222.147L222.245 275.386C222.46 274.929 222.786 274.565 223.225 274.294C223.664 274.023 224.205 273.888 224.849 273.888V275.12H224.527C224.116 275.12 223.738 275.195 223.393 275.344C223.048 275.484 222.772 275.727 222.567 276.072C222.362 276.417 222.259 276.893 222.259 277.5V281H221.083ZM226.743 272.516C226.51 272.516 226.314 272.441 226.155 272.292C226.006 272.133 225.931 271.937 225.931 271.704C225.931 271.48 226.006 271.293 226.155 271.144C226.314 270.995 226.51 270.92 226.743 270.92C226.967 270.92 227.158 270.995 227.317 271.144C227.476 271.293 227.555 271.48 227.555 271.704C227.555 271.937 227.476 272.133 227.317 272.292C227.158 272.441 226.967 272.516 226.743 272.516ZM226.155 281V274.056H227.331V281H226.155ZM229.616 281V275.05H228.566V274.056H229.616V272.852C229.616 272.18 229.784 271.69 230.12 271.382C230.456 271.074 230.946 270.92 231.59 270.92H232.29V271.928H231.772C231.418 271.928 231.166 272.003 231.016 272.152C230.867 272.292 230.792 272.535 230.792 272.88V274.056H235.104V281H233.928V275.05H230.792V281H229.616ZM234.53 272.726C234.306 272.726 234.115 272.651 233.956 272.502C233.798 272.343 233.718 272.147 233.718 271.914C233.718 271.69 233.798 271.503 233.956 271.354C234.115 271.205 234.306 271.13 234.53 271.13C234.764 271.13 234.955 271.205 235.104 271.354C235.263 271.503 235.342 271.69 235.342 271.914C235.342 272.147 235.263 272.343 235.104 272.502C234.955 272.651 234.764 272.726 234.53 272.726ZM240.234 281.168C239.571 281.168 238.974 281.019 238.442 280.72C237.919 280.412 237.504 279.987 237.196 279.446C236.897 278.895 236.748 278.256 236.748 277.528C236.748 276.8 236.897 276.165 237.196 275.624C237.504 275.073 237.919 274.649 238.442 274.35C238.974 274.042 239.571 273.888 240.234 273.888C241.055 273.888 241.746 274.103 242.306 274.532C242.875 274.961 243.235 275.535 243.384 276.254H242.18C242.087 275.825 241.858 275.493 241.494 275.26C241.13 275.017 240.705 274.896 240.22 274.896C239.828 274.896 239.459 274.994 239.114 275.19C238.769 275.386 238.489 275.68 238.274 276.072C238.059 276.464 237.952 276.949 237.952 277.528C237.952 278.107 238.059 278.592 238.274 278.984C238.489 279.376 238.769 279.675 239.114 279.88C239.459 280.076 239.828 280.174 240.22 280.174C240.705 280.174 241.13 280.057 241.494 279.824C241.858 279.581 242.087 279.241 242.18 278.802H243.384C243.244 279.502 242.889 280.071 242.32 280.51C241.751 280.949 241.055 281.168 240.234 281.168ZM247.196 281.168C246.618 281.168 246.137 281.07 245.754 280.874C245.372 280.678 245.087 280.417 244.9 280.09C244.714 279.763 244.62 279.409 244.62 279.026C244.62 278.317 244.891 277.771 245.432 277.388C245.974 277.005 246.711 276.814 247.644 276.814H249.52V276.73C249.52 276.123 249.362 275.666 249.044 275.358C248.727 275.041 248.302 274.882 247.77 274.882C247.313 274.882 246.916 274.999 246.58 275.232C246.254 275.456 246.048 275.787 245.964 276.226H244.76C244.807 275.722 244.975 275.297 245.264 274.952C245.563 274.607 245.932 274.345 246.37 274.168C246.809 273.981 247.276 273.888 247.77 273.888C248.741 273.888 249.469 274.149 249.954 274.672C250.449 275.185 250.696 275.871 250.696 276.73V281H249.646L249.576 279.754C249.38 280.146 249.091 280.482 248.708 280.762C248.335 281.033 247.831 281.168 247.196 281.168ZM247.378 280.174C247.826 280.174 248.209 280.057 248.526 279.824C248.853 279.591 249.1 279.287 249.268 278.914C249.436 278.541 249.52 278.149 249.52 277.738V277.724H247.742C247.052 277.724 246.562 277.845 246.272 278.088C245.992 278.321 245.852 278.615 245.852 278.97C245.852 279.334 245.983 279.628 246.244 279.852C246.515 280.067 246.893 280.174 247.378 280.174ZM254.873 281C254.238 281 253.739 280.846 253.375 280.538C253.011 280.23 252.829 279.675 252.829 278.872V275.05H251.625V274.056H252.829L252.983 272.39H254.005V274.056H256.049V275.05H254.005V278.872C254.005 279.311 254.094 279.609 254.271 279.768C254.448 279.917 254.761 279.992 255.209 279.992H255.937V281H254.873ZM258.117 272.516C257.884 272.516 257.688 272.441 257.529 272.292C257.38 272.133 257.305 271.937 257.305 271.704C257.305 271.48 257.38 271.293 257.529 271.144C257.688 270.995 257.884 270.92 258.117 270.92C258.341 270.92 258.532 270.995 258.691 271.144C258.85 271.293 258.929 271.48 258.929 271.704C258.929 271.937 258.85 272.133 258.691 272.292C258.532 272.441 258.341 272.516 258.117 272.516ZM257.529 281V274.056H258.705V281H257.529ZM263.777 281.168C263.123 281.168 262.535 281.019 262.013 280.72C261.49 280.421 261.075 280.001 260.767 279.46C260.468 278.909 260.319 278.265 260.319 277.528C260.319 276.791 260.473 276.151 260.781 275.61C261.089 275.059 261.504 274.635 262.027 274.336C262.559 274.037 263.151 273.888 263.805 273.888C264.458 273.888 265.046 274.037 265.569 274.336C266.091 274.635 266.502 275.059 266.801 275.61C267.109 276.151 267.263 276.791 267.263 277.528C267.263 278.265 267.109 278.909 266.801 279.46C266.493 280.001 266.073 280.421 265.541 280.72C265.018 281.019 264.43 281.168 263.777 281.168ZM263.777 280.16C264.178 280.16 264.551 280.062 264.897 279.866C265.242 279.67 265.522 279.376 265.737 278.984C265.951 278.592 266.059 278.107 266.059 277.528C266.059 276.949 265.951 276.464 265.737 276.072C265.531 275.68 265.256 275.386 264.911 275.19C264.565 274.994 264.197 274.896 263.805 274.896C263.403 274.896 263.03 274.994 262.685 275.19C262.339 275.386 262.059 275.68 261.845 276.072C261.63 276.464 261.523 276.949 261.523 277.528C261.523 278.107 261.63 278.592 261.845 278.984C262.059 279.376 262.335 279.67 262.671 279.866C263.016 280.062 263.385 280.16 263.777 280.16ZM268.758 281V274.056H269.822L269.892 275.302C270.116 274.863 270.438 274.518 270.858 274.266C271.278 274.014 271.754 273.888 272.286 273.888C273.107 273.888 273.761 274.14 274.246 274.644C274.741 275.139 274.988 275.904 274.988 276.94V281H273.812V277.066C273.812 275.619 273.215 274.896 272.02 274.896C271.423 274.896 270.923 275.115 270.522 275.554C270.13 275.983 269.934 276.599 269.934 277.402V281H268.758ZM283.387 281.168C282.724 281.168 282.127 281.019 281.595 280.72C281.072 280.412 280.657 279.987 280.349 279.446C280.05 278.895 279.901 278.256 279.901 277.528C279.901 276.8 280.05 276.165 280.349 275.624C280.657 275.073 281.072 274.649 281.595 274.35C282.127 274.042 282.724 273.888 283.387 273.888C284.208 273.888 284.899 274.103 285.459 274.532C286.028 274.961 286.387 275.535 286.537 276.254H285.333C285.239 275.825 285.011 275.493 284.647 275.26C284.283 275.017 283.858 274.896 283.373 274.896C282.981 274.896 282.612 274.994 282.267 275.19C281.921 275.386 281.641 275.68 281.427 276.072C281.212 276.464 281.105 276.949 281.105 277.528C281.105 278.107 281.212 278.592 281.427 278.984C281.641 279.376 281.921 279.675 282.267 279.88C282.612 280.076 282.981 280.174 283.373 280.174C283.858 280.174 284.283 280.057 284.647 279.824C285.011 279.581 285.239 279.241 285.333 278.802H286.537C286.397 279.502 286.042 280.071 285.473 280.51C284.903 280.949 284.208 281.168 283.387 281.168ZM291.203 281.168C290.55 281.168 289.962 281.019 289.439 280.72C288.916 280.421 288.501 280.001 288.193 279.46C287.894 278.909 287.745 278.265 287.745 277.528C287.745 276.791 287.899 276.151 288.207 275.61C288.515 275.059 288.93 274.635 289.453 274.336C289.985 274.037 290.578 273.888 291.231 273.888C291.884 273.888 292.472 274.037 292.995 274.336C293.518 274.635 293.928 275.059 294.227 275.61C294.535 276.151 294.689 276.791 294.689 277.528C294.689 278.265 294.535 278.909 294.227 279.46C293.919 280.001 293.499 280.421 292.967 280.72C292.444 281.019 291.856 281.168 291.203 281.168ZM291.203 280.16C291.604 280.16 291.978 280.062 292.323 279.866C292.668 279.67 292.948 279.376 293.163 278.984C293.378 278.592 293.485 278.107 293.485 277.528C293.485 276.949 293.378 276.464 293.163 276.072C292.958 275.68 292.682 275.386 292.337 275.19C291.992 274.994 291.623 274.896 291.231 274.896C290.83 274.896 290.456 274.994 290.111 275.19C289.766 275.386 289.486 275.68 289.271 276.072C289.056 276.464 288.949 276.949 288.949 277.528C288.949 278.107 289.056 278.592 289.271 278.984C289.486 279.376 289.761 279.67 290.097 279.866C290.442 280.062 290.811 280.16 291.203 280.16ZM299.334 281.168C298.644 281.168 298.037 281.009 297.514 280.692C297.001 280.375 296.6 279.941 296.31 279.39C296.03 278.839 295.89 278.214 295.89 277.514C295.89 276.814 296.035 276.193 296.324 275.652C296.614 275.101 297.015 274.672 297.528 274.364C298.042 274.047 298.648 273.888 299.348 273.888C299.918 273.888 300.422 274.005 300.86 274.238C301.299 274.471 301.64 274.798 301.882 275.218V270.92H303.058V281H301.994L301.882 279.852C301.658 280.188 301.336 280.491 300.916 280.762C300.496 281.033 299.969 281.168 299.334 281.168ZM299.46 280.146C299.927 280.146 300.338 280.039 300.692 279.824C301.056 279.6 301.336 279.292 301.532 278.9C301.738 278.508 301.84 278.051 301.84 277.528C301.84 277.005 301.738 276.548 301.532 276.156C301.336 275.764 301.056 275.461 300.692 275.246C300.338 275.022 299.927 274.91 299.46 274.91C299.003 274.91 298.592 275.022 298.228 275.246C297.874 275.461 297.594 275.764 297.388 276.156C297.192 276.548 297.094 277.005 297.094 277.528C297.094 278.051 297.192 278.508 297.388 278.9C297.594 279.292 297.874 279.6 298.228 279.824C298.592 280.039 299.003 280.146 299.46 280.146ZM307.957 281.168C307.295 281.168 306.707 281.019 306.193 280.72C305.68 280.412 305.274 279.987 304.975 279.446C304.686 278.905 304.541 278.265 304.541 277.528C304.541 276.8 304.686 276.165 304.975 275.624C305.265 275.073 305.666 274.649 306.179 274.35C306.702 274.042 307.304 273.888 307.985 273.888C308.657 273.888 309.236 274.042 309.721 274.35C310.216 274.649 310.594 275.045 310.855 275.54C311.117 276.035 311.247 276.567 311.247 277.136C311.247 277.239 311.243 277.341 311.233 277.444C311.233 277.547 311.233 277.663 311.233 277.794H305.703C305.731 278.326 305.853 278.769 306.067 279.124C306.291 279.469 306.567 279.731 306.893 279.908C307.229 280.085 307.584 280.174 307.957 280.174C308.443 280.174 308.849 280.062 309.175 279.838C309.502 279.614 309.74 279.311 309.889 278.928H311.051C310.865 279.572 310.505 280.109 309.973 280.538C309.451 280.958 308.779 281.168 307.957 281.168ZM307.957 274.882C307.397 274.882 306.898 275.055 306.459 275.4C306.03 275.736 305.783 276.231 305.717 276.884H310.085C310.057 276.259 309.843 275.769 309.441 275.414C309.04 275.059 308.545 274.882 307.957 274.882Z" fill="black"/>
<path d="M159.27 303.168C158.626 303.168 158.047 303.051 157.534 302.818C157.021 302.575 156.615 302.244 156.316 301.824C156.027 301.395 155.882 300.9 155.882 300.34C155.882 299.743 156.055 299.206 156.4 298.73C156.755 298.254 157.221 297.937 157.8 297.778C157.268 297.601 156.857 297.316 156.568 296.924C156.279 296.532 156.134 296.103 156.134 295.636C156.134 295.16 156.26 294.726 156.512 294.334C156.764 293.933 157.123 293.615 157.59 293.382C158.057 293.149 158.617 293.032 159.27 293.032C159.923 293.032 160.483 293.149 160.95 293.382C161.417 293.615 161.776 293.933 162.028 294.334C162.28 294.726 162.406 295.16 162.406 295.636C162.406 296.093 162.261 296.523 161.972 296.924C161.683 297.316 161.272 297.601 160.74 297.778C161.319 297.937 161.781 298.254 162.126 298.73C162.481 299.206 162.658 299.743 162.658 300.34C162.658 300.9 162.509 301.395 162.21 301.824C161.921 302.244 161.519 302.575 161.006 302.818C160.493 303.051 159.914 303.168 159.27 303.168ZM159.27 297.358C159.867 297.358 160.339 297.209 160.684 296.91C161.039 296.602 161.216 296.201 161.216 295.706C161.216 295.155 161.043 294.74 160.698 294.46C160.353 294.18 159.877 294.04 159.27 294.04C158.663 294.04 158.187 294.18 157.842 294.46C157.506 294.74 157.338 295.155 157.338 295.706C157.338 296.201 157.511 296.602 157.856 296.91C158.201 297.209 158.673 297.358 159.27 297.358ZM159.27 302.132C160.007 302.132 160.558 301.964 160.922 301.628C161.295 301.283 161.482 300.83 161.482 300.27C161.482 299.635 161.281 299.155 160.88 298.828C160.479 298.501 159.942 298.338 159.27 298.338C158.598 298.338 158.061 298.501 157.66 298.828C157.259 299.155 157.058 299.635 157.058 300.27C157.058 300.83 157.24 301.283 157.604 301.628C157.977 301.964 158.533 302.132 159.27 302.132ZM164.884 303L168.776 294.208H163.4V293.2H169.98V294.082L166.13 303H164.884ZM174.261 303.168C173.645 303.168 173.118 303.047 172.679 302.804C172.241 302.561 171.891 302.239 171.629 301.838C171.377 301.427 171.223 300.975 171.167 300.48H172.259C172.353 301.012 172.577 301.423 172.931 301.712C173.286 302.001 173.734 302.146 174.275 302.146C175.022 302.146 175.643 301.801 176.137 301.11C176.632 300.41 176.898 299.323 176.935 297.848C176.711 298.287 176.352 298.669 175.857 298.996C175.372 299.313 174.784 299.472 174.093 299.472C173.543 299.472 173.02 299.341 172.525 299.08C172.031 298.819 171.629 298.455 171.321 297.988C171.013 297.512 170.859 296.957 170.859 296.322C170.859 295.771 170.995 295.244 171.265 294.74C171.545 294.236 171.937 293.825 172.441 293.508C172.945 293.191 173.547 293.032 174.247 293.032C174.957 293.032 175.554 293.167 176.039 293.438C176.525 293.699 176.912 294.054 177.201 294.502C177.5 294.95 177.715 295.454 177.845 296.014C177.985 296.565 178.055 297.129 178.055 297.708C178.055 298.791 177.906 299.743 177.607 300.564C177.309 301.376 176.875 302.015 176.305 302.482C175.745 302.939 175.064 303.168 174.261 303.168ZM174.331 298.45C174.77 298.45 175.162 298.352 175.507 298.156C175.853 297.951 176.128 297.68 176.333 297.344C176.539 297.008 176.641 296.644 176.641 296.252C176.641 295.832 176.539 295.459 176.333 295.132C176.128 294.796 175.853 294.535 175.507 294.348C175.162 294.161 174.77 294.068 174.331 294.068C173.893 294.068 173.501 294.161 173.155 294.348C172.81 294.535 172.539 294.796 172.343 295.132C172.147 295.459 172.049 295.837 172.049 296.266C172.049 296.929 172.264 297.461 172.693 297.862C173.132 298.254 173.678 298.45 174.331 298.45ZM183.528 303.168C182.66 303.168 181.909 302.958 181.274 302.538C180.649 302.109 180.168 301.516 179.832 300.76C179.496 299.995 179.328 299.108 179.328 298.1C179.328 297.092 179.496 296.21 179.832 295.454C180.168 294.689 180.649 294.096 181.274 293.676C181.909 293.247 182.66 293.032 183.528 293.032C184.396 293.032 185.143 293.247 185.768 293.676C186.393 294.096 186.874 294.689 187.21 295.454C187.546 296.21 187.714 297.092 187.714 298.1C187.714 299.108 187.546 299.995 187.21 300.76C186.874 301.516 186.393 302.109 185.768 302.538C185.143 302.958 184.396 303.168 183.528 303.168ZM183.528 302.132C184.097 302.132 184.606 301.973 185.054 301.656C185.511 301.329 185.866 300.867 186.118 300.27C186.379 299.663 186.51 298.94 186.51 298.1C186.51 297.26 186.379 296.541 186.118 295.944C185.866 295.347 185.511 294.889 185.054 294.572C184.606 294.245 184.097 294.082 183.528 294.082C182.949 294.082 182.436 294.245 181.988 294.572C181.54 294.889 181.185 295.347 180.924 295.944C180.663 296.541 180.532 297.26 180.532 298.1C180.532 298.94 180.663 299.663 180.924 300.27C181.185 300.867 181.54 301.329 181.988 301.656C182.436 301.973 182.949 302.132 183.528 302.132ZM193.482 294.516C193.249 294.516 193.053 294.441 192.894 294.292C192.745 294.133 192.67 293.937 192.67 293.704C192.67 293.48 192.745 293.293 192.894 293.144C193.053 292.995 193.249 292.92 193.482 292.92C193.706 292.92 193.897 292.995 194.056 293.144C194.215 293.293 194.294 293.48 194.294 293.704C194.294 293.937 194.215 294.133 194.056 294.292C193.897 294.441 193.706 294.516 193.482 294.516ZM192.894 303V296.056H194.07V303H192.894ZM198.638 303.168C197.807 303.168 197.116 302.958 196.566 302.538C196.015 302.118 195.693 301.549 195.6 300.83H196.804C196.878 301.194 197.07 301.511 197.378 301.782C197.695 302.043 198.12 302.174 198.652 302.174C199.146 302.174 199.51 302.071 199.744 301.866C199.977 301.651 200.094 301.399 200.094 301.11C200.094 300.69 199.94 300.41 199.632 300.27C199.333 300.13 198.908 300.004 198.358 299.892C197.984 299.817 197.611 299.71 197.238 299.57C196.864 299.43 196.552 299.234 196.3 298.982C196.048 298.721 195.922 298.38 195.922 297.96C195.922 297.353 196.146 296.859 196.594 296.476C197.051 296.084 197.667 295.888 198.442 295.888C199.179 295.888 199.781 296.075 200.248 296.448C200.724 296.812 200.999 297.335 201.074 298.016H199.912C199.865 297.661 199.711 297.386 199.45 297.19C199.198 296.985 198.857 296.882 198.428 296.882C198.008 296.882 197.681 296.971 197.448 297.148C197.224 297.325 197.112 297.559 197.112 297.848C197.112 298.128 197.256 298.347 197.546 298.506C197.844 298.665 198.246 298.8 198.75 298.912C199.179 299.005 199.585 299.122 199.968 299.262C200.36 299.393 200.677 299.593 200.92 299.864C201.172 300.125 201.298 300.508 201.298 301.012C201.307 301.637 201.069 302.155 200.584 302.566C200.108 302.967 199.459 303.168 198.638 303.168ZM207.159 306.08L208.881 302.328H208.475L205.717 296.056H206.991L209.287 301.46L211.723 296.056H212.941L208.391 306.08H207.159ZM216.55 303.168C215.896 303.168 215.308 303.019 214.786 302.72C214.263 302.421 213.848 302.001 213.54 301.46C213.241 300.909 213.092 300.265 213.092 299.528C213.092 298.791 213.246 298.151 213.554 297.61C213.862 297.059 214.277 296.635 214.8 296.336C215.332 296.037 215.924 295.888 216.578 295.888C217.231 295.888 217.819 296.037 218.342 296.336C218.864 296.635 219.275 297.059 219.574 297.61C219.882 298.151 220.036 298.791 220.036 299.528C220.036 300.265 219.882 300.909 219.574 301.46C219.266 302.001 218.846 302.421 218.314 302.72C217.791 303.019 217.203 303.168 216.55 303.168ZM216.55 302.16C216.951 302.16 217.324 302.062 217.67 301.866C218.015 301.67 218.295 301.376 218.51 300.984C218.724 300.592 218.832 300.107 218.832 299.528C218.832 298.949 218.724 298.464 218.51 298.072C218.304 297.68 218.029 297.386 217.684 297.19C217.338 296.994 216.97 296.896 216.578 296.896C216.176 296.896 215.803 296.994 215.458 297.19C215.112 297.386 214.832 297.68 214.618 298.072C214.403 298.464 214.296 298.949 214.296 299.528C214.296 300.107 214.403 300.592 214.618 300.984C214.832 301.376 215.108 301.67 215.444 301.866C215.789 302.062 216.158 302.16 216.55 302.16ZM224.065 303.168C223.244 303.168 222.59 302.921 222.105 302.426C221.62 301.922 221.377 301.152 221.377 300.116V296.056H222.553V299.99C222.553 301.437 223.146 302.16 224.331 302.16C224.938 302.16 225.437 301.945 225.829 301.516C226.23 301.077 226.431 300.457 226.431 299.654V296.056H227.607V303H226.543L226.459 301.754C226.244 302.193 225.922 302.538 225.493 302.79C225.073 303.042 224.597 303.168 224.065 303.168ZM229.403 303V296.056H230.467L230.565 297.386C230.779 296.929 231.106 296.565 231.545 296.294C231.983 296.023 232.525 295.888 233.169 295.888V297.12H232.847C232.436 297.12 232.058 297.195 231.713 297.344C231.367 297.484 231.092 297.727 230.887 298.072C230.681 298.417 230.579 298.893 230.579 299.5V303H229.403ZM239.916 303L237.284 296.056H238.516L240.602 301.866L242.702 296.056H243.906L241.274 303H239.916ZM247.841 303.168C247.178 303.168 246.59 303.019 246.077 302.72C245.564 302.412 245.158 301.987 244.859 301.446C244.57 300.905 244.425 300.265 244.425 299.528C244.425 298.8 244.57 298.165 244.859 297.624C245.148 297.073 245.55 296.649 246.063 296.35C246.586 296.042 247.188 295.888 247.869 295.888C248.541 295.888 249.12 296.042 249.605 296.35C250.1 296.649 250.478 297.045 250.739 297.54C251 298.035 251.131 298.567 251.131 299.136C251.131 299.239 251.126 299.341 251.117 299.444C251.117 299.547 251.117 299.663 251.117 299.794H245.587C245.615 300.326 245.736 300.769 245.951 301.124C246.175 301.469 246.45 301.731 246.777 301.908C247.113 302.085 247.468 302.174 247.841 302.174C248.326 302.174 248.732 302.062 249.059 301.838C249.386 301.614 249.624 301.311 249.773 300.928H250.935C250.748 301.572 250.389 302.109 249.857 302.538C249.334 302.958 248.662 303.168 247.841 303.168ZM247.841 296.882C247.281 296.882 246.782 297.055 246.343 297.4C245.914 297.736 245.666 298.231 245.601 298.884H249.969C249.941 298.259 249.726 297.769 249.325 297.414C248.924 297.059 248.429 296.882 247.841 296.882ZM252.55 303V296.056H253.614L253.712 297.386C253.926 296.929 254.253 296.565 254.692 296.294C255.13 296.023 255.672 295.888 256.316 295.888V297.12H255.994C255.583 297.12 255.205 297.195 254.86 297.344C254.514 297.484 254.239 297.727 254.034 298.072C253.828 298.417 253.726 298.893 253.726 299.5V303H252.55ZM258.21 294.516C257.976 294.516 257.78 294.441 257.622 294.292C257.472 294.133 257.398 293.937 257.398 293.704C257.398 293.48 257.472 293.293 257.622 293.144C257.78 292.995 257.976 292.92 258.21 292.92C258.434 292.92 258.625 292.995 258.784 293.144C258.942 293.293 259.022 293.48 259.022 293.704C259.022 293.937 258.942 294.133 258.784 294.292C258.625 294.441 258.434 294.516 258.21 294.516ZM257.622 303V296.056H258.798V303H257.622ZM261.083 303V297.05H260.033V296.056H261.083V294.852C261.083 294.18 261.251 293.69 261.587 293.382C261.923 293.074 262.413 292.92 263.057 292.92H263.757V293.928H263.239C262.884 293.928 262.632 294.003 262.483 294.152C262.334 294.292 262.259 294.535 262.259 294.88V296.056H266.571V303H265.395V297.05H262.259V303H261.083ZM265.997 294.726C265.773 294.726 265.582 294.651 265.423 294.502C265.264 294.343 265.185 294.147 265.185 293.914C265.185 293.69 265.264 293.503 265.423 293.354C265.582 293.205 265.773 293.13 265.997 293.13C266.23 293.13 266.422 293.205 266.571 293.354C266.73 293.503 266.809 293.69 266.809 293.914C266.809 294.147 266.73 294.343 266.571 294.502C266.422 294.651 266.23 294.726 265.997 294.726ZM271.701 303.168C271.038 303.168 270.441 303.019 269.909 302.72C269.386 302.412 268.971 301.987 268.663 301.446C268.364 300.895 268.215 300.256 268.215 299.528C268.215 298.8 268.364 298.165 268.663 297.624C268.971 297.073 269.386 296.649 269.909 296.35C270.441 296.042 271.038 295.888 271.701 295.888C272.522 295.888 273.213 296.103 273.773 296.532C274.342 296.961 274.701 297.535 274.851 298.254H273.647C273.553 297.825 273.325 297.493 272.961 297.26C272.597 297.017 272.172 296.896 271.687 296.896C271.295 296.896 270.926 296.994 270.581 297.19C270.235 297.386 269.955 297.68 269.741 298.072C269.526 298.464 269.419 298.949 269.419 299.528C269.419 300.107 269.526 300.592 269.741 300.984C269.955 301.376 270.235 301.675 270.581 301.88C270.926 302.076 271.295 302.174 271.687 302.174C272.172 302.174 272.597 302.057 272.961 301.824C273.325 301.581 273.553 301.241 273.647 300.802H274.851C274.711 301.502 274.356 302.071 273.787 302.51C273.217 302.949 272.522 303.168 271.701 303.168ZM278.663 303.168C278.084 303.168 277.604 303.07 277.221 302.874C276.838 302.678 276.554 302.417 276.367 302.09C276.18 301.763 276.087 301.409 276.087 301.026C276.087 300.317 276.358 299.771 276.899 299.388C277.44 299.005 278.178 298.814 279.111 298.814H280.987V298.73C280.987 298.123 280.828 297.666 280.511 297.358C280.194 297.041 279.769 296.882 279.237 296.882C278.78 296.882 278.383 296.999 278.047 297.232C277.72 297.456 277.515 297.787 277.431 298.226H276.227C276.274 297.722 276.442 297.297 276.731 296.952C277.03 296.607 277.398 296.345 277.837 296.168C278.276 295.981 278.742 295.888 279.237 295.888C280.208 295.888 280.936 296.149 281.421 296.672C281.916 297.185 282.163 297.871 282.163 298.73V303H281.113L281.043 301.754C280.847 302.146 280.558 302.482 280.175 302.762C279.802 303.033 279.298 303.168 278.663 303.168ZM278.845 302.174C279.293 302.174 279.676 302.057 279.993 301.824C280.32 301.591 280.567 301.287 280.735 300.914C280.903 300.541 280.987 300.149 280.987 299.738V299.724H279.209C278.518 299.724 278.028 299.845 277.739 300.088C277.459 300.321 277.319 300.615 277.319 300.97C277.319 301.334 277.45 301.628 277.711 301.852C277.982 302.067 278.36 302.174 278.845 302.174ZM286.34 303C285.705 303 285.206 302.846 284.842 302.538C284.478 302.23 284.296 301.675 284.296 300.872V297.05H283.092V296.056H284.296L284.45 294.39H285.472V296.056H287.516V297.05H285.472V300.872C285.472 301.311 285.56 301.609 285.738 301.768C285.915 301.917 286.228 301.992 286.676 301.992H287.404V303H286.34ZM289.584 294.516C289.35 294.516 289.154 294.441 288.996 294.292C288.846 294.133 288.772 293.937 288.772 293.704C288.772 293.48 288.846 293.293 288.996 293.144C289.154 292.995 289.35 292.92 289.584 292.92C289.808 292.92 289.999 292.995 290.158 293.144C290.316 293.293 290.396 293.48 290.396 293.704C290.396 293.937 290.316 294.133 290.158 294.292C289.999 294.441 289.808 294.516 289.584 294.516ZM288.996 303V296.056H290.172V303H288.996ZM295.243 303.168C294.59 303.168 294.002 303.019 293.479 302.72C292.957 302.421 292.541 302.001 292.233 301.46C291.935 300.909 291.785 300.265 291.785 299.528C291.785 298.791 291.939 298.151 292.247 297.61C292.555 297.059 292.971 296.635 293.493 296.336C294.025 296.037 294.618 295.888 295.271 295.888C295.925 295.888 296.513 296.037 297.035 296.336C297.558 296.635 297.969 297.059 298.267 297.61C298.575 298.151 298.729 298.791 298.729 299.528C298.729 300.265 298.575 300.909 298.267 301.46C297.959 302.001 297.539 302.421 297.007 302.72C296.485 303.019 295.897 303.168 295.243 303.168ZM295.243 302.16C295.645 302.16 296.018 302.062 296.363 301.866C296.709 301.67 296.989 301.376 297.203 300.984C297.418 300.592 297.525 300.107 297.525 299.528C297.525 298.949 297.418 298.464 297.203 298.072C296.998 297.68 296.723 297.386 296.377 297.19C296.032 296.994 295.663 296.896 295.271 296.896C294.87 296.896 294.497 296.994 294.151 297.19C293.806 297.386 293.526 297.68 293.311 298.072C293.097 298.464 292.989 298.949 292.989 299.528C292.989 300.107 293.097 300.592 293.311 300.984C293.526 301.376 293.801 301.67 294.137 301.866C294.483 302.062 294.851 302.16 295.243 302.16ZM300.225 303V296.056H301.289L301.359 297.302C301.583 296.863 301.905 296.518 302.325 296.266C302.745 296.014 303.221 295.888 303.753 295.888C304.574 295.888 305.227 296.14 305.713 296.644C306.207 297.139 306.455 297.904 306.455 298.94V303H305.279V299.066C305.279 297.619 304.681 296.896 303.487 296.896C302.889 296.896 302.39 297.115 301.989 297.554C301.597 297.983 301.401 298.599 301.401 299.402V303H300.225ZM314.853 303.168C314.191 303.168 313.593 303.019 313.061 302.72C312.539 302.412 312.123 301.987 311.815 301.446C311.517 300.895 311.367 300.256 311.367 299.528C311.367 298.8 311.517 298.165 311.815 297.624C312.123 297.073 312.539 296.649 313.061 296.35C313.593 296.042 314.191 295.888 314.853 295.888C315.675 295.888 316.365 296.103 316.925 296.532C317.495 296.961 317.854 297.535 318.003 298.254H316.799C316.706 297.825 316.477 297.493 316.113 297.26C315.749 297.017 315.325 296.896 314.839 296.896C314.447 296.896 314.079 296.994 313.733 297.19C313.388 297.386 313.108 297.68 312.893 298.072C312.679 298.464 312.571 298.949 312.571 299.528C312.571 300.107 312.679 300.592 312.893 300.984C313.108 301.376 313.388 301.675 313.733 301.88C314.079 302.076 314.447 302.174 314.839 302.174C315.325 302.174 315.749 302.057 316.113 301.824C316.477 301.581 316.706 301.241 316.799 300.802H318.003C317.863 301.502 317.509 302.071 316.939 302.51C316.37 302.949 315.675 303.168 314.853 303.168ZM322.67 303.168C322.016 303.168 321.428 303.019 320.906 302.72C320.383 302.421 319.968 302.001 319.66 301.46C319.361 300.909 319.212 300.265 319.212 299.528C319.212 298.791 319.366 298.151 319.674 297.61C319.982 297.059 320.397 296.635 320.92 296.336C321.452 296.037 322.044 295.888 322.698 295.888C323.351 295.888 323.939 296.037 324.462 296.336C324.984 296.635 325.395 297.059 325.694 297.61C326.002 298.151 326.156 298.791 326.156 299.528C326.156 300.265 326.002 300.909 325.694 301.46C325.386 302.001 324.966 302.421 324.434 302.72C323.911 303.019 323.323 303.168 322.67 303.168ZM322.67 302.16C323.071 302.16 323.444 302.062 323.79 301.866C324.135 301.67 324.415 301.376 324.63 300.984C324.844 300.592 324.952 300.107 324.952 299.528C324.952 298.949 324.844 298.464 324.63 298.072C324.424 297.68 324.149 297.386 323.804 297.19C323.458 296.994 323.09 296.896 322.698 296.896C322.296 296.896 321.923 296.994 321.578 297.19C321.232 297.386 320.952 297.68 320.738 298.072C320.523 298.464 320.416 298.949 320.416 299.528C320.416 300.107 320.523 300.592 320.738 300.984C320.952 301.376 321.228 301.67 321.564 301.866C321.909 302.062 322.278 302.16 322.67 302.16ZM330.801 303.168C330.11 303.168 329.504 303.009 328.981 302.692C328.468 302.375 328.066 301.941 327.777 301.39C327.497 300.839 327.357 300.214 327.357 299.514C327.357 298.814 327.502 298.193 327.791 297.652C328.08 297.101 328.482 296.672 328.995 296.364C329.508 296.047 330.115 295.888 330.815 295.888C331.384 295.888 331.888 296.005 332.327 296.238C332.766 296.471 333.106 296.798 333.349 297.218V292.92H334.525V303H333.461L333.349 301.852C333.125 302.188 332.803 302.491 332.383 302.762C331.963 303.033 331.436 303.168 330.801 303.168ZM330.927 302.146C331.394 302.146 331.804 302.039 332.159 301.824C332.523 301.6 332.803 301.292 332.999 300.9C333.204 300.508 333.307 300.051 333.307 299.528C333.307 299.005 333.204 298.548 332.999 298.156C332.803 297.764 332.523 297.461 332.159 297.246C331.804 297.022 331.394 296.91 330.927 296.91C330.47 296.91 330.059 297.022 329.695 297.246C329.34 297.461 329.06 297.764 328.855 298.156C328.659 298.548 328.561 299.005 328.561 299.528C328.561 300.051 328.659 300.508 328.855 300.9C329.06 301.292 329.34 301.6 329.695 301.824C330.059 302.039 330.47 302.146 330.927 302.146ZM339.424 303.168C338.761 303.168 338.173 303.019 337.66 302.72C337.147 302.412 336.741 301.987 336.442 301.446C336.153 300.905 336.008 300.265 336.008 299.528C336.008 298.8 336.153 298.165 336.442 297.624C336.731 297.073 337.133 296.649 337.646 296.35C338.169 296.042 338.771 295.888 339.452 295.888C340.124 295.888 340.703 296.042 341.188 296.35C341.683 296.649 342.061 297.045 342.322 297.54C342.583 298.035 342.714 298.567 342.714 299.136C342.714 299.239 342.709 299.341 342.7 299.444C342.7 299.547 342.7 299.663 342.7 299.794H337.17C337.198 300.326 337.319 300.769 337.534 301.124C337.758 301.469 338.033 301.731 338.36 301.908C338.696 302.085 339.051 302.174 339.424 302.174C339.909 302.174 340.315 302.062 340.642 301.838C340.969 301.614 341.207 301.311 341.356 300.928H342.518C342.331 301.572 341.972 302.109 341.44 302.538C340.917 302.958 340.245 303.168 339.424 303.168ZM339.424 296.882C338.864 296.882 338.365 297.055 337.926 297.4C337.497 297.736 337.249 298.231 337.184 298.884H341.552C341.524 298.259 341.309 297.769 340.908 297.414C340.507 297.059 340.012 296.882 339.424 296.882ZM344.539 303.07C344.305 303.07 344.109 302.995 343.951 302.846C343.801 302.687 343.727 302.496 343.727 302.272C343.727 302.048 343.801 301.861 343.951 301.712C344.109 301.553 344.305 301.474 344.539 301.474C344.763 301.474 344.949 301.553 345.099 301.712C345.257 301.861 345.337 302.048 345.337 302.272C345.337 302.496 345.257 302.687 345.099 302.846C344.949 302.995 344.763 303.07 344.539 303.07ZM350.362 303V293.2H353.372C355.099 293.2 356.368 293.639 357.18 294.516C358.001 295.393 358.412 296.597 358.412 298.128C358.412 299.631 358.001 300.821 357.18 301.698C356.368 302.566 355.099 303 353.372 303H350.362ZM351.538 302.02H353.344C354.296 302.02 355.052 301.866 355.612 301.558C356.181 301.241 356.587 300.793 356.83 300.214C357.073 299.626 357.194 298.931 357.194 298.128C357.194 297.307 357.073 296.602 356.83 296.014C356.587 295.426 356.181 294.973 355.612 294.656C355.052 294.339 354.296 294.18 353.344 294.18H351.538V302.02ZM363.064 303.168C362.411 303.168 361.823 303.019 361.3 302.72C360.777 302.421 360.362 302.001 360.054 301.46C359.755 300.909 359.606 300.265 359.606 299.528C359.606 298.791 359.76 298.151 360.068 297.61C360.376 297.059 360.791 296.635 361.314 296.336C361.846 296.037 362.439 295.888 363.092 295.888C363.745 295.888 364.333 296.037 364.856 296.336C365.379 296.635 365.789 297.059 366.088 297.61C366.396 298.151 366.55 298.791 366.55 299.528C366.55 300.265 366.396 300.909 366.088 301.46C365.78 302.001 365.36 302.421 364.828 302.72C364.305 303.019 363.717 303.168 363.064 303.168ZM363.064 302.16C363.465 302.16 363.839 302.062 364.184 301.866C364.529 301.67 364.809 301.376 365.024 300.984C365.239 300.592 365.346 300.107 365.346 299.528C365.346 298.949 365.239 298.464 365.024 298.072C364.819 297.68 364.543 297.386 364.198 297.19C363.853 296.994 363.484 296.896 363.092 296.896C362.691 296.896 362.317 296.994 361.972 297.19C361.627 297.386 361.347 297.68 361.132 298.072C360.917 298.464 360.81 298.949 360.81 299.528C360.81 300.107 360.917 300.592 361.132 300.984C361.347 301.376 361.622 301.67 361.958 301.866C362.303 302.062 362.672 302.16 363.064 302.16ZM372.016 303.07C371.783 303.07 371.587 302.995 371.428 302.846C371.279 302.687 371.204 302.496 371.204 302.272C371.204 302.048 371.279 301.861 371.428 301.712C371.587 301.553 371.783 301.474 372.016 301.474C372.24 301.474 372.427 301.553 372.576 301.712C372.735 301.861 372.814 302.048 372.814 302.272C372.814 302.496 372.735 302.687 372.576 302.846C372.427 302.995 372.24 303.07 372.016 303.07ZM374.611 303.07C374.377 303.07 374.181 302.995 374.023 302.846C373.873 302.687 373.799 302.496 373.799 302.272C373.799 302.048 373.873 301.861 374.023 301.712C374.181 301.553 374.377 301.474 374.611 301.474C374.835 301.474 375.021 301.553 375.171 301.712C375.329 301.861 375.409 302.048 375.409 302.272C375.409 302.496 375.329 302.687 375.171 302.846C375.021 302.995 374.835 303.07 374.611 303.07ZM377.205 303.07C376.972 303.07 376.776 302.995 376.617 302.846C376.468 302.687 376.393 302.496 376.393 302.272C376.393 302.048 376.468 301.861 376.617 301.712C376.776 301.553 376.972 301.474 377.205 301.474C377.429 301.474 377.616 301.553 377.765 301.712C377.924 301.861 378.003 302.048 378.003 302.272C378.003 302.496 377.924 302.687 377.765 302.846C377.616 302.995 377.429 303.07 377.205 303.07Z" fill="#9A9A9A"/>
<g filter="url(#filter2_d_127_763)">
<rect x="40" y="40" width="321" height="106" rx="8" fill="white"/>
</g>
<path d="M40 56C40 48.4575 40 44.6863 42.3431 42.3431C44.6863 40 48.4575 40 56 40H345C352.542 40 356.314 40 358.657 42.3431C361 44.6863 361 48.4575 361 56V76H40V56Z" fill="#24D166" fill-opacity="0.16"/>
<path d="M64.832 65.192C64.0107 65.192 63.2907 65.048 62.672 64.76C62.0533 64.472 61.568 64.0613 61.216 63.528C60.8747 62.9947 60.6987 62.36 60.688 61.624H62.48C62.4907 62.2213 62.6987 62.728 63.104 63.144C63.5093 63.56 64.08 63.768 64.816 63.768C65.4667 63.768 65.9733 63.6133 66.336 63.304C66.7093 62.984 66.896 62.5787 66.896 62.088C66.896 61.6933 66.8053 61.3733 66.624 61.128C66.4533 60.8827 66.2133 60.68 65.904 60.52C65.6053 60.36 65.2587 60.216 64.864 60.088C64.4693 59.96 64.0533 59.8213 63.616 59.672C62.752 59.384 62.1013 59.0107 61.664 58.552C61.2373 58.0933 61.024 57.4907 61.024 56.744C61.0133 56.1147 61.1573 55.5653 61.456 55.096C61.7653 54.6267 62.192 54.264 62.736 54.008C63.2907 53.7413 63.936 53.608 64.672 53.608C65.3973 53.608 66.032 53.7413 66.576 54.008C67.1307 54.2747 67.5627 54.648 67.872 55.128C68.1813 55.5973 68.3413 56.1467 68.352 56.776H66.56C66.56 56.488 66.4853 56.216 66.336 55.96C66.1867 55.6933 65.968 55.4747 65.68 55.304C65.392 55.1333 65.04 55.048 64.624 55.048C64.0907 55.0373 63.648 55.1707 63.296 55.448C62.9547 55.7253 62.784 56.1093 62.784 56.6C62.784 57.0373 62.912 57.3733 63.168 57.608C63.424 57.8427 63.776 58.04 64.224 58.2C64.672 58.3493 65.184 58.5253 65.76 58.728C66.3147 58.9093 66.8107 59.128 67.248 59.384C67.6853 59.64 68.032 59.976 68.288 60.392C68.5547 60.808 68.688 61.336 68.688 61.976C68.688 62.5413 68.544 63.0693 68.256 63.56C67.968 64.04 67.536 64.4347 66.96 64.744C66.384 65.0427 65.6747 65.192 64.832 65.192ZM70.3823 65V53.8H72.3823L76.1743 61.256L79.9503 53.8H81.9503V65H80.2543V56.728L76.8303 63.4H75.5183L72.0783 56.744V65H70.3823ZM87.762 65.192C86.9407 65.192 86.2207 65.048 85.602 64.76C84.9833 64.472 84.498 64.0613 84.146 63.528C83.8047 62.9947 83.6287 62.36 83.618 61.624H85.41C85.4207 62.2213 85.6287 62.728 86.034 63.144C86.4393 63.56 87.01 63.768 87.746 63.768C88.3967 63.768 88.9033 63.6133 89.266 63.304C89.6393 62.984 89.826 62.5787 89.826 62.088C89.826 61.6933 89.7353 61.3733 89.554 61.128C89.3833 60.8827 89.1433 60.68 88.834 60.52C88.5353 60.36 88.1887 60.216 87.794 60.088C87.3993 59.96 86.9833 59.8213 86.546 59.672C85.682 59.384 85.0313 59.0107 84.594 58.552C84.1673 58.0933 83.954 57.4907 83.954 56.744C83.9433 56.1147 84.0873 55.5653 84.386 55.096C84.6953 54.6267 85.122 54.264 85.666 54.008C86.2207 53.7413 86.866 53.608 87.602 53.608C88.3273 53.608 88.962 53.7413 89.506 54.008C90.0607 54.2747 90.4927 54.648 90.802 55.128C91.1113 55.5973 91.2713 56.1467 91.282 56.776H89.49C89.49 56.488 89.4153 56.216 89.266 55.96C89.1167 55.6933 88.898 55.4747 88.61 55.304C88.322 55.1333 87.97 55.048 87.554 55.048C87.0207 55.0373 86.578 55.1707 86.226 55.448C85.8847 55.7253 85.714 56.1093 85.714 56.6C85.714 57.0373 85.842 57.3733 86.098 57.608C86.354 57.8427 86.706 58.04 87.154 58.2C87.602 58.3493 88.114 58.5253 88.69 58.728C89.2447 58.9093 89.7407 59.128 90.178 59.384C90.6153 59.64 90.962 59.976 91.218 60.392C91.4847 60.808 91.618 61.336 91.618 61.976C91.618 62.5413 91.474 63.0693 91.186 63.56C90.898 64.04 90.466 64.4347 89.89 64.744C89.314 65.0427 88.6047 65.192 87.762 65.192Z" fill="#1BA55A"/>
<path d="M63.472 104V100.276L60.28 94.2H61.61L64.06 99.156L66.51 94.2H67.826L64.648 100.276V104H63.472ZM70.8806 104.168C70.2273 104.168 69.6393 104.019 69.1166 103.72C68.594 103.421 68.1786 103.001 67.8706 102.46C67.572 101.909 67.4226 101.265 67.4226 100.528C67.4226 99.7907 67.5766 99.1513 67.8846 98.61C68.1926 98.0593 68.608 97.6347 69.1306 97.336C69.6626 97.0373 70.2553 96.888 70.9086 96.888C71.562 96.888 72.15 97.0373 72.6726 97.336C73.1953 97.6347 73.606 98.0593 73.9046 98.61C74.2126 99.1513 74.3666 99.7907 74.3666 100.528C74.3666 101.265 74.2126 101.909 73.9046 102.46C73.5966 103.001 73.1766 103.421 72.6446 103.72C72.122 104.019 71.534 104.168 70.8806 104.168ZM70.8806 103.16C71.282 103.16 71.6553 103.062 72.0006 102.866C72.346 102.67 72.626 102.376 72.8406 101.984C73.0553 101.592 73.1626 101.107 73.1626 100.528C73.1626 99.9493 73.0553 99.464 72.8406 99.072C72.6353 98.68 72.36 98.386 72.0146 98.19C71.6693 97.994 71.3006 97.896 70.9086 97.896C70.5073 97.896 70.134 97.994 69.7886 98.19C69.4433 98.386 69.1633 98.68 68.9486 99.072C68.734 99.464 68.6266 99.9493 68.6266 100.528C68.6266 101.107 68.734 101.592 68.9486 101.984C69.1633 102.376 69.4386 102.67 69.7746 102.866C70.12 103.062 70.4886 103.16 70.8806 103.16ZM78.3958 104.168C77.5744 104.168 76.9211 103.921 76.4358 103.426C75.9504 102.922 75.7078 102.152 75.7078 101.116V97.056H76.8838V100.99C76.8838 102.437 77.4764 103.16 78.6618 103.16C79.2684 103.16 79.7678 102.945 80.1598 102.516C80.5611 102.077 80.7618 101.457 80.7618 100.654V97.056H81.9378V104H80.8738L80.7898 102.754C80.5751 103.193 80.2531 103.538 79.8238 103.79C79.4038 104.042 78.9278 104.168 78.3958 104.168ZM83.7335 104V97.056H84.7975L84.8955 98.386C85.1102 97.9287 85.4368 97.5647 85.8755 97.294C86.3142 97.0233 86.8555 96.888 87.4995 96.888V98.12H87.1775C86.7668 98.12 86.3888 98.1947 86.0435 98.344C85.6982 98.484 85.4228 98.7267 85.2175 99.072C85.0122 99.4173 84.9095 99.8933 84.9095 100.5V104H83.7335ZM95.4085 104.168C94.7552 104.168 94.1672 104.019 93.6445 103.72C93.1218 103.421 92.7065 103.001 92.3985 102.46C92.0998 101.909 91.9505 101.265 91.9505 100.528C91.9505 99.7907 92.1045 99.1513 92.4125 98.61C92.7205 98.0593 93.1358 97.6347 93.6585 97.336C94.1905 97.0373 94.7832 96.888 95.4365 96.888C96.0898 96.888 96.6778 97.0373 97.2005 97.336C97.7232 97.6347 98.1338 98.0593 98.4325 98.61C98.7405 99.1513 98.8945 99.7907 98.8945 100.528C98.8945 101.265 98.7405 101.909 98.4325 102.46C98.1245 103.001 97.7045 103.421 97.1725 103.72C96.6498 104.019 96.0618 104.168 95.4085 104.168ZM95.4085 103.16C95.8098 103.16 96.1832 103.062 96.5285 102.866C96.8738 102.67 97.1538 102.376 97.3685 101.984C97.5832 101.592 97.6905 101.107 97.6905 100.528C97.6905 99.9493 97.5832 99.464 97.3685 99.072C97.1632 98.68 96.8878 98.386 96.5425 98.19C96.1972 97.994 95.8285 97.896 95.4365 97.896C95.0352 97.896 94.6618 97.994 94.3165 98.19C93.9712 98.386 93.6912 98.68 93.4765 99.072C93.2618 99.464 93.1545 99.9493 93.1545 100.528C93.1545 101.107 93.2618 101.592 93.4765 101.984C93.6912 102.376 93.9665 102.67 94.3025 102.866C94.6478 103.062 95.0165 103.16 95.4085 103.16ZM100.39 104V97.056H101.454L101.524 98.302C101.748 97.8633 102.07 97.518 102.49 97.266C102.91 97.014 103.386 96.888 103.918 96.888C104.739 96.888 105.392 97.14 105.878 97.644C106.372 98.1387 106.62 98.904 106.62 99.94V104H105.444V100.066C105.444 98.6193 104.846 97.896 103.652 97.896C103.054 97.896 102.555 98.1153 102.154 98.554C101.762 98.9833 101.566 99.5993 101.566 100.402V104H100.39ZM111.383 104.168C110.721 104.168 110.133 104.019 109.619 103.72C109.106 103.412 108.7 102.987 108.401 102.446C108.112 101.905 107.967 101.265 107.967 100.528C107.967 99.8 108.112 99.1653 108.401 98.624C108.691 98.0733 109.092 97.6487 109.605 97.35C110.128 97.042 110.73 96.888 111.411 96.888C112.083 96.888 112.662 97.042 113.147 97.35C113.642 97.6487 114.02 98.0453 114.281 98.54C114.543 99.0347 114.673 99.5667 114.673 100.136C114.673 100.239 114.669 100.341 114.659 100.444C114.659 100.547 114.659 100.663 114.659 100.794H109.129C109.157 101.326 109.279 101.769 109.493 102.124C109.717 102.469 109.993 102.731 110.319 102.908C110.655 103.085 111.01 103.174 111.383 103.174C111.869 103.174 112.275 103.062 112.601 102.838C112.928 102.614 113.166 102.311 113.315 101.928H114.477C114.291 102.572 113.931 103.109 113.399 103.538C112.877 103.958 112.205 104.168 111.383 104.168ZM111.383 97.882C110.823 97.882 110.324 98.0547 109.885 98.4C109.456 98.736 109.209 99.2307 109.143 99.884H113.511C113.483 99.2587 113.269 98.7687 112.867 98.414C112.466 98.0593 111.971 97.882 111.383 97.882ZM115.952 100.43V99.436H121.496V100.43H115.952ZM125.874 104C125.239 104 124.74 103.846 124.376 103.538C124.012 103.23 123.83 102.675 123.83 101.872V98.05H122.626V97.056H123.83L123.984 95.39H125.006V97.056H127.05V98.05H125.006V101.872C125.006 102.311 125.094 102.609 125.272 102.768C125.449 102.917 125.762 102.992 126.21 102.992H126.938V104H125.874ZM129.118 95.516C128.885 95.516 128.689 95.4413 128.53 95.292C128.381 95.1333 128.306 94.9373 128.306 94.704C128.306 94.48 128.381 94.2933 128.53 94.144C128.689 93.9947 128.885 93.92 129.118 93.92C129.342 93.92 129.533 93.9947 129.692 94.144C129.851 94.2933 129.93 94.48 129.93 94.704C129.93 94.9373 129.851 95.1333 129.692 95.292C129.533 95.4413 129.342 95.516 129.118 95.516ZM128.53 104V97.056H129.706V104H128.53ZM131.613 104V97.056H132.677L132.761 98.064C132.985 97.6907 133.284 97.4013 133.657 97.196C134.031 96.9907 134.451 96.888 134.917 96.888C135.468 96.888 135.939 97 136.331 97.224C136.733 97.448 137.041 97.7887 137.255 98.246C137.498 97.826 137.829 97.4947 138.249 97.252C138.679 97.0093 139.141 96.888 139.635 96.888C140.466 96.888 141.129 97.14 141.623 97.644C142.118 98.1387 142.365 98.904 142.365 99.94V104H141.203V100.066C141.203 99.3473 141.059 98.806 140.769 98.442C140.48 98.078 140.065 97.896 139.523 97.896C138.963 97.896 138.497 98.1153 138.123 98.554C137.759 98.9833 137.577 99.5993 137.577 100.402V104H136.401V100.066C136.401 99.3473 136.257 98.806 135.967 98.442C135.678 98.078 135.263 97.896 134.721 97.896C134.171 97.896 133.709 98.1153 133.335 98.554C132.971 98.9833 132.789 99.5993 132.789 100.402V104H131.613ZM147.119 104.168C146.456 104.168 145.868 104.019 145.355 103.72C144.842 103.412 144.436 102.987 144.137 102.446C143.848 101.905 143.703 101.265 143.703 100.528C143.703 99.8 143.848 99.1653 144.137 98.624C144.426 98.0733 144.828 97.6487 145.341 97.35C145.864 97.042 146.466 96.888 147.147 96.888C147.819 96.888 148.398 97.042 148.883 97.35C149.378 97.6487 149.756 98.0453 150.017 98.54C150.278 99.0347 150.409 99.5667 150.409 100.136C150.409 100.239 150.404 100.341 150.395 100.444C150.395 100.547 150.395 100.663 150.395 100.794H144.865C144.893 101.326 145.014 101.769 145.229 102.124C145.453 102.469 145.728 102.731 146.055 102.908C146.391 103.085 146.746 103.174 147.119 103.174C147.604 103.174 148.01 103.062 148.337 102.838C148.664 102.614 148.902 102.311 149.051 101.928H150.213C150.026 102.572 149.667 103.109 149.135 103.538C148.612 103.958 147.94 104.168 147.119 104.168ZM147.119 97.882C146.559 97.882 146.06 98.0547 145.621 98.4C145.192 98.736 144.944 99.2307 144.879 99.884H149.247C149.219 99.2587 149.004 98.7687 148.603 98.414C148.202 98.0593 147.707 97.882 147.119 97.882ZM155.393 107.08V97.056H156.457L156.569 98.204C156.793 97.868 157.11 97.5647 157.521 97.294C157.941 97.0233 158.473 96.888 159.117 96.888C159.807 96.888 160.409 97.0467 160.923 97.364C161.436 97.6813 161.833 98.1153 162.113 98.666C162.402 99.2167 162.547 99.842 162.547 100.542C162.547 101.242 162.402 101.867 162.113 102.418C161.833 102.959 161.431 103.389 160.909 103.706C160.395 104.014 159.793 104.168 159.103 104.168C158.533 104.168 158.025 104.051 157.577 103.818C157.138 103.585 156.802 103.258 156.569 102.838V107.08H155.393ZM158.977 103.146C159.443 103.146 159.854 103.039 160.209 102.824C160.563 102.6 160.843 102.292 161.049 101.9C161.254 101.508 161.357 101.051 161.357 100.528C161.357 100.005 161.254 99.548 161.049 99.156C160.843 98.764 160.563 98.4607 160.209 98.246C159.854 98.022 159.443 97.91 158.977 97.91C158.51 97.91 158.099 98.022 157.745 98.246C157.39 98.4607 157.11 98.764 156.905 99.156C156.699 99.548 156.597 100.005 156.597 100.528C156.597 101.051 156.699 101.508 156.905 101.9C157.11 102.292 157.39 102.6 157.745 102.824C158.099 103.039 158.51 103.146 158.977 103.146ZM166.354 104.168C165.775 104.168 165.294 104.07 164.912 103.874C164.529 103.678 164.244 103.417 164.058 103.09C163.871 102.763 163.778 102.409 163.778 102.026C163.778 101.317 164.048 100.771 164.59 100.388C165.131 100.005 165.868 99.814 166.802 99.814H168.678V99.73C168.678 99.1233 168.519 98.666 168.202 98.358C167.884 98.0407 167.46 97.882 166.928 97.882C166.47 97.882 166.074 97.9987 165.738 98.232C165.411 98.456 165.206 98.7873 165.122 99.226H163.918C163.964 98.722 164.132 98.2973 164.422 97.952C164.72 97.6067 165.089 97.3453 165.528 97.168C165.966 96.9813 166.433 96.888 166.928 96.888C167.898 96.888 168.626 97.1493 169.112 97.672C169.606 98.1853 169.854 98.8713 169.854 99.73V104H168.804L168.734 102.754C168.538 103.146 168.248 103.482 167.866 103.762C167.492 104.033 166.988 104.168 166.354 104.168ZM166.536 103.174C166.984 103.174 167.366 103.057 167.684 102.824C168.01 102.591 168.258 102.287 168.426 101.914C168.594 101.541 168.678 101.149 168.678 100.738V100.724H166.9C166.209 100.724 165.719 100.845 165.43 101.088C165.15 101.321 165.01 101.615 165.01 101.97C165.01 102.334 165.14 102.628 165.402 102.852C165.672 103.067 166.05 103.174 166.536 103.174ZM174.138 104.168C173.307 104.168 172.617 103.958 172.066 103.538C171.515 103.118 171.193 102.549 171.1 101.83H172.304C172.379 102.194 172.57 102.511 172.878 102.782C173.195 103.043 173.62 103.174 174.152 103.174C174.647 103.174 175.011 103.071 175.244 102.866C175.477 102.651 175.594 102.399 175.594 102.11C175.594 101.69 175.44 101.41 175.132 101.27C174.833 101.13 174.409 101.004 173.858 100.892C173.485 100.817 173.111 100.71 172.738 100.57C172.365 100.43 172.052 100.234 171.8 99.982C171.548 99.7207 171.422 99.38 171.422 98.96C171.422 98.3533 171.646 97.8587 172.094 97.476C172.551 97.084 173.167 96.888 173.942 96.888C174.679 96.888 175.281 97.0747 175.748 97.448C176.224 97.812 176.499 98.3347 176.574 99.016H175.412C175.365 98.6613 175.211 98.386 174.95 98.19C174.698 97.9847 174.357 97.882 173.928 97.882C173.508 97.882 173.181 97.9707 172.948 98.148C172.724 98.3253 172.612 98.5587 172.612 98.848C172.612 99.128 172.757 99.3473 173.046 99.506C173.345 99.6647 173.746 99.8 174.25 99.912C174.679 100.005 175.085 100.122 175.468 100.262C175.86 100.393 176.177 100.593 176.42 100.864C176.672 101.125 176.798 101.508 176.798 102.012C176.807 102.637 176.569 103.155 176.084 103.566C175.608 103.967 174.959 104.168 174.138 104.168ZM180.998 104.168C180.167 104.168 179.477 103.958 178.926 103.538C178.375 103.118 178.053 102.549 177.96 101.83H179.164C179.239 102.194 179.43 102.511 179.738 102.782C180.055 103.043 180.48 103.174 181.012 103.174C181.507 103.174 181.871 103.071 182.104 102.866C182.337 102.651 182.454 102.399 182.454 102.11C182.454 101.69 182.3 101.41 181.992 101.27C181.693 101.13 181.269 101.004 180.718 100.892C180.345 100.817 179.971 100.71 179.598 100.57C179.225 100.43 178.912 100.234 178.66 99.982C178.408 99.7207 178.282 99.38 178.282 98.96C178.282 98.3533 178.506 97.8587 178.954 97.476C179.411 97.084 180.027 96.888 180.802 96.888C181.539 96.888 182.141 97.0747 182.608 97.448C183.084 97.812 183.359 98.3347 183.434 99.016H182.272C182.225 98.6613 182.071 98.386 181.81 98.19C181.558 97.9847 181.217 97.882 180.788 97.882C180.368 97.882 180.041 97.9707 179.808 98.148C179.584 98.3253 179.472 98.5587 179.472 98.848C179.472 99.128 179.617 99.3473 179.906 99.506C180.205 99.6647 180.606 99.8 181.11 99.912C181.539 100.005 181.945 100.122 182.328 100.262C182.72 100.393 183.037 100.593 183.28 100.864C183.532 101.125 183.658 101.508 183.658 102.012C183.667 102.637 183.429 103.155 182.944 103.566C182.468 103.967 181.819 104.168 180.998 104.168ZM186.338 104L184.308 97.056H185.484L186.954 102.502L188.578 97.056H189.908L191.546 102.502L193.002 97.056H194.192L192.162 104H190.958L189.25 98.274L187.542 104H186.338ZM198.257 104.168C197.604 104.168 197.016 104.019 196.493 103.72C195.97 103.421 195.555 103.001 195.247 102.46C194.948 101.909 194.799 101.265 194.799 100.528C194.799 99.7907 194.953 99.1513 195.261 98.61C195.569 98.0593 195.984 97.6347 196.507 97.336C197.039 97.0373 197.632 96.888 198.285 96.888C198.938 96.888 199.526 97.0373 200.049 97.336C200.572 97.6347 200.982 98.0593 201.281 98.61C201.589 99.1513 201.743 99.7907 201.743 100.528C201.743 101.265 201.589 101.909 201.281 102.46C200.973 103.001 200.553 103.421 200.021 103.72C199.498 104.019 198.91 104.168 198.257 104.168ZM198.257 103.16C198.658 103.16 199.032 103.062 199.377 102.866C199.722 102.67 200.002 102.376 200.217 101.984C200.432 101.592 200.539 101.107 200.539 100.528C200.539 99.9493 200.432 99.464 200.217 99.072C200.012 98.68 199.736 98.386 199.391 98.19C199.046 97.994 198.677 97.896 198.285 97.896C197.884 97.896 197.51 97.994 197.165 98.19C196.82 98.386 196.54 98.68 196.325 99.072C196.11 99.464 196.003 99.9493 196.003 100.528C196.003 101.107 196.11 101.592 196.325 101.984C196.54 102.376 196.815 102.67 197.151 102.866C197.496 103.062 197.865 103.16 198.257 103.16ZM203.238 104V97.056H204.302L204.4 98.386C204.615 97.9287 204.942 97.5647 205.38 97.294C205.819 97.0233 206.36 96.888 207.004 96.888V98.12H206.682C206.272 98.12 205.894 98.1947 205.548 98.344C205.203 98.484 204.928 98.7267 204.722 99.072C204.517 99.4173 204.414 99.8933 204.414 100.5V104H203.238ZM211.074 104.168C210.384 104.168 209.777 104.009 209.254 103.692C208.741 103.375 208.34 102.941 208.05 102.39C207.77 101.839 207.63 101.214 207.63 100.514C207.63 99.814 207.775 99.1933 208.064 98.652C208.354 98.1013 208.755 97.672 209.268 97.364C209.782 97.0467 210.388 96.888 211.088 96.888C211.658 96.888 212.162 97.0047 212.6 97.238C213.039 97.4713 213.38 97.798 213.622 98.218V93.92H214.798V104H213.734L213.622 102.852C213.398 103.188 213.076 103.491 212.656 103.762C212.236 104.033 211.709 104.168 211.074 104.168ZM211.2 103.146C211.667 103.146 212.078 103.039 212.432 102.824C212.796 102.6 213.076 102.292 213.272 101.9C213.478 101.508 213.58 101.051 213.58 100.528C213.58 100.005 213.478 99.548 213.272 99.156C213.076 98.764 212.796 98.4607 212.432 98.246C212.078 98.022 211.667 97.91 211.2 97.91C210.743 97.91 210.332 98.022 209.968 98.246C209.614 98.4607 209.334 98.764 209.128 99.156C208.932 99.548 208.834 100.005 208.834 100.528C208.834 101.051 208.932 101.508 209.128 101.9C209.334 102.292 209.614 102.6 209.968 102.824C210.332 103.039 210.743 103.146 211.2 103.146ZM220.855 95.516C220.621 95.516 220.425 95.4413 220.267 95.292C220.117 95.1333 220.043 94.9373 220.043 94.704C220.043 94.48 220.117 94.2933 220.267 94.144C220.425 93.9947 220.621 93.92 220.855 93.92C221.079 93.92 221.27 93.9947 221.429 94.144C221.587 94.2933 221.667 94.48 221.667 94.704C221.667 94.9373 221.587 95.1333 221.429 95.292C221.27 95.4413 221.079 95.516 220.855 95.516ZM220.267 104V97.056H221.443V104H220.267ZM226.01 104.168C225.179 104.168 224.489 103.958 223.938 103.538C223.387 103.118 223.065 102.549 222.972 101.83H224.176C224.251 102.194 224.442 102.511 224.75 102.782C225.067 103.043 225.492 103.174 226.024 103.174C226.519 103.174 226.883 103.071 227.116 102.866C227.349 102.651 227.466 102.399 227.466 102.11C227.466 101.69 227.312 101.41 227.004 101.27C226.705 101.13 226.281 101.004 225.73 100.892C225.357 100.817 224.983 100.71 224.61 100.57C224.237 100.43 223.924 100.234 223.672 99.982C223.42 99.7207 223.294 99.38 223.294 98.96C223.294 98.3533 223.518 97.8587 223.966 97.476C224.423 97.084 225.039 96.888 225.814 96.888C226.551 96.888 227.153 97.0747 227.62 97.448C228.096 97.812 228.371 98.3347 228.446 99.016H227.284C227.237 98.6613 227.083 98.386 226.822 98.19C226.57 97.9847 226.229 97.882 225.8 97.882C225.38 97.882 225.053 97.9707 224.82 98.148C224.596 98.3253 224.484 98.5587 224.484 98.848C224.484 99.128 224.629 99.3473 224.918 99.506C225.217 99.6647 225.618 99.8 226.122 99.912C226.551 100.005 226.957 100.122 227.34 100.262C227.732 100.393 228.049 100.593 228.292 100.864C228.544 101.125 228.67 101.508 228.67 102.012C228.679 102.637 228.441 103.155 227.956 103.566C227.48 103.967 226.831 104.168 226.01 104.168ZM230.616 104.07C230.383 104.07 230.187 103.995 230.028 103.846C229.879 103.687 229.804 103.496 229.804 103.272C229.804 103.048 229.879 102.861 230.028 102.712C230.187 102.553 230.383 102.474 230.616 102.474C230.84 102.474 231.027 102.553 231.176 102.712C231.335 102.861 231.414 103.048 231.414 103.272C231.414 103.496 231.335 103.687 231.176 103.846C231.027 103.995 230.84 104.07 230.616 104.07ZM230.616 98.484C230.383 98.484 230.187 98.4093 230.028 98.26C229.879 98.1013 229.804 97.91 229.804 97.686C229.804 97.462 229.879 97.2753 230.028 97.126C230.187 96.9673 230.383 96.888 230.616 96.888C230.84 96.888 231.027 96.9673 231.176 97.126C231.335 97.2753 231.414 97.462 231.414 97.686C231.414 97.91 231.335 98.1013 231.176 98.26C231.027 98.4093 230.84 98.484 230.616 98.484ZM236.256 104V102.936C236.891 102.432 237.498 101.923 238.076 101.41C238.655 100.897 239.168 100.393 239.616 99.898C240.074 99.394 240.433 98.904 240.694 98.428C240.956 97.9427 241.086 97.476 241.086 97.028C241.086 96.7293 241.035 96.4493 240.932 96.188C240.83 95.9173 240.662 95.7027 240.428 95.544C240.195 95.376 239.882 95.292 239.49 95.292C238.902 95.292 238.459 95.4787 238.16 95.852C237.871 96.2253 237.731 96.6733 237.74 97.196H236.298C236.308 96.5053 236.452 95.9267 236.732 95.46C237.022 94.9933 237.404 94.6387 237.88 94.396C238.366 94.1533 238.912 94.032 239.518 94.032C240.442 94.032 241.18 94.2933 241.73 94.816C242.29 95.3293 242.57 96.048 242.57 96.972C242.57 97.5227 242.435 98.0687 242.164 98.61C241.903 99.1513 241.558 99.674 241.128 100.178C240.708 100.673 240.256 101.139 239.77 101.578C239.285 102.017 238.823 102.413 238.384 102.768H242.864V104H236.256ZM247.492 104.168C246.839 104.168 246.246 104.051 245.714 103.818C245.192 103.575 244.772 103.239 244.454 102.81C244.146 102.381 243.992 101.877 243.992 101.298C243.992 100.71 244.156 100.183 244.482 99.716C244.818 99.2493 245.262 98.932 245.812 98.764C245.318 98.568 244.935 98.2833 244.664 97.91C244.394 97.5273 244.258 97.1073 244.258 96.65C244.258 96.174 244.384 95.74 244.636 95.348C244.888 94.9467 245.252 94.6293 245.728 94.396C246.214 94.1533 246.802 94.032 247.492 94.032C248.183 94.032 248.766 94.1533 249.242 94.396C249.728 94.6293 250.096 94.9467 250.348 95.348C250.6 95.74 250.726 96.174 250.726 96.65C250.726 97.098 250.586 97.518 250.306 97.91C250.036 98.2927 249.653 98.5773 249.158 98.764C249.709 98.9413 250.148 99.2633 250.474 99.73C250.81 100.187 250.978 100.71 250.978 101.298C250.978 101.877 250.824 102.381 250.516 102.81C250.208 103.239 249.788 103.575 249.256 103.818C248.734 104.051 248.146 104.168 247.492 104.168ZM247.492 98.288C248.034 98.288 248.458 98.148 248.766 97.868C249.084 97.588 249.242 97.2287 249.242 96.79C249.242 96.2953 249.088 95.9173 248.78 95.656C248.472 95.3947 248.043 95.264 247.492 95.264C246.942 95.264 246.512 95.3947 246.204 95.656C245.896 95.9173 245.742 96.2953 245.742 96.79C245.742 97.2287 245.896 97.588 246.204 97.868C246.512 98.148 246.942 98.288 247.492 98.288ZM247.492 102.908C248.164 102.908 248.668 102.749 249.004 102.432C249.34 102.105 249.508 101.69 249.508 101.186C249.508 100.626 249.326 100.197 248.962 99.898C248.608 99.59 248.118 99.436 247.492 99.436C246.867 99.436 246.372 99.59 246.008 99.898C245.644 100.197 245.462 100.626 245.462 101.186C245.462 101.69 245.63 102.105 245.966 102.432C246.312 102.749 246.82 102.908 247.492 102.908ZM256.034 104.168C255.381 104.168 254.788 104.051 254.256 103.818C253.733 103.575 253.313 103.239 252.996 102.81C252.688 102.381 252.534 101.877 252.534 101.298C252.534 100.71 252.697 100.183 253.024 99.716C253.36 99.2493 253.803 98.932 254.354 98.764C253.859 98.568 253.477 98.2833 253.206 97.91C252.935 97.5273 252.8 97.1073 252.8 96.65C252.8 96.174 252.926 95.74 253.178 95.348C253.43 94.9467 253.794 94.6293 254.27 94.396C254.755 94.1533 255.343 94.032 256.034 94.032C256.725 94.032 257.308 94.1533 257.784 94.396C258.269 94.6293 258.638 94.9467 258.89 95.348C259.142 95.74 259.268 96.174 259.268 96.65C259.268 97.098 259.128 97.518 258.848 97.91C258.577 98.2927 258.195 98.5773 257.7 98.764C258.251 98.9413 258.689 99.2633 259.016 99.73C259.352 100.187 259.52 100.71 259.52 101.298C259.52 101.877 259.366 102.381 259.058 102.81C258.75 103.239 258.33 103.575 257.798 103.818C257.275 104.051 256.687 104.168 256.034 104.168ZM256.034 98.288C256.575 98.288 257 98.148 257.308 97.868C257.625 97.588 257.784 97.2287 257.784 96.79C257.784 96.2953 257.63 95.9173 257.322 95.656C257.014 95.3947 256.585 95.264 256.034 95.264C255.483 95.264 255.054 95.3947 254.746 95.656C254.438 95.9173 254.284 96.2953 254.284 96.79C254.284 97.2287 254.438 97.588 254.746 97.868C255.054 98.148 255.483 98.288 256.034 98.288ZM256.034 102.908C256.706 102.908 257.21 102.749 257.546 102.432C257.882 102.105 258.05 101.69 258.05 101.186C258.05 100.626 257.868 100.197 257.504 99.898C257.149 99.59 256.659 99.436 256.034 99.436C255.409 99.436 254.914 99.59 254.55 99.898C254.186 100.197 254.004 100.626 254.004 101.186C254.004 101.69 254.172 102.105 254.508 102.432C254.853 102.749 255.362 102.908 256.034 102.908ZM264.646 104.168C263.955 104.168 263.358 104.047 262.854 103.804C262.35 103.552 261.948 103.211 261.65 102.782C261.36 102.343 261.183 101.849 261.118 101.298H262.574C262.667 101.765 262.9 102.152 263.274 102.46C263.647 102.759 264.109 102.908 264.66 102.908C265.07 102.908 265.425 102.81 265.724 102.614C266.022 102.409 266.256 102.138 266.424 101.802C266.592 101.466 266.676 101.088 266.676 100.668C266.676 100.005 266.489 99.478 266.116 99.086C265.742 98.6847 265.271 98.484 264.702 98.484C264.216 98.484 263.801 98.6007 263.456 98.834C263.11 99.058 262.858 99.3427 262.7 99.688H261.286L262.126 94.2H267.418V95.502H263.246L262.742 98.12C262.956 97.8773 263.25 97.6767 263.624 97.518C264.006 97.35 264.436 97.266 264.912 97.266C265.574 97.266 266.144 97.42 266.62 97.728C267.096 98.0267 267.46 98.4327 267.712 98.946C267.973 99.4593 268.104 100.029 268.104 100.654C268.104 101.307 267.964 101.9 267.684 102.432C267.404 102.964 267.002 103.389 266.48 103.706C265.966 104.014 265.355 104.168 264.646 104.168Z" fill="black"/>
<path d="M61.036 126V116.2H64.046C65.7727 116.2 67.042 116.639 67.854 117.516C68.6753 118.393 69.086 119.597 69.086 121.128C69.086 122.631 68.6753 123.821 67.854 124.698C67.042 125.566 65.7727 126 64.046 126H61.036ZM62.212 125.02H64.018C64.97 125.02 65.726 124.866 66.286 124.558C66.8553 124.241 67.2613 123.793 67.504 123.214C67.7467 122.626 67.868 121.931 67.868 121.128C67.868 120.307 67.7467 119.602 67.504 119.014C67.2613 118.426 66.8553 117.973 66.286 117.656C65.726 117.339 64.97 117.18 64.018 117.18H62.212V125.02ZM73.738 126.168C73.0847 126.168 72.4967 126.019 71.974 125.72C71.4514 125.421 71.036 125.001 70.728 124.46C70.4294 123.909 70.28 123.265 70.28 122.528C70.28 121.791 70.434 121.151 70.742 120.61C71.05 120.059 71.4654 119.635 71.988 119.336C72.52 119.037 73.1127 118.888 73.766 118.888C74.4194 118.888 75.0074 119.037 75.53 119.336C76.0527 119.635 76.4634 120.059 76.762 120.61C77.07 121.151 77.224 121.791 77.224 122.528C77.224 123.265 77.07 123.909 76.762 124.46C76.454 125.001 76.034 125.421 75.502 125.72C74.9794 126.019 74.3914 126.168 73.738 126.168ZM73.738 125.16C74.1394 125.16 74.5127 125.062 74.858 124.866C75.2034 124.67 75.4834 124.376 75.698 123.984C75.9127 123.592 76.02 123.107 76.02 122.528C76.02 121.949 75.9127 121.464 75.698 121.072C75.4927 120.68 75.2174 120.386 74.872 120.19C74.5267 119.994 74.158 119.896 73.766 119.896C73.3647 119.896 72.9914 119.994 72.646 120.19C72.3007 120.386 72.0207 120.68 71.806 121.072C71.5914 121.464 71.484 121.949 71.484 122.528C71.484 123.107 71.5914 123.592 71.806 123.984C72.0207 124.376 72.296 124.67 72.632 124.866C72.9774 125.062 73.346 125.16 73.738 125.16ZM82.2843 126V119.056H83.3483L83.4183 120.302C83.6423 119.863 83.9643 119.518 84.3843 119.266C84.8043 119.014 85.2803 118.888 85.8123 118.888C86.6336 118.888 87.2869 119.14 87.7723 119.644C88.2669 120.139 88.5143 120.904 88.5143 121.94V126H87.3383V122.066C87.3383 120.619 86.7409 119.896 85.5463 119.896C84.9489 119.896 84.4496 120.115 84.0483 120.554C83.6563 120.983 83.4603 121.599 83.4603 122.402V126H82.2843ZM93.32 126.168C92.6667 126.168 92.0787 126.019 91.556 125.72C91.0333 125.421 90.618 125.001 90.31 124.46C90.0113 123.909 89.862 123.265 89.862 122.528C89.862 121.791 90.016 121.151 90.324 120.61C90.632 120.059 91.0473 119.635 91.57 119.336C92.102 119.037 92.6947 118.888 93.348 118.888C94.0013 118.888 94.5893 119.037 95.112 119.336C95.6347 119.635 96.0453 120.059 96.344 120.61C96.652 121.151 96.806 121.791 96.806 122.528C96.806 123.265 96.652 123.909 96.344 124.46C96.036 125.001 95.616 125.421 95.084 125.72C94.5613 126.019 93.9733 126.168 93.32 126.168ZM93.32 125.16C93.7213 125.16 94.0947 125.062 94.44 124.866C94.7853 124.67 95.0653 124.376 95.28 123.984C95.4947 123.592 95.602 123.107 95.602 122.528C95.602 121.949 95.4947 121.464 95.28 121.072C95.0747 120.68 94.7993 120.386 94.454 120.19C94.1087 119.994 93.74 119.896 93.348 119.896C92.9467 119.896 92.5733 119.994 92.228 120.19C91.8827 120.386 91.6027 120.68 91.388 121.072C91.1733 121.464 91.066 121.949 91.066 122.528C91.066 123.107 91.1733 123.592 91.388 123.984C91.6027 124.376 91.878 124.67 92.214 124.866C92.5593 125.062 92.928 125.16 93.32 125.16ZM100.772 126C100.137 126 99.6377 125.846 99.2737 125.538C98.9097 125.23 98.7277 124.675 98.7277 123.872V120.05H97.5237V119.056H98.7277L98.8817 117.39H99.9037V119.056H101.948V120.05H99.9037V123.872C99.9037 124.311 99.9924 124.609 100.17 124.768C100.347 124.917 100.66 124.992 101.108 124.992H101.836V126H100.772ZM110.017 126.168C109.326 126.168 108.72 126.009 108.197 125.692C107.684 125.375 107.282 124.941 106.993 124.39C106.713 123.839 106.573 123.214 106.573 122.514C106.573 121.814 106.718 121.193 107.007 120.652C107.296 120.101 107.698 119.672 108.211 119.364C108.724 119.047 109.331 118.888 110.031 118.888C110.6 118.888 111.104 119.005 111.543 119.238C111.982 119.471 112.322 119.798 112.565 120.218V115.92H113.741V126H112.677L112.565 124.852C112.341 125.188 112.019 125.491 111.599 125.762C111.179 126.033 110.652 126.168 110.017 126.168ZM110.143 125.146C110.61 125.146 111.02 125.039 111.375 124.824C111.739 124.6 112.019 124.292 112.215 123.9C112.42 123.508 112.523 123.051 112.523 122.528C112.523 122.005 112.42 121.548 112.215 121.156C112.019 120.764 111.739 120.461 111.375 120.246C111.02 120.022 110.61 119.91 110.143 119.91C109.686 119.91 109.275 120.022 108.911 120.246C108.556 120.461 108.276 120.764 108.071 121.156C107.875 121.548 107.777 122.005 107.777 122.528C107.777 123.051 107.875 123.508 108.071 123.9C108.276 124.292 108.556 124.6 108.911 124.824C109.275 125.039 109.686 125.146 110.143 125.146ZM116.232 117.516C115.999 117.516 115.803 117.441 115.644 117.292C115.495 117.133 115.42 116.937 115.42 116.704C115.42 116.48 115.495 116.293 115.644 116.144C115.803 115.995 115.999 115.92 116.232 115.92C116.456 115.92 116.647 115.995 116.806 116.144C116.965 116.293 117.044 116.48 117.044 116.704C117.044 116.937 116.965 117.133 116.806 117.292C116.647 117.441 116.456 117.516 116.232 117.516ZM115.644 126V119.056H116.82V126H115.644ZM121.387 126.168C120.557 126.168 119.866 125.958 119.315 125.538C118.765 125.118 118.443 124.549 118.349 123.83H119.553C119.628 124.194 119.819 124.511 120.127 124.782C120.445 125.043 120.869 125.174 121.401 125.174C121.896 125.174 122.26 125.071 122.493 124.866C122.727 124.651 122.843 124.399 122.843 124.11C122.843 123.69 122.689 123.41 122.381 123.27C122.083 123.13 121.658 123.004 121.107 122.892C120.734 122.817 120.361 122.71 119.987 122.57C119.614 122.43 119.301 122.234 119.049 121.982C118.797 121.721 118.671 121.38 118.671 120.96C118.671 120.353 118.895 119.859 119.343 119.476C119.801 119.084 120.417 118.888 121.191 118.888C121.929 118.888 122.531 119.075 122.997 119.448C123.473 119.812 123.749 120.335 123.823 121.016H122.661C122.615 120.661 122.461 120.386 122.199 120.19C121.947 119.985 121.607 119.882 121.177 119.882C120.757 119.882 120.431 119.971 120.197 120.148C119.973 120.325 119.861 120.559 119.861 120.848C119.861 121.128 120.006 121.347 120.295 121.506C120.594 121.665 120.995 121.8 121.499 121.912C121.929 122.005 122.335 122.122 122.717 122.262C123.109 122.393 123.427 122.593 123.669 122.864C123.921 123.125 124.047 123.508 124.047 124.012C124.057 124.637 123.819 125.155 123.333 125.566C122.857 125.967 122.209 126.168 121.387 126.168ZM128.779 126.168C128.117 126.168 127.519 126.019 126.987 125.72C126.465 125.412 126.049 124.987 125.741 124.446C125.443 123.895 125.293 123.256 125.293 122.528C125.293 121.8 125.443 121.165 125.741 120.624C126.049 120.073 126.465 119.649 126.987 119.35C127.519 119.042 128.117 118.888 128.779 118.888C129.601 118.888 130.291 119.103 130.851 119.532C131.421 119.961 131.78 120.535 131.929 121.254H130.725C130.632 120.825 130.403 120.493 130.039 120.26C129.675 120.017 129.251 119.896 128.765 119.896C128.373 119.896 128.005 119.994 127.659 120.19C127.314 120.386 127.034 120.68 126.819 121.072C126.605 121.464 126.497 121.949 126.497 122.528C126.497 123.107 126.605 123.592 126.819 123.984C127.034 124.376 127.314 124.675 127.659 124.88C128.005 125.076 128.373 125.174 128.765 125.174C129.251 125.174 129.675 125.057 130.039 124.824C130.403 124.581 130.632 124.241 130.725 123.802H131.929C131.789 124.502 131.435 125.071 130.865 125.51C130.296 125.949 129.601 126.168 128.779 126.168ZM133.432 126V115.92H134.608V126H133.432ZM139.559 126.168C138.906 126.168 138.318 126.019 137.795 125.72C137.273 125.421 136.857 125.001 136.549 124.46C136.251 123.909 136.101 123.265 136.101 122.528C136.101 121.791 136.255 121.151 136.563 120.61C136.871 120.059 137.287 119.635 137.809 119.336C138.341 119.037 138.934 118.888 139.587 118.888C140.241 118.888 140.829 119.037 141.351 119.336C141.874 119.635 142.285 120.059 142.583 120.61C142.891 121.151 143.045 121.791 143.045 122.528C143.045 123.265 142.891 123.909 142.583 124.46C142.275 125.001 141.855 125.421 141.323 125.72C140.801 126.019 140.213 126.168 139.559 126.168ZM139.559 125.16C139.961 125.16 140.334 125.062 140.679 124.866C141.025 124.67 141.305 124.376 141.519 123.984C141.734 123.592 141.841 123.107 141.841 122.528C141.841 121.949 141.734 121.464 141.519 121.072C141.314 120.68 141.039 120.386 140.693 120.19C140.348 119.994 139.979 119.896 139.587 119.896C139.186 119.896 138.813 119.994 138.467 120.19C138.122 120.386 137.842 120.68 137.627 121.072C137.413 121.464 137.305 121.949 137.305 122.528C137.305 123.107 137.413 123.592 137.627 123.984C137.842 124.376 138.117 124.67 138.453 124.866C138.799 125.062 139.167 125.16 139.559 125.16ZM147.201 126.168C146.37 126.168 145.679 125.958 145.129 125.538C144.578 125.118 144.256 124.549 144.163 123.83H145.367C145.441 124.194 145.633 124.511 145.941 124.782C146.258 125.043 146.683 125.174 147.215 125.174C147.709 125.174 148.073 125.071 148.307 124.866C148.54 124.651 148.657 124.399 148.657 124.11C148.657 123.69 148.503 123.41 148.195 123.27C147.896 123.13 147.471 123.004 146.921 122.892C146.547 122.817 146.174 122.71 145.801 122.57C145.427 122.43 145.115 122.234 144.863 121.982C144.611 121.721 144.485 121.38 144.485 120.96C144.485 120.353 144.709 119.859 145.157 119.476C145.614 119.084 146.23 118.888 147.005 118.888C147.742 118.888 148.344 119.075 148.811 119.448C149.287 119.812 149.562 120.335 149.637 121.016H148.475C148.428 120.661 148.274 120.386 148.013 120.19C147.761 119.985 147.42 119.882 146.991 119.882C146.571 119.882 146.244 119.971 146.011 120.148C145.787 120.325 145.675 120.559 145.675 120.848C145.675 121.128 145.819 121.347 146.109 121.506C146.407 121.665 146.809 121.8 147.313 121.912C147.742 122.005 148.148 122.122 148.531 122.262C148.923 122.393 149.24 122.593 149.483 122.864C149.735 123.125 149.861 123.508 149.861 124.012C149.87 124.637 149.632 125.155 149.147 125.566C148.671 125.967 148.022 126.168 147.201 126.168ZM154.523 126.168C153.86 126.168 153.272 126.019 152.759 125.72C152.245 125.412 151.839 124.987 151.541 124.446C151.251 123.905 151.107 123.265 151.107 122.528C151.107 121.8 151.251 121.165 151.541 120.624C151.83 120.073 152.231 119.649 152.745 119.35C153.267 119.042 153.869 118.888 154.551 118.888C155.223 118.888 155.801 119.042 156.287 119.35C156.781 119.649 157.159 120.045 157.421 120.54C157.682 121.035 157.813 121.567 157.813 122.136C157.813 122.239 157.808 122.341 157.799 122.444C157.799 122.547 157.799 122.663 157.799 122.794H152.269C152.297 123.326 152.418 123.769 152.633 124.124C152.857 124.469 153.132 124.731 153.459 124.908C153.795 125.085 154.149 125.174 154.523 125.174C155.008 125.174 155.414 125.062 155.741 124.838C156.067 124.614 156.305 124.311 156.455 123.928H157.617C157.43 124.572 157.071 125.109 156.539 125.538C156.016 125.958 155.344 126.168 154.523 126.168ZM154.523 119.882C153.963 119.882 153.463 120.055 153.025 120.4C152.595 120.736 152.348 121.231 152.283 121.884H156.651C156.623 121.259 156.408 120.769 156.007 120.414C155.605 120.059 155.111 119.882 154.523 119.882ZM165.54 126C164.906 126 164.406 125.846 164.042 125.538C163.678 125.23 163.496 124.675 163.496 123.872V120.05H162.292V119.056H163.496L163.65 117.39H164.672V119.056H166.716V120.05H164.672V123.872C164.672 124.311 164.761 124.609 164.938 124.768C165.116 124.917 165.428 124.992 165.876 124.992H166.604V126H165.54ZM168.07 126V115.92H169.246V120.246C169.48 119.817 169.811 119.485 170.24 119.252C170.67 119.009 171.136 118.888 171.64 118.888C172.443 118.888 173.087 119.14 173.572 119.644C174.058 120.139 174.3 120.904 174.3 121.94V126H173.138V122.066C173.138 120.619 172.555 119.896 171.388 119.896C170.782 119.896 170.273 120.115 169.862 120.554C169.452 120.983 169.246 121.599 169.246 122.402V126H168.07ZM176.656 117.516C176.423 117.516 176.227 117.441 176.068 117.292C175.919 117.133 175.844 116.937 175.844 116.704C175.844 116.48 175.919 116.293 176.068 116.144C176.227 115.995 176.423 115.92 176.656 115.92C176.88 115.92 177.071 115.995 177.23 116.144C177.389 116.293 177.468 116.48 177.468 116.704C177.468 116.937 177.389 117.133 177.23 117.292C177.071 117.441 176.88 117.516 176.656 117.516ZM176.068 126V119.056H177.244V126H176.068ZM181.812 126.168C180.981 126.168 180.29 125.958 179.74 125.538C179.189 125.118 178.867 124.549 178.774 123.83H179.978C180.052 124.194 180.244 124.511 180.552 124.782C180.869 125.043 181.294 125.174 181.826 125.174C182.32 125.174 182.684 125.071 182.918 124.866C183.151 124.651 183.268 124.399 183.268 124.11C183.268 123.69 183.114 123.41 182.806 123.27C182.507 123.13 182.082 123.004 181.532 122.892C181.158 122.817 180.785 122.71 180.412 122.57C180.038 122.43 179.726 122.234 179.474 121.982C179.222 121.721 179.096 121.38 179.096 120.96C179.096 120.353 179.32 119.859 179.768 119.476C180.225 119.084 180.841 118.888 181.616 118.888C182.353 118.888 182.955 119.075 183.422 119.448C183.898 119.812 184.173 120.335 184.248 121.016H183.086C183.039 120.661 182.885 120.386 182.624 120.19C182.372 119.985 182.031 119.882 181.602 119.882C181.182 119.882 180.855 119.971 180.622 120.148C180.398 120.325 180.286 120.559 180.286 120.848C180.286 121.128 180.43 121.347 180.72 121.506C181.018 121.665 181.42 121.8 181.924 121.912C182.353 122.005 182.759 122.122 183.142 122.262C183.534 122.393 183.851 122.593 184.094 122.864C184.346 123.125 184.472 123.508 184.472 124.012C184.481 124.637 184.243 125.155 183.758 125.566C183.282 125.967 182.633 126.168 181.812 126.168ZM190.977 126L188.947 119.056H190.123L191.593 124.502L193.217 119.056H194.547L196.185 124.502L197.641 119.056H198.831L196.801 126H195.597L193.889 120.274L192.181 126H190.977ZM200.705 117.516C200.472 117.516 200.276 117.441 200.117 117.292C199.968 117.133 199.893 116.937 199.893 116.704C199.893 116.48 199.968 116.293 200.117 116.144C200.276 115.995 200.472 115.92 200.705 115.92C200.929 115.92 201.121 115.995 201.279 116.144C201.438 116.293 201.517 116.48 201.517 116.704C201.517 116.937 201.438 117.133 201.279 117.292C201.121 117.441 200.929 117.516 200.705 117.516ZM200.117 126V119.056H201.293V126H200.117ZM205.945 126C205.31 126 204.811 125.846 204.447 125.538C204.083 125.23 203.901 124.675 203.901 123.872V120.05H202.697V119.056H203.901L204.055 117.39H205.077V119.056H207.121V120.05H205.077V123.872C205.077 124.311 205.166 124.609 205.343 124.768C205.52 124.917 205.833 124.992 206.281 124.992H207.009V126H205.945ZM208.475 126V115.92H209.651V120.246C209.884 119.817 210.216 119.485 210.645 119.252C211.074 119.009 211.541 118.888 212.045 118.888C212.848 118.888 213.492 119.14 213.977 119.644C214.462 120.139 214.705 120.904 214.705 121.94V126H213.543V122.066C213.543 120.619 212.96 119.896 211.793 119.896C211.186 119.896 210.678 120.115 210.267 120.554C209.856 120.983 209.651 121.599 209.651 122.402V126H208.475ZM222.222 126.168C221.643 126.168 221.163 126.07 220.78 125.874C220.397 125.678 220.113 125.417 219.926 125.09C219.739 124.763 219.646 124.409 219.646 124.026C219.646 123.317 219.917 122.771 220.458 122.388C220.999 122.005 221.737 121.814 222.67 121.814H224.546V121.73C224.546 121.123 224.387 120.666 224.07 120.358C223.753 120.041 223.328 119.882 222.796 119.882C222.339 119.882 221.942 119.999 221.606 120.232C221.279 120.456 221.074 120.787 220.99 121.226H219.786C219.833 120.722 220.001 120.297 220.29 119.952C220.589 119.607 220.957 119.345 221.396 119.168C221.835 118.981 222.301 118.888 222.796 118.888C223.767 118.888 224.495 119.149 224.98 119.672C225.475 120.185 225.722 120.871 225.722 121.73V126H224.672L224.602 124.754C224.406 125.146 224.117 125.482 223.734 125.762C223.361 126.033 222.857 126.168 222.222 126.168ZM222.404 125.174C222.852 125.174 223.235 125.057 223.552 124.824C223.879 124.591 224.126 124.287 224.294 123.914C224.462 123.541 224.546 123.149 224.546 122.738V122.724H222.768C222.077 122.724 221.587 122.845 221.298 123.088C221.018 123.321 220.878 123.615 220.878 123.97C220.878 124.334 221.009 124.628 221.27 124.852C221.541 125.067 221.919 125.174 222.404 125.174ZM227.346 126V119.056H228.41L228.48 120.302C228.704 119.863 229.026 119.518 229.446 119.266C229.866 119.014 230.342 118.888 230.874 118.888C231.695 118.888 232.349 119.14 232.834 119.644C233.329 120.139 233.576 120.904 233.576 121.94V126H232.4V122.066C232.4 120.619 231.803 119.896 230.608 119.896C230.011 119.896 229.511 120.115 229.11 120.554C228.718 120.983 228.522 121.599 228.522 122.402V126H227.346ZM235.769 129.08L237.491 125.328H237.085L234.327 119.056H235.601L237.897 124.46L240.333 119.056H241.551L237.001 129.08H235.769ZM245.16 126.168C244.507 126.168 243.919 126.019 243.396 125.72C242.873 125.421 242.458 125.001 242.15 124.46C241.851 123.909 241.702 123.265 241.702 122.528C241.702 121.791 241.856 121.151 242.164 120.61C242.472 120.059 242.887 119.635 243.41 119.336C243.942 119.037 244.535 118.888 245.188 118.888C245.841 118.888 246.429 119.037 246.952 119.336C247.475 119.635 247.885 120.059 248.184 120.61C248.492 121.151 248.646 121.791 248.646 122.528C248.646 123.265 248.492 123.909 248.184 124.46C247.876 125.001 247.456 125.421 246.924 125.72C246.401 126.019 245.813 126.168 245.16 126.168ZM245.16 125.16C245.561 125.16 245.935 125.062 246.28 124.866C246.625 124.67 246.905 124.376 247.12 123.984C247.335 123.592 247.442 123.107 247.442 122.528C247.442 121.949 247.335 121.464 247.12 121.072C246.915 120.68 246.639 120.386 246.294 120.19C245.949 119.994 245.58 119.896 245.188 119.896C244.787 119.896 244.413 119.994 244.068 120.19C243.723 120.386 243.443 120.68 243.228 121.072C243.013 121.464 242.906 121.949 242.906 122.528C242.906 123.107 243.013 123.592 243.228 123.984C243.443 124.376 243.718 124.67 244.054 124.866C244.399 125.062 244.768 125.16 245.16 125.16ZM250.141 126V119.056H251.205L251.275 120.302C251.499 119.863 251.821 119.518 252.241 119.266C252.661 119.014 253.137 118.888 253.669 118.888C254.49 118.888 255.144 119.14 255.629 119.644C256.124 120.139 256.371 120.904 256.371 121.94V126H255.195V122.066C255.195 120.619 254.598 119.896 253.403 119.896C252.806 119.896 252.306 120.115 251.905 120.554C251.513 120.983 251.317 121.599 251.317 122.402V126H250.141ZM261.135 126.168C260.472 126.168 259.884 126.019 259.371 125.72C258.857 125.412 258.451 124.987 258.153 124.446C257.863 123.905 257.719 123.265 257.719 122.528C257.719 121.8 257.863 121.165 258.153 120.624C258.442 120.073 258.843 119.649 259.357 119.35C259.879 119.042 260.481 118.888 261.163 118.888C261.835 118.888 262.413 119.042 262.899 119.35C263.393 119.649 263.771 120.045 264.033 120.54C264.294 121.035 264.425 121.567 264.425 122.136C264.425 122.239 264.42 122.341 264.411 122.444C264.411 122.547 264.411 122.663 264.411 122.794H258.881C258.909 123.326 259.03 123.769 259.245 124.124C259.469 124.469 259.744 124.731 260.071 124.908C260.407 125.085 260.761 125.174 261.135 125.174C261.62 125.174 262.026 125.062 262.353 124.838C262.679 124.614 262.917 124.311 263.067 123.928H264.229C264.042 124.572 263.683 125.109 263.151 125.538C262.628 125.958 261.956 126.168 261.135 126.168ZM261.135 119.882C260.575 119.882 260.075 120.055 259.637 120.4C259.207 120.736 258.96 121.231 258.895 121.884H263.263C263.235 121.259 263.02 120.769 262.619 120.414C262.217 120.059 261.723 119.882 261.135 119.882Z" fill="#9A9A9A"/>
<defs>
<filter id="filter0_d_127_763" x="101" y="117" width="369" height="154" filterUnits="userSpaceOnUse" color-interpolation-filters="sRGB">
<feFlood flood-opacity="0" result="BackgroundImageFix"/>
<feColorMatrix in="SourceAlpha" type="matrix" values="0 0 0 0 0 0 0 0 0 0 0 0 0 0 0 0 0 0 127 0" result="hardAlpha"/>
<feOffset dy="4"/>
<feGaussianBlur stdDeviation="12"/>
<feComposite in2="hardAlpha" operator="out"/>
<feColorMatrix type="matrix" values="0 0 0 0 0.9408 0 0 0 0 0.958871 0 0 0 0 0.9792 0 0 0 1 0"/>
<feBlend mode="normal" in2="BackgroundImageFix" result="effect1_dropShadow_127_763"/>
<feBlend mode="normal" in="SourceGraphic" in2="effect1_dropShadow_127_763" result="shape"/>
</filter>
<filter id="filter1_d_127_763" x="42" y="214" width="390" height="154" filterUnits="userSpaceOnUse" color-interpolation-filters="sRGB">
<feFlood flood-opacity="0" result="BackgroundImageFix"/>
<feColorMatrix in="SourceAlpha" type="matrix" values="0 0 0 0 0 0 0 0 0 0 0 0 0 0 0 0 0 0 127 0" result="hardAlpha"/>
<feOffset dy="4"/>
<feGaussianBlur stdDeviation="12"/>
<feComposite in2="hardAlpha" operator="out"/>
<feColorMatrix type="matrix" values="0 0 0 0 0.9408 0 0 0 0 0.958871 0 0 0 0 0.9792 0 0 0 1 0"/>
<feBlend mode="normal" in2="BackgroundImageFix" result="effect1_dropShadow_127_763"/>
<feBlend mode="normal" in="SourceGraphic" in2="effect1_dropShadow_127_763" result="shape"/>
</filter>
<filter id="filter2_d_127_763" x="16" y="20" width="369" height="154" filterUnits="userSpaceOnUse" color-interpolation-filters="sRGB">
<feFlood flood-opacity="0" result="BackgroundImageFix"/>
<feColorMatrix in="SourceAlpha" type="matrix" values="0 0 0 0 0 0 0 0 0 0 0 0 0 0 0 0 0 0 127 0" result="hardAlpha"/>
<feOffset dy="4"/>
<feGaussianBlur stdDeviation="12"/>
<feComposite in2="hardAlpha" operator="out"/>
<feColorMatrix type="matrix" values="0 0 0 0 0.9408 0 0 0 0 0.958871 0 0 0 0 0.9792 0 0 0 1 0"/>
<feBlend mode="normal" in2="BackgroundImageFix" result="effect1_dropShadow_127_763"/>
<feBlend mode="normal" in="SourceGraphic" in2="effect1_dropShadow_127_763" result="shape"/>
</filter>
</defs>
</svg>
