<svg width="144" height="64" viewBox="0 0 144 64" fill="none" xmlns="http://www.w3.org/2000/svg">
<path d="M46.5361 26.0649H49.5851L51.1542 31.2466C51.4094 32.1947 51.6518 33.2466 51.8686 34.3765C52.0645 33.3141 52.3374 32.268 52.6851 31.2466L54.318 26.0649H57.2904L58.8851 31.2466C59.0254 31.7272 59.5102 33.5453 59.6505 34.3505C59.8419 33.4414 60.2246 31.9999 60.4414 31.2466L62.0233 26.0649H65.1233L61.0155 38.1426H58.2855L56.6526 32.909C56.1678 31.3116 55.8999 30.1687 55.8106 29.5584C55.683 30.1168 55.4661 30.9739 54.8666 32.9609L53.2336 38.1426H50.376L46.5361 26.0649Z" fill="#333333"/>
<path d="M66.5655 21.8311C66.563 21.4715 66.6652 21.1192 66.8594 20.8188C67.0535 20.5184 67.3308 20.2834 67.6562 20.1434C67.9816 20.0034 68.3404 19.9648 68.6874 20.0325C69.0343 20.1001 69.3537 20.2709 69.6053 20.5234C69.8568 20.7758 70.0292 21.0985 70.1006 21.4507C70.172 21.8029 70.1392 22.1687 70.0063 22.5019C69.8735 22.8351 69.6466 23.1207 69.3543 23.3226C69.062 23.5245 68.7175 23.6337 68.3642 23.6362C68.1292 23.6397 67.8959 23.5955 67.6778 23.5064C67.4597 23.4172 67.2612 23.2848 67.0938 23.1168C66.9265 22.9488 66.7936 22.7487 66.7029 22.5279C66.6121 22.3072 66.5655 22.0703 66.5655 21.8311ZM66.8972 26.0648H69.8313V38.1424H66.8972V26.0648Z" fill="#333333"/>
<path d="M80.3047 28.779H79.2203C77.1026 28.779 75.7886 29.9218 75.7886 32.2724V38.1424H72.8545V26.0907H75.6228L75.7886 27.844C76.2862 26.6492 77.4215 25.844 79.0034 25.844C79.4422 25.8473 79.8791 25.904 80.3047 26.0128V28.779Z" fill="#333333"/>
<path d="M81.1855 32.1037C81.1855 28.3116 83.6222 25.6882 87.1049 25.6882C90.5876 25.6882 92.9094 28.1168 92.9094 31.8829V32.779L83.9794 32.805C84.1962 34.9348 85.2933 36.0127 87.2452 36.0127C88.8526 36.0127 89.9114 35.3763 90.2431 34.2205H92.9604C92.4501 36.8698 90.2941 38.4542 87.1942 38.4542C83.6604 38.4542 81.1855 35.8439 81.1855 32.1037ZM84.0559 30.8959H90.0007C90.0007 29.2336 88.8781 28.1427 87.1176 28.1427C85.3571 28.1427 84.3366 29.0908 84.0559 30.8959Z" fill="#333333"/>
<path d="M95.2686 26.0648H97.9731L98.1644 27.896C98.8916 26.5064 100.448 25.6882 102.247 25.6882C105.589 25.6882 107.796 28.1687 107.796 31.9478C107.796 35.727 105.78 38.4542 102.247 38.4542C100.473 38.4542 98.9426 37.7399 98.1899 36.5192V43.7398H95.2686V26.0648ZM101.558 35.7659C103.624 35.7659 104.849 34.2465 104.849 32.1037C104.849 29.9609 103.624 28.4025 101.558 28.4025C99.4912 28.4025 98.2155 29.9219 98.2155 32.1037C98.2155 34.2854 99.5422 35.7659 101.558 35.7659Z" fill="#333333"/>
<path d="M109.595 34.688C109.595 32.4673 111.189 31.0777 113.996 30.857L117.555 30.5842V30.3115C117.555 28.6752 116.586 28.0129 115.093 28.0129C113.371 28.0129 112.414 28.7531 112.414 30.0258H109.914C109.914 27.4025 112.031 25.6882 115.246 25.6882C118.461 25.6882 120.413 27.4544 120.413 30.805V38.1425H117.836L117.619 36.3503C117.121 37.5971 115.514 38.4542 113.664 38.4542C111.138 38.4542 109.595 36.9607 109.595 34.688ZM117.568 33.2465V32.6102L115.093 32.805C113.269 32.9738 112.58 33.5842 112.58 34.5712C112.58 35.5581 113.294 36.2075 114.621 36.2075C116.42 36.2075 117.568 35.1036 117.568 33.2465Z" fill="#333333"/>
<path d="M121.919 41.2464H123.68C124.828 41.2464 125.542 40.9737 126.053 39.5581L126.384 38.6491L121.613 26.0649H124.701L127.762 34.857L130.977 26.0649H134L128.183 40.8308C127.303 43.0776 126.053 43.9996 124.101 43.9996C123.366 44.0066 122.633 43.9194 121.919 43.7399V41.2464Z" fill="#333333"/>
<path d="M15.2815 21.8571L10.3444 25.4154C10.2374 25.494 10.1503 25.5974 10.0904 25.7171C10.0304 25.8368 9.99947 25.9694 10 26.1037V40.3891C9.9994 40.629 10.0647 40.8643 10.1886 41.0683C10.3125 41.2724 10.49 41.4371 10.701 41.5438C10.912 41.6506 11.1482 41.6951 11.3827 41.6723C11.6173 41.6496 11.841 41.5605 12.0284 41.4151L24.2625 32.8828V41.0774C24.2652 41.3132 24.3309 41.5439 24.4526 41.7445C24.5743 41.9452 24.7473 42.1084 24.9532 42.2165C25.1591 42.3246 25.39 42.3736 25.6212 42.3583C25.8523 42.3429 26.075 42.2638 26.2654 42.1294L42.1863 30.5192C42.2967 30.4401 42.3868 30.335 42.449 30.213C42.5112 30.0909 42.5436 29.9554 42.5435 29.8179V22.5454C42.5401 22.387 42.4943 22.2327 42.4111 22.0989C42.3279 21.9651 42.2103 21.857 42.0712 21.7862C41.9321 21.7154 41.7766 21.6845 41.6215 21.697C41.4665 21.7095 41.3177 21.7648 41.1912 21.8571L29.595 30.5452V22.5454C29.5944 22.3873 29.5509 22.2324 29.4693 22.098C29.3876 21.9635 29.2711 21.8546 29.1324 21.7834C28.9938 21.7121 28.8385 21.6813 28.6837 21.6943C28.529 21.7073 28.3808 21.7636 28.2555 21.8571L16.6337 29.9738V22.5454C16.6303 22.387 16.5845 22.2327 16.5013 22.0989C16.4181 21.9651 16.3006 21.857 16.1614 21.7862C16.0223 21.7154 15.8668 21.6845 15.7118 21.697C15.5567 21.7095 15.4079 21.7648 15.2815 21.8571Z" fill="#333333"/>
</svg>
