<svg viewBox="0 0 24 24" xmlns="http://www.w3.org/2000/svg" class="css-1fkr8dp"><path d="M12.0003 20.4C11.7503 20.4 11.5003 20.3417 11.292 20.225C9.73366 19.375 6.99199 18.475 5.27533 18.25L5.03366 18.2167C3.94199 18.0833 3.04199 17.0583 3.04199 15.95V5.88333C3.04199 5.225 3.30033 4.625 3.77533 4.19167C4.25033 3.75833 4.86699 3.55 5.51699 3.60833C7.35033 3.75 10.117 4.66667 11.6837 5.65L11.8837 5.76667C11.942 5.8 12.067 5.8 12.117 5.775L12.2503 5.69167C13.817 4.70833 16.5837 3.775 18.4253 3.61667C18.442 3.61667 18.5087 3.61667 18.5253 3.61667C19.1337 3.55833 19.7587 3.775 20.2253 4.20833C20.7003 4.64167 20.9587 5.24167 20.9587 5.9V15.9583C20.9587 17.075 20.0587 18.0917 18.9587 18.225L18.6837 18.2583C16.967 18.4833 14.217 19.3917 12.692 20.2333C12.492 20.35 12.2503 20.4 12.0003 20.4ZM5.31699 4.85C5.05033 4.85 4.80866 4.94167 4.61699 5.11667C4.40866 5.30833 4.29199 5.58333 4.29199 5.88333V15.95C4.29199 16.4417 4.71699 16.9167 5.19199 16.9833L5.44199 17.0167C7.31699 17.2667 10.192 18.2083 11.8587 19.1167C11.9337 19.15 12.042 19.1583 12.0837 19.1417C13.7503 18.2167 16.642 17.2667 18.5253 17.0167L18.8087 16.9833C19.2837 16.925 19.7087 16.4417 19.7087 15.95V5.89167C19.7087 5.58333 19.592 5.31667 19.3837 5.11667C19.167 4.925 18.892 4.83333 18.5837 4.85C18.567 4.85 18.5003 4.85 18.4837 4.85C16.892 4.99167 14.3253 5.85 12.9253 6.725L12.792 6.81667C12.3337 7.1 11.6837 7.1 11.242 6.825L11.042 6.70833C9.61699 5.83333 7.05033 4.98333 5.41699 4.85C5.38366 4.85 5.35033 4.85 5.31699 4.85Z" fill="#0D253F"></path><path d="M12 19.7C11.6583 19.7 11.375 19.4167 11.375 19.075V6.575C11.375 6.23333 11.6583 5.95 12 5.95C12.3417 5.95 12.625 6.23333 12.625 6.575V19.075C12.625 19.425 12.3417 19.7 12 19.7Z" fill="#0D253F"></path><path d="M8.45801 9.7H6.58301C6.24134 9.7 5.95801 9.41667 5.95801 9.075C5.95801 8.73333 6.24134 8.45 6.58301 8.45H8.45801C8.79967 8.45 9.08301 8.73333 9.08301 9.075C9.08301 9.41667 8.79967 9.7 8.45801 9.7Z" fill="#197EEF"></path><path d="M9.08301 12.2H6.58301C6.24134 12.2 5.95801 11.9167 5.95801 11.575C5.95801 11.2333 6.24134 10.95 6.58301 10.95H9.08301C9.42467 10.95 9.70801 11.2333 9.70801 11.575C9.70801 11.9167 9.42467 12.2 9.08301 12.2Z" fill="#197EEF"></path></svg>