<svg viewBox="0 0 24 24" xmlns="http://www.w3.org/2000/svg" class="css-1fkr8dp"><path d="M16.541 20.9584C15.5994 20.9584 14.6077 20.7334 13.5827 20.3001C12.5827 19.8751 11.5743 19.2917 10.591 18.5834C9.61602 17.8667 8.67435 17.0667 7.78268 16.1917C6.89935 15.3001 6.09935 14.3584 5.39102 13.3917C4.67435 12.3917 4.09935 11.3917 3.69102 10.4251C3.25768 9.39175 3.04102 8.39175 3.04102 7.45008C3.04102 6.80008 3.15768 6.18341 3.38268 5.60841C3.61602 5.01675 3.99102 4.46675 4.49935 3.99175C5.14102 3.35841 5.87435 3.04175 6.65768 3.04175C6.98268 3.04175 7.31602 3.11675 7.59935 3.25008C7.92435 3.40008 8.19935 3.62508 8.39935 3.92508L10.3327 6.65008C10.5077 6.89175 10.641 7.12508 10.7327 7.35841C10.841 7.60841 10.8993 7.85841 10.8993 8.10008C10.8993 8.41675 10.8077 8.72508 10.6327 9.01675C10.5077 9.24175 10.316 9.48341 10.0743 9.72508L9.50768 10.3167C9.51602 10.3417 9.52435 10.3584 9.53268 10.3751C9.63268 10.5501 9.83268 10.8501 10.216 11.3001C10.6243 11.7667 11.0077 12.1917 11.391 12.5834C11.8827 13.0667 12.291 13.4501 12.6743 13.7667C13.1493 14.1667 13.4577 14.3667 13.641 14.4584L13.6243 14.5001L14.2327 13.9001C14.491 13.6417 14.741 13.4501 14.9827 13.3251C15.441 13.0417 16.0244 12.9917 16.6077 13.2334C16.8244 13.3251 17.0577 13.4501 17.3077 13.6251L20.0744 15.5917C20.3827 15.8001 20.6077 16.0667 20.741 16.3834C20.866 16.7001 20.9243 16.9917 20.9243 17.2834C20.9243 17.6834 20.8327 18.0834 20.6577 18.4584C20.4827 18.8334 20.266 19.1584 19.991 19.4584C19.516 19.9834 18.9993 20.3584 18.3993 20.6001C17.8243 20.8334 17.1994 20.9584 16.541 20.9584ZM6.65768 4.29175C6.19935 4.29175 5.77435 4.49175 5.36602 4.89175C4.98268 5.25008 4.71602 5.64175 4.54935 6.06675C4.37435 6.50008 4.29102 6.95841 4.29102 7.45008C4.29102 8.22508 4.47435 9.06675 4.84102 9.93341C5.21602 10.8167 5.74102 11.7334 6.40768 12.6501C7.07435 13.5667 7.83268 14.4584 8.66602 15.3001C9.49935 16.1251 10.3993 16.8917 11.3243 17.5667C12.2243 18.2251 13.1493 18.7584 14.066 19.1417C15.491 19.7501 16.8244 19.8917 17.9244 19.4334C18.3494 19.2584 18.7243 18.9917 19.066 18.6084C19.2577 18.4001 19.4077 18.1751 19.5327 17.9084C19.6327 17.7001 19.6827 17.4834 19.6827 17.2667C19.6827 17.1334 19.6577 17.0001 19.591 16.8501C19.566 16.8001 19.516 16.7084 19.3577 16.6001L16.591 14.6334C16.4243 14.5167 16.2743 14.4334 16.1327 14.3751C15.9493 14.3001 15.8743 14.2251 15.591 14.4001C15.4243 14.4834 15.2743 14.6084 15.1077 14.7751L14.4743 15.4001C14.1493 15.7167 13.6493 15.7917 13.266 15.6501L13.041 15.5501C12.6993 15.3667 12.2993 15.0834 11.8577 14.7084C11.4577 14.3667 11.0243 13.9667 10.4993 13.4501C10.091 13.0334 9.68268 12.5917 9.25768 12.1001C8.86602 11.6417 8.58268 11.2501 8.40768 10.9251L8.30768 10.6751C8.25768 10.4834 8.24102 10.3751 8.24102 10.2584C8.24102 9.95841 8.34935 9.69175 8.55768 9.48341L9.18268 8.83341C9.34935 8.66675 9.47435 8.50841 9.55768 8.36675C9.62435 8.25841 9.64935 8.16675 9.64935 8.08341C9.64935 8.01675 9.62435 7.91675 9.58268 7.81675C9.52435 7.68341 9.43268 7.53341 9.31602 7.37508L7.38268 4.64175C7.29935 4.52508 7.19935 4.44175 7.07435 4.38341C6.94102 4.32508 6.79935 4.29175 6.65768 4.29175ZM13.6243 14.5084L13.491 15.0751L13.716 14.4917C13.6743 14.4834 13.641 14.4917 13.6243 14.5084Z" fill="#0D253F"></path><path d="M17.4167 10.1249C17.075 10.1249 16.7917 9.84159 16.7917 9.49992C16.7917 9.19992 16.4917 8.57492 15.9917 8.04159C15.5 7.51659 14.9583 7.20825 14.5 7.20825C14.1583 7.20825 13.875 6.92492 13.875 6.58325C13.875 6.24159 14.1583 5.95825 14.5 5.95825C15.3083 5.95825 16.1583 6.39159 16.9 7.18325C17.5917 7.92492 18.0417 8.83325 18.0417 9.49992C18.0417 9.84159 17.7583 10.1249 17.4167 10.1249Z" fill="#197EEF"></path><path d="M20.3333 10.1251C19.9917 10.1251 19.7083 9.84175 19.7083 9.50008C19.7083 6.62508 17.375 4.29175 14.5 4.29175C14.1583 4.29175 13.875 4.00841 13.875 3.66675C13.875 3.32508 14.1583 3.04175 14.5 3.04175C18.0583 3.04175 20.9583 5.94175 20.9583 9.50008C20.9583 9.84175 20.675 10.1251 20.3333 10.1251Z" fill="#197EEF"></path></svg>