<svg viewBox="0 0 40 40" xmlns="http://www.w3.org/2000/svg" class="css-1jv73ie"><path d="M16.6497 37.9667C15.6497 37.9667 14.6997 37.4667 14.0497 36.5834L12.0497 33.9167C12.0497 33.9333 11.9663 33.8833 11.933 33.8833H11.3164C5.61636 33.8833 2.08301 32.3333 2.08301 24.65V17.9833C2.08301 10.9667 6.36636 9.13335 9.96636 8.81668C10.3664 8.76668 10.833 8.75 11.3164 8.75H21.983C28.0163 8.75 31.2164 11.95 31.2164 17.9833V24.65C31.2164 25.1333 31.1997 25.6 31.133 26.05C30.833 29.6 28.9997 33.8833 21.983 33.8833H21.3164L19.2497 36.5834C18.5997 37.4667 17.6497 37.9667 16.6497 37.9667ZM11.3164 11.25C10.933 11.25 10.5663 11.2667 10.2163 11.3C6.34968 11.6333 4.58301 13.75 4.58301 17.9833V24.65C4.58301 30.3667 6.34969 31.3833 11.3164 31.3833H11.983C12.733 31.3833 13.583 31.8 14.0497 32.4L16.0497 35.0833C16.4164 35.5833 16.883 35.5833 17.2497 35.0833L19.2497 32.4167C19.733 31.7667 20.4997 31.3833 21.3164 31.3833H21.983C26.2163 31.3833 28.333 29.6 28.6497 25.8C28.6997 25.4 28.7164 25.0333 28.7164 24.65V17.9833C28.7164 13.3333 26.633 11.25 21.983 11.25H11.3164Z" fill="white"></path><path d="M16.6501 23.65C15.7167 23.65 14.9834 22.9 14.9834 21.9833C14.9834 21.0667 15.7334 20.3167 16.6501 20.3167C17.5667 20.3167 18.3167 21.0667 18.3167 21.9833C18.3167 22.9 17.5834 23.65 16.6501 23.65Z" fill="white"></path><path d="M21.9831 23.65C21.0497 23.65 20.3164 22.9 20.3164 21.9833C20.3164 21.0667 21.0664 20.3167 21.9831 20.3167C22.8997 20.3167 23.6497 21.0667 23.6497 21.9833C23.6497 22.9 22.8997 23.65 21.9831 23.65Z" fill="white"></path><path d="M11.3327 23.65C10.3993 23.65 9.66602 22.9 9.66602 21.9833C9.66602 21.0667 10.416 20.3167 11.3327 20.3167C12.2493 20.3167 12.9993 21.0667 12.9993 21.9833C12.9993 22.9 12.2493 23.65 11.3327 23.65Z" fill="white"></path><path d="M29.9004 27.15C29.5671 27.15 29.2337 27.0166 29.0004 26.7666C28.7337 26.5 28.6171 26.1167 28.6671 25.75C28.7171 25.4 28.7337 25.0333 28.7337 24.65V17.9833C28.7337 13.3333 26.6504 11.25 22.0004 11.25H11.3337C10.9504 11.25 10.5837 11.2666 10.2337 11.3C9.86708 11.35 9.48372 11.2166 9.21705 10.9666C8.95038 10.7 8.80036 10.3333 8.8337 9.96666C9.1337 6.36666 10.9837 2.08331 18.0004 2.08331H28.6671C34.7004 2.08331 37.9004 5.28333 37.9004 11.3167V17.9833C37.9004 25 33.6171 26.8333 30.0171 27.15C29.9671 27.15 29.9337 27.15 29.9004 27.15ZM11.5337 8.74998H21.9837C28.0171 8.74998 31.2171 11.95 31.2171 17.9833V24.4333C34.0504 23.7333 35.3837 21.65 35.3837 17.9833V11.3167C35.3837 6.66666 33.3004 4.58331 28.6504 4.58331H17.9837C14.3171 4.58331 12.2504 5.91665 11.5337 8.74998Z" fill="white"></path></svg>