<svg xmlns="http://www.w3.org/2000/svg" width="31" height="29.051" viewBox="0 0 31 29.051">
    <g id="chat-bubble-3.b4c38b5d" transform="translate(-19 -22)">
    <g id="Group_1167" data-name="Group 1167" transform="translate(19 22)">
        <path id="Path_1725" d="M22.5 0h-20A2.528 2.528 0 0 0 0 2.54v20.941a.794.794 0 0 0 .482.733.772.772 0 0 0 .851-.172L2.5 22.857a8.468 8.468 0 0 1 6.035-2.54H22.5a2.527 2.527 0 0 0 2.5-2.54V2.54A2.527 2.527 0 0 0 22.5 0z" fill="#fff" data-name="Path 1725"></path>
        <path id="Path_1726" d="M22.5 0h-20A2.528 2.528 0 0 0 0 2.54v20.941a.794.794 0 0 0 .482.733.772.772 0 0 0 .851-.172L2.5 22.857a8.468 8.468 0 0 1 6.035-2.54H22.5a2.527 2.527 0 0 0 2.5-2.54V2.54A2.527 2.527 0 0 0 22.5 0z" fill="#fff" data-name="Path 1726"></path>
    </g>
    <path id="Path_1727" d="M33.137 31h17.1a2.179 2.179 0 0 1 2.137 2.208v17.761a.855.855 0 0 1-1.469.594l-.668-.69a7.25 7.25 0 0 0-5.21-2.208h-11.89A2.18 2.18 0 0 1 31 46.457V33.208A2.18 2.18 0 0 1 33.137 31z" fill="#fff" opacity=".3" data-name="Path 1727" transform="translate(-2.369 -.774)"></path>
    </g>
</svg>