<svg viewBox="0 0 32 32" xmlns="http://www.w3.org/2000/svg" class="css-1l8gw19"><path d="M21.2802 28.4267C21.0268 28.4267 20.7735 28.3334 20.5735 28.1334L18.5468 26.1067C18.1602 25.72 18.1602 25.08 18.5468 24.6934C18.9335 24.3067 19.5735 24.3067 19.9602 24.6934L21.2802 26.0134L24.6268 22.6667C25.0135 22.28 25.6535 22.28 26.0402 22.6667C26.4268 23.0534 26.4268 23.6934 26.0402 24.08L21.9868 28.1334C21.7868 28.3334 21.5335 28.4267 21.2802 28.4267Z" fill="white"></path><path d="M16.2136 15.4934C16.1736 15.4934 16.1469 15.4934 16.1069 15.4934C16.0403 15.4801 15.9469 15.4801 15.8669 15.4934C12.0003 15.3734 9.08026 12.3334 9.08026 8.58675C9.06693 6.74675 9.78693 5.01341 11.0936 3.70675C12.4003 2.40008 14.1336 1.66675 15.9869 1.66675C19.8003 1.66675 22.9069 4.77341 22.9069 8.58675C22.9069 12.3334 19.9869 15.3601 16.2536 15.4934C16.2403 15.4934 16.2269 15.4934 16.2136 15.4934ZM15.9869 3.66675C14.6669 3.66675 13.4403 4.18675 12.5069 5.10675C11.5869 6.04008 11.0803 7.26675 11.0803 8.57341C11.0803 11.2401 13.1603 13.4001 15.8136 13.4801C15.8936 13.4667 16.0669 13.4667 16.2403 13.4801C18.8669 13.3601 20.9069 11.2134 20.9069 8.57341C20.9069 5.88008 18.6936 3.66675 15.9869 3.66675Z" fill="white"></path><path d="M15.9865 30.0799C13.2665 30.0799 10.6932 29.3732 8.74655 28.0666C6.89322 26.8266 5.87988 25.1332 5.87988 23.3066C5.87988 21.4799 6.90655 19.7999 8.74655 18.5732C12.7332 15.9066 19.2132 15.9066 23.1999 18.5732C23.6532 18.8799 23.7865 19.5066 23.4799 19.9599C23.1732 20.4266 22.5465 20.5466 22.0932 20.2399C18.7732 18.0266 13.1732 18.0266 9.85322 20.2399C8.57322 21.0932 7.87988 22.1732 7.87988 23.3066C7.87988 24.4399 8.57322 25.5466 9.85322 26.3999C11.4665 27.4799 13.6399 28.0666 15.9732 28.0666C16.5199 28.0666 16.9732 28.5199 16.9732 29.0666C16.9732 29.6132 16.5332 30.0799 15.9865 30.0799Z" fill="white"></path></svg>