<svg viewBox="0 0 24 24" xmlns="http://www.w3.org/2000/svg" class="css-1fkr8dp"><path d="M12.0003 20.9834C11.4253 20.9834 10.8837 20.6917 10.5003 20.1833L9.25034 18.5167C9.22534 18.4833 9.12533 18.4416 9.08366 18.4333H8.66699C5.19199 18.4333 3.04199 17.4916 3.04199 12.8083V8.64164C3.04199 4.95831 4.98366 3.01664 8.66699 3.01664H15.3337C19.017 3.01664 20.9587 4.95831 20.9587 8.64164V12.8083C20.9587 16.4916 19.017 18.4333 15.3337 18.4333H14.917C14.8503 18.4333 14.792 18.4667 14.7503 18.5167L13.5003 20.1833C13.117 20.6917 12.5753 20.9834 12.0003 20.9834ZM8.66699 4.26664C5.68366 4.26664 4.29199 5.65831 4.29199 8.64164V12.8083C4.29199 16.575 5.58366 17.1833 8.66699 17.1833H9.08366C9.50866 17.1833 9.99199 17.425 10.2503 17.7666L11.5003 19.4333C11.792 19.8167 12.2087 19.8167 12.5003 19.4333L13.7503 17.7666C14.0253 17.4 14.4587 17.1833 14.917 17.1833H15.3337C18.317 17.1833 19.7087 15.7916 19.7087 12.8083V8.64164C19.7087 5.65831 18.317 4.26664 15.3337 4.26664H8.66699Z" fill="#0D253F"></path><path d="M8.66654 13.2083C8.5082 13.2083 8.34987 13.1499 8.22487 13.0249L6.5582 11.3582C6.31654 11.1166 6.31654 10.7166 6.5582 10.4749L8.22487 8.80824C8.46654 8.56657 8.86653 8.56657 9.1082 8.80824C9.34987 9.04991 9.34987 9.44991 9.1082 9.69157L7.8832 10.9166L9.1082 12.1416C9.34987 12.3832 9.34987 12.7832 9.1082 13.0249C8.9832 13.1499 8.82487 13.2083 8.66654 13.2083Z" fill="#197EEF"></path><path d="M15.3329 13.2083C15.1745 13.2083 15.0162 13.1499 14.8912 13.0249C14.6495 12.7832 14.6495 12.3832 14.8912 12.1416L16.1162 10.9166L14.8912 9.69157C14.6495 9.44991 14.6495 9.04991 14.8912 8.80824C15.1329 8.56657 15.5329 8.56657 15.7745 8.80824L17.4412 10.4749C17.6829 10.7166 17.6829 11.1166 17.4412 11.3582L15.7745 13.0249C15.6495 13.1499 15.4912 13.2083 15.3329 13.2083Z" fill="#197EEF"></path><path d="M11.1666 13.4834C11.0833 13.4834 11 13.4666 10.9167 13.4333C10.6 13.3 10.45 12.9333 10.5916 12.6083L12.2583 8.71666C12.3916 8.39999 12.7583 8.24998 13.0833 8.39165C13.4 8.52498 13.55 8.89164 13.4083 9.21664L11.7416 13.1083C11.6416 13.3417 11.4083 13.4834 11.1666 13.4834Z" fill="#197EEF"></path></svg>