<svg viewBox="0 0 24 24" xmlns="http://www.w3.org/2000/svg" class="css-1fkr8dp"><path d="M16.166 19.7084H7.83268C7.49102 19.7084 7.20768 19.4251 7.20768 19.0834C7.20768 18.7417 7.49102 18.4584 7.83268 18.4584H16.166C18.5493 18.4584 19.7077 17.3001 19.7077 14.9167V9.08342C19.7077 6.70008 18.5493 5.54175 16.166 5.54175H7.83268C5.44935 5.54175 4.29102 6.70008 4.29102 9.08342C4.29102 9.42508 4.00768 9.70842 3.66602 9.70842C3.32435 9.70842 3.04102 9.42508 3.04102 9.08342C3.04102 6.04175 4.79102 4.29175 7.83268 4.29175H16.166C19.2077 4.29175 20.9577 6.04175 20.9577 9.08342V14.9167C20.9577 17.9584 19.2077 19.7084 16.166 19.7084Z" fill="#0D253F"></path><path d="M11.999 12.725C11.299 12.725 10.5907 12.5083 10.049 12.0666L7.44067 9.98331C7.174 9.76664 7.124 9.37497 7.34067 9.10831C7.55734 8.84164 7.94899 8.79164 8.21566 9.00831L10.824 11.0916C11.4573 11.6 12.5323 11.6 13.1657 11.0916L15.774 9.00831C16.0407 8.79164 16.4407 8.83331 16.649 9.10831C16.8657 9.37497 16.824 9.77498 16.549 9.98331L13.9407 12.0666C13.4073 12.5083 12.699 12.725 11.999 12.725Z" fill="#0D253F"></path><path d="M8.66602 16.375H3.66602C3.32435 16.375 3.04102 16.0917 3.04102 15.75C3.04102 15.4083 3.32435 15.125 3.66602 15.125H8.66602C9.00768 15.125 9.29102 15.4083 9.29102 15.75C9.29102 16.0917 9.00768 16.375 8.66602 16.375Z" fill="#197EEF"></path><path d="M6.16602 13.0417H3.66602C3.32435 13.0417 3.04102 12.7584 3.04102 12.4167C3.04102 12.0751 3.32435 11.7917 3.66602 11.7917H6.16602C6.50768 11.7917 6.79102 12.0751 6.79102 12.4167C6.79102 12.7584 6.50768 13.0417 6.16602 13.0417Z" fill="#197EEF"></path></svg>