<svg width="40" height="40" viewBox="0 0 40 40" fill="none" xmlns="http://www.w3.org/2000/svg" w="40px" h="40px"><path d="M29.9999 13.1834C29.9499 13.1834 29.9165 13.1834 29.8665 13.1834H29.7832C26.6332 13.0834 24.2832 10.65 24.2832 7.65004C24.2832 4.58337 26.7832 2.10004 29.8332 2.10004C32.8832 2.10004 35.3832 4.60004 35.3832 7.65004C35.3665 10.6667 33.0165 13.1 30.0165 13.2C30.0165 13.1834 30.0165 13.1834 29.9999 13.1834ZM29.8332 4.58338C28.1499 4.58338 26.7832 5.95005 26.7832 7.63338C26.7832 9.28338 28.0665 10.6167 29.7165 10.6834C29.7332 10.6667 29.8665 10.6667 30.0165 10.6834C31.6332 10.6001 32.8832 9.26672 32.8999 7.63338C32.8999 5.95005 31.5332 4.58338 29.8332 4.58338Z" fill="white"></path><path d="M30.0165 25.4667C29.3665 25.4667 28.7165 25.4167 28.0665 25.3C27.3832 25.1833 26.9332 24.5334 27.0498 23.85C27.1665 23.1667 27.8165 22.7167 28.4998 22.8334C30.5498 23.1834 32.7165 22.8 34.1665 21.8334C34.9498 21.3167 35.3665 20.6667 35.3665 20.0167C35.3665 19.3667 34.9332 18.7333 34.1665 18.2167C32.7165 17.25 30.5165 16.8667 28.4498 17.2334C27.7665 17.3667 27.1165 16.9 26.9998 16.2167C26.8832 15.5334 27.3332 14.8834 28.0165 14.7667C30.7332 14.2834 33.5498 14.8 35.5498 16.1333C37.0165 17.1167 37.8665 18.5167 37.8665 20.0167C37.8665 21.5 37.0332 22.9167 35.5498 23.9167C34.0332 24.9167 32.0665 25.4667 30.0165 25.4667Z" fill="white"></path><path d="M9.94981 13.1833C9.93314 13.1833 9.91647 13.1833 9.91647 13.1833C6.91647 13.0833 4.56647 10.65 4.5498 7.64997C4.5498 4.58331 7.04981 2.08331 10.0998 2.08331C13.1498 2.08331 15.6498 4.58332 15.6498 7.63332C15.6498 10.65 13.2998 13.0833 10.2998 13.1833L9.94981 11.9333L10.0665 13.1833C10.0331 13.1833 9.98314 13.1833 9.94981 13.1833ZM10.1165 10.6833C10.2165 10.6833 10.2998 10.6833 10.3998 10.7C11.8831 10.6333 13.1831 9.29997 13.1831 7.64997C13.1831 5.96664 11.8165 4.59997 10.1331 4.59997C8.44981 4.59997 7.08314 5.96664 7.08314 7.64997C7.08314 9.28331 8.3498 10.6 9.96647 10.7C9.98314 10.6833 10.0498 10.6833 10.1165 10.6833Z" fill="white"></path><path d="M9.93301 25.4667C7.88301 25.4667 5.91634 24.9167 4.39967 23.9167C2.93301 22.9334 2.08301 21.5167 2.08301 20.0167C2.08301 18.5334 2.93301 17.1167 4.39967 16.1333C6.39967 14.8 9.21634 14.2834 11.933 14.7667C12.6163 14.8834 13.0663 15.5334 12.9497 16.2167C12.833 16.9 12.183 17.3667 11.4997 17.2334C9.43301 16.8667 7.24968 17.25 5.78301 18.2167C4.99968 18.7333 4.58301 19.3667 4.58301 20.0167C4.58301 20.6667 5.01634 21.3167 5.78301 21.8334C7.23301 22.8 9.39967 23.1834 11.4497 22.8334C12.133 22.7167 12.783 23.1834 12.8997 23.85C13.0163 24.5334 12.5663 25.1833 11.883 25.3C11.233 25.4167 10.583 25.4667 9.93301 25.4667Z" fill="white"></path><path d="M19.9999 25.6333C19.9499 25.6333 19.9165 25.6333 19.8665 25.6333H19.7832C16.6332 25.5333 14.2832 23.1 14.2832 20.1C14.2832 17.0333 16.7832 14.55 19.8332 14.55C22.8832 14.55 25.3832 17.05 25.3832 20.1C25.3665 23.1167 23.0165 25.55 20.0165 25.65C20.0165 25.6333 20.0165 25.6333 19.9999 25.6333ZM19.8332 17.0333C18.1499 17.0333 16.7832 18.4 16.7832 20.0833C16.7832 21.7333 18.0665 23.0667 19.7165 23.1333C19.7332 23.1167 19.8665 23.1167 20.0165 23.1333C21.6332 23.05 22.8832 21.7167 22.8999 20.0833C22.8999 18.4167 21.5332 17.0333 19.8332 17.0333Z" fill="white"></path><path d="M19.9995 37.9333C17.9995 37.9333 15.9995 37.4166 14.4495 36.3666C12.9828 35.3833 12.1328 33.9833 12.1328 32.4833C12.1328 31 12.9661 29.5666 14.4495 28.5833C17.5661 26.5166 22.4495 26.5166 25.5495 28.5833C27.0162 29.5666 27.8662 30.9666 27.8662 32.4666C27.8662 33.9499 27.0328 35.3833 25.5495 36.3666C23.9995 37.4 21.9995 37.9333 19.9995 37.9333ZM15.8328 30.6833C15.0495 31.1999 14.6328 31.8499 14.6328 32.4999C14.6328 33.1499 15.0661 33.7833 15.8328 34.2999C18.0828 35.8166 21.8995 35.8166 24.1495 34.2999C24.9328 33.7833 25.3495 33.1333 25.3495 32.4833C25.3495 31.8333 24.9162 31.1999 24.1495 30.6833C21.9162 29.1666 18.0995 29.1833 15.8328 30.6833Z" fill="white"></path></svg>