<svg viewBox="0 0 24 24" xmlns="http://www.w3.org/2000/svg" class="css-1fkr8dp"><path d="M4.91602 17.625C4.57435 17.625 4.29102 17.3416 4.29102 17V7.83329C4.29102 4.15829 5.40768 3.04163 9.08268 3.04163H14.916C18.591 3.04163 19.7077 4.15829 19.7077 7.83329V16.1666C19.7077 16.3 19.7077 16.425 19.6993 16.5583C19.6743 16.9 19.366 17.1666 19.0327 17.1416C18.691 17.1166 18.4243 16.8166 18.4493 16.475C18.4577 16.375 18.4577 16.2666 18.4577 16.1666V7.83329C18.4577 4.85829 17.8993 4.29163 14.916 4.29163H9.08268C6.09935 4.29163 5.54102 4.85829 5.54102 7.83329V17C5.54102 17.3416 5.25768 17.625 4.91602 17.625Z" fill="#0D253F"></path><path d="M16.166 20.9583H7.83268C5.88268 20.9583 4.29102 19.3667 4.29102 17.4167V16.875C4.29102 15.2167 5.64102 13.875 7.29102 13.875H19.0827C19.4243 13.875 19.7077 14.1583 19.7077 14.5V17.4167C19.7077 19.3667 18.116 20.9583 16.166 20.9583ZM7.29102 15.125C6.32435 15.125 5.54102 15.9083 5.54102 16.875V17.4167C5.54102 18.6833 6.56602 19.7083 7.83268 19.7083H16.166C17.4327 19.7083 18.4577 18.6833 18.4577 17.4167V15.125H7.29102Z" fill="#0D253F"></path><path d="M15.3327 8.45837H8.66602C8.32435 8.45837 8.04102 8.17504 8.04102 7.83337C8.04102 7.49171 8.32435 7.20837 8.66602 7.20837H15.3327C15.6743 7.20837 15.9577 7.49171 15.9577 7.83337C15.9577 8.17504 15.6743 8.45837 15.3327 8.45837Z" fill="#197EEF"></path><path d="M12.8327 11.375H8.66602C8.32435 11.375 8.04102 11.0917 8.04102 10.75C8.04102 10.4083 8.32435 10.125 8.66602 10.125H12.8327C13.1743 10.125 13.4577 10.4083 13.4577 10.75C13.4577 11.0917 13.1743 11.375 12.8327 11.375Z" fill="#197EEF"></path></svg>