<svg viewBox="0 0 32 32" xmlns="http://www.w3.org/2000/svg" class="css-zb0rts"><path d="M22.667 28.3334H9.33366C4.46699 28.3334 1.66699 25.5334 1.66699 20.6667V11.3334C1.66699 6.46675 4.46699 3.66675 9.33366 3.66675H22.667C27.5337 3.66675 30.3337 6.46675 30.3337 11.3334V20.6667C30.3337 25.5334 27.5337 28.3334 22.667 28.3334ZM9.33366 5.66675C5.52033 5.66675 3.66699 7.52008 3.66699 11.3334V20.6667C3.66699 24.4801 5.52033 26.3334 9.33366 26.3334H22.667C26.4803 26.3334 28.3337 24.4801 28.3337 20.6667V11.3334C28.3337 7.52008 26.4803 5.66675 22.667 5.66675H9.33366Z" fill="white"></path><path d="M15.9994 17.16C14.8794 17.16 13.746 16.8133 12.8794 16.1066L8.70604 12.7733C8.27938 12.4266 8.19938 11.8 8.54605 11.3733C8.89272 10.9466 9.51939 10.8666 9.94605 11.2133L14.1194 14.5466C15.1327 15.36 16.8527 15.36 17.866 14.5466L22.0394 11.2133C22.466 10.8666 23.106 10.9333 23.4394 11.3733C23.786 11.8 23.7194 12.44 23.2794 12.7733L19.106 16.1066C18.2527 16.8133 17.1194 17.16 15.9994 17.16Z" fill="white"></path></svg>