<svg viewBox="0 0 32 32" xmlns="http://www.w3.org/2000/svg" class="css-1l8gw19"><g clip-path="url(#clip0_149_999)"><path d="M9.47939 9.79174C6.77988 9.79174 4.58349 7.5954 4.58349 4.89593C4.58349 2.19646 6.77988 0.000111904 9.47939 0.000111904C12.1789 0.000111904 14.3753 2.19646 14.3753 4.89593C14.3753 7.5954 12.1789 9.79174 9.47939 9.79174ZM9.47939 1.95844C7.85983 1.95844 6.54185 3.27639 6.54185 4.89593C6.54185 6.51546 7.85983 7.83342 9.47939 7.83342C11.099 7.83342 12.4169 6.51546 12.4169 4.89593C12.4169 3.27639 11.099 1.95844 9.47939 1.95844ZM11.4378 31.3333C9.81819 31.3333 8.50021 30.0154 8.50021 28.3958V22.5209C8.50021 21.9795 8.93888 21.5417 9.47939 21.5417C10.0199 21.5417 10.4586 21.9795 10.4586 22.5209V28.3958C10.4586 28.9364 10.8983 29.375 11.4378 29.375C11.9772 29.375 12.4169 28.9364 12.4169 28.3958V13.7084C12.4169 13.1679 12.8556 12.7292 13.3961 12.7292H19.2712C19.8117 12.7292 20.2504 12.2895 20.2504 11.7501C20.2504 11.2107 19.8117 10.7709 19.2712 10.7709H4.58461C3.5036 10.7709 2.62535 11.6493 2.62535 12.7292V21.5417C2.62535 22.0822 3.06511 22.5209 3.60453 22.5209C4.14396 22.5209 4.58372 22.0822 4.58372 21.5417V15.6667C4.58372 15.1262 5.02238 14.6876 5.5629 14.6876C6.10342 14.6876 6.54208 15.1262 6.54208 15.6667V21.5417C6.54208 23.1612 5.2241 24.4792 3.60453 24.4792C1.98497 24.4792 0.666992 23.1612 0.666992 21.5417V12.7292C0.666992 10.5692 2.42471 8.81258 4.58461 8.81258H19.2712C20.8908 8.81258 22.2087 10.1305 22.2087 11.7501C22.2087 13.3696 20.8908 14.6876 19.2712 14.6876H14.3753V28.3958C14.3753 30.0154 13.0573 31.3333 11.4378 31.3333ZM7.52103 31.3333C5.90147 31.3333 4.58349 30.0154 4.58349 28.3958V20.5625C4.58349 20.0212 5.02215 19.5834 5.56267 19.5834C6.10319 19.5834 6.54185 20.0212 6.54185 20.5625V28.3958C6.54185 28.9364 6.98161 29.375 7.52103 29.375C8.06046 29.375 8.50021 28.9364 8.50021 28.3958V21.5417C8.50021 21.0003 8.93888 20.5625 9.47939 20.5625C10.0199 20.5625 10.4586 21.0003 10.4586 21.5417V28.3958C10.4586 30.0154 9.1406 31.3333 7.52103 31.3333ZM29.5425 23.5H17.3128C16.7723 23.5 16.3337 23.0622 16.3337 22.5209C16.3337 21.9795 16.7723 21.5417 17.3128 21.5417H29.5425C29.8177 21.5417 30.042 21.3175 30.042 21.0423V2.45665C30.042 2.18257 29.8177 1.95833 29.5425 1.95833H16.3337C15.7931 1.95833 15.3545 1.51967 15.3545 0.979163C15.3545 0.438654 15.7931 0 16.3337 0H29.5425C30.8977 0 32.0003 1.10159 32.0003 2.45664V21.0423C32.0003 22.3974 30.8979 23.5 29.5425 23.5Z" fill="white"></path></g><defs><clipPath id="clip0_149_999"><rect width="32" height="32" fill="white"></rect></clipPath></defs></svg>