<svg viewBox="0 0 32 32" xmlns="http://www.w3.org/2000/svg" class="css-zb0rts"><path d="M16.0003 30.4134C15.0803 30.4134 14.2137 29.9467 13.6003 29.1334L11.6003 26.4667C11.5603 26.4134 11.4003 26.3467 11.3337 26.3334H10.667C5.10699 26.3334 1.66699 24.8267 1.66699 17.3334V10.6667C1.66699 4.77341 4.77366 1.66675 10.667 1.66675H21.3337C27.227 1.66675 30.3337 4.77341 30.3337 10.6667V17.3334C30.3337 23.2267 27.227 26.3334 21.3337 26.3334H20.667C20.5603 26.3334 20.467 26.3867 20.4003 26.4667L18.4003 29.1334C17.787 29.9467 16.9203 30.4134 16.0003 30.4134ZM10.667 3.66675C5.89366 3.66675 3.66699 5.89341 3.66699 10.6667V17.3334C3.66699 23.3601 5.73366 24.3334 10.667 24.3334H11.3337C12.0137 24.3334 12.787 24.7201 13.2003 25.2668L15.2003 27.9334C15.667 28.5467 16.3337 28.5467 16.8003 27.9334L18.8003 25.2668C19.2403 24.6801 19.9337 24.3334 20.667 24.3334H21.3337C26.107 24.3334 28.3337 22.1067 28.3337 17.3334V10.6667C28.3337 5.89341 26.107 3.66675 21.3337 3.66675H10.667Z" fill="white"></path><path d="M22.6663 11.6667H9.33301C8.78634 11.6667 8.33301 11.2134 8.33301 10.6667C8.33301 10.1201 8.78634 9.66675 9.33301 9.66675H22.6663C23.213 9.66675 23.6663 10.1201 23.6663 10.6667C23.6663 11.2134 23.213 11.6667 22.6663 11.6667Z" fill="white"></path><path d="M17.333 18.3333H9.33301C8.78634 18.3333 8.33301 17.8799 8.33301 17.3333C8.33301 16.7866 8.78634 16.3333 9.33301 16.3333H17.333C17.8797 16.3333 18.333 16.7866 18.333 17.3333C18.333 17.8799 17.8797 18.3333 17.333 18.3333Z" fill="white"></path></svg>