<svg viewBox="0 0 24 24" xmlns="http://www.w3.org/2000/svg" class="css-1fkr8dp"><path d="M11.9993 21.0084C11.4243 21.0084 10.8827 20.7167 10.4993 20.2084L9.24935 18.5417C9.22435 18.5084 9.12435 18.4667 9.08268 18.4584H8.66602C5.19102 18.4584 3.04102 17.5167 3.04102 12.8334V8.66675C3.04102 4.98341 4.98268 3.04175 8.66602 3.04175H15.3327C19.016 3.04175 20.9577 4.98341 20.9577 8.66675V12.8334C20.9577 16.5167 19.016 18.4584 15.3327 18.4584H14.916C14.8493 18.4584 14.791 18.4917 14.7493 18.5417L13.4993 20.2084C13.116 20.7167 12.5743 21.0084 11.9993 21.0084ZM8.66602 4.29175C5.68268 4.29175 4.29102 5.68341 4.29102 8.66675V12.8334C4.29102 16.6001 5.58268 17.2084 8.66602 17.2084H9.08268C9.50768 17.2084 9.99101 17.4501 10.2493 17.7917L11.4993 19.4584C11.791 19.8417 12.2077 19.8417 12.4993 19.4584L13.7493 17.7917C14.0243 17.4251 14.4577 17.2084 14.916 17.2084H15.3327C18.316 17.2084 19.7077 15.8167 19.7077 12.8334V8.66675C19.7077 5.68341 18.316 4.29175 15.3327 4.29175H8.66602Z" fill="#0D253F"></path><path d="M16.1673 9.29175H7.83398C7.49232 9.29175 7.20898 9.00841 7.20898 8.66675C7.20898 8.32508 7.49232 8.04175 7.83398 8.04175H16.1673C16.509 8.04175 16.7923 8.32508 16.7923 8.66675C16.7923 9.00841 16.509 9.29175 16.1673 9.29175Z" fill="#197EEF"></path><path d="M12.834 13.4583H7.83398C7.49232 13.4583 7.20898 13.1749 7.20898 12.8333C7.20898 12.4916 7.49232 12.2083 7.83398 12.2083H12.834C13.1757 12.2083 13.459 12.4916 13.459 12.8333C13.459 13.1749 13.1757 13.4583 12.834 13.4583Z" fill="#197EEF"></path></svg>