<svg viewBox="0 0 24 24" xmlns="http://www.w3.org/2000/svg" class="css-1fkr8dp"><path d="M16.2503 3.04167H12.7503C9.49199 3.04167 8.04199 4.49167 8.04199 7.75001V8.66667C8.04199 9.00834 8.32533 9.29167 8.66699 9.29167H11.2503C13.8337 9.29167 14.7087 10.1667 14.7087 12.75V15.3333C14.7087 15.675 14.992 15.9583 15.3337 15.9583H16.2503C19.5087 15.9583 20.9587 14.5083 20.9587 11.25V7.75001C20.9587 4.49167 19.5087 3.04167 16.2503 3.04167ZM9.29199 8.04167V7.75001C9.29199 5.16667 10.167 4.29167 12.7503 4.29167H16.2503C18.8337 4.29167 19.7087 5.16667 19.7087 7.75001V11.25C19.7087 13.8333 18.8337 14.7083 16.2503 14.7083H15.9587V12.75C15.9587 9.49167 14.5087 8.04167 11.2503 8.04167H9.29199Z" fill="#0D253F"></path><path d="M11.2503 8.04167H7.75033C4.49199 8.04167 3.04199 9.49167 3.04199 12.75V16.25C3.04199 19.5083 4.49199 20.9583 7.75033 20.9583H11.2503C14.5087 20.9583 15.9587 19.5083 15.9587 16.25V12.75C15.9587 9.49167 14.5087 8.04167 11.2503 8.04167ZM7.75033 19.7083C5.16699 19.7083 4.29199 18.8333 4.29199 16.25V12.75C4.29199 10.1667 5.16699 9.29167 7.75033 9.29167H11.2503C13.8337 9.29167 14.7087 10.1667 14.7087 12.75V16.25C14.7087 18.8333 13.8337 19.7083 11.2503 19.7083H7.75033Z" fill="#0D253F"></path><path d="M8.69128 16.75C8.53294 16.75 8.37461 16.6917 8.24961 16.5667L6.62461 14.9417C6.38294 14.7 6.38294 14.3 6.62461 14.0583C6.86628 13.8167 7.26628 13.8167 7.50794 14.0583L8.69128 15.2417L11.4913 12.4417C11.7329 12.2 12.1329 12.2 12.3746 12.4417C12.6163 12.6833 12.6163 13.0833 12.3746 13.325L9.12461 16.5667C9.00794 16.6833 8.84961 16.75 8.69128 16.75Z" fill="#197EEF"></path></svg>