<svg viewBox="0 0 32 32" xmlns="http://www.w3.org/2000/svg" class="css-1l8gw19"><path d="M22.5337 25.3466C22.1203 25.3466 21.707 25.2266 21.347 24.9866L20.067 24.1466C19.707 23.9066 19.5337 23.4533 19.6537 23.04C19.747 22.7333 19.787 22.3732 19.787 21.9732V16.5465C19.787 14.3732 18.427 13.0133 16.2537 13.0133H7.20032C7.04032 13.0133 6.89366 13.0266 6.74699 13.04C6.46699 13.0533 6.20033 12.9599 5.987 12.7733C5.77367 12.5866 5.66699 12.32 5.66699 12.04V8.3466C5.66699 4.4266 8.41366 1.67993 12.3337 1.67993H23.667C27.587 1.67993 30.3337 4.4266 30.3337 8.3466V15.1466C30.3337 17.0799 29.6803 18.7865 28.4803 19.9599C27.5203 20.9332 26.187 21.5599 24.667 21.7466V23.2266C24.667 24.0266 24.227 24.7466 23.5337 25.12C23.2137 25.2666 22.867 25.3466 22.5337 25.3466ZM21.7337 22.8399L22.6003 23.3333C22.6803 23.2933 22.6803 23.2265 22.6803 23.2132V20.7999C22.6803 20.2532 23.1337 19.7999 23.6803 19.7999C25.0803 19.7999 26.267 19.36 27.0803 18.5333C27.9203 17.7066 28.347 16.5332 28.347 15.1332V8.33325C28.347 5.49325 26.5203 3.66659 23.6803 3.66659H12.347C9.50698 3.66659 7.68032 5.49325 7.68032 8.33325V10.9999H16.267C19.5203 10.9999 21.8003 13.28 21.8003 16.5333V21.9599C21.787 22.2665 21.7737 22.5599 21.7337 22.8399Z" fill="white"></path><path d="M8.09367 30.3333C7.80034 30.3333 7.49366 30.2667 7.21366 30.12C6.587 29.7867 6.20032 29.1467 6.20032 28.4267V27.4133C5.02698 27.2267 3.987 26.7333 3.21366 25.96C2.20033 24.9466 1.66699 23.56 1.66699 21.96V16.5334C1.66699 13.52 3.64032 11.3067 6.57365 11.0267C6.78698 11.0134 6.98698 11 7.20032 11H16.2537C19.507 11 21.787 13.28 21.787 16.5334V21.96C21.787 22.5466 21.7203 23.0933 21.5736 23.5867C20.9736 25.9867 18.9337 27.4933 16.2537 27.4933H12.9337L9.16032 30C8.84032 30.2267 8.467 30.3333 8.09367 30.3333ZM7.20032 13C7.04032 13 6.89366 13.0134 6.74699 13.0267C4.82699 13.2 3.66699 14.52 3.66699 16.5334V21.96C3.66699 23.0266 4.00033 23.92 4.62699 24.5466C5.24033 25.16 6.13365 25.4933 7.20032 25.4933C7.74698 25.4933 8.20032 25.9467 8.20032 26.4933V28.24L12.067 25.6667C12.227 25.56 12.427 25.4933 12.627 25.4933H16.2537C18.0137 25.4933 19.2537 24.6133 19.6403 23.0667C19.7337 22.7333 19.787 22.36 19.787 21.96V16.5334C19.787 14.36 18.427 13 16.2537 13H7.20032Z" fill="white"></path></svg>