<svg viewBox="0 0 24 24" xmlns="http://www.w3.org/2000/svg" class="css-1fkr8dp"><path d="M17.3919 20.9583H14.0586C12.0419 20.9583 10.9336 19.85 10.9336 17.8333V6.16667C10.9336 4.15 12.0419 3.04167 14.0586 3.04167H17.3919C19.4086 3.04167 20.5169 4.15 20.5169 6.16667V17.8333C20.5169 19.85 19.4003 20.9583 17.3919 20.9583ZM14.0586 4.29167C12.7419 4.29167 12.1836 4.85 12.1836 6.16667V17.8333C12.1836 19.15 12.7419 19.7083 14.0586 19.7083H17.3919C18.7086 19.7083 19.2669 19.15 19.2669 17.8333V6.16667C19.2669 4.85 18.7086 4.29167 17.3919 4.29167H14.0586Z" fill="#0D253F"></path><path d="M15.7253 7.625H11.5586C11.2169 7.625 10.9336 7.34167 10.9336 7C10.9336 6.65833 11.2169 6.375 11.5586 6.375H15.7253C16.0669 6.375 16.3503 6.65833 16.3503 7C16.3503 7.34167 16.0669 7.625 15.7253 7.625Z" fill="#0D253F"></path><path d="M14.8919 17.625H11.5586C11.2169 17.625 10.9336 17.3417 10.9336 17C10.9336 16.6583 11.2169 16.375 11.5586 16.375H14.8919C15.2336 16.375 15.5169 16.6583 15.5169 17C15.5169 17.3417 15.2336 17.625 14.8919 17.625Z" fill="#0D253F"></path><path d="M15.7254 14.2916C15.7171 14.2916 15.7171 14.2916 15.7254 14.2916L11.5504 14.25C11.2088 14.25 10.9254 13.9666 10.9338 13.6166C10.9338 13.275 11.2171 13 11.5588 13C11.5588 13 11.5588 13 11.5671 13L15.7338 13.0416C16.0754 13.0416 16.3588 13.325 16.3504 13.675C16.3421 14.0166 16.0671 14.2916 15.7254 14.2916Z" fill="#0D253F"></path><path d="M14.0586 10.9583H11.5586C11.2169 10.9583 10.9336 10.675 10.9336 10.3333C10.9336 9.99167 11.2169 9.70833 11.5586 9.70833H14.0586C14.4003 9.70833 14.6836 9.99167 14.6836 10.3333C14.6836 10.675 14.4003 10.9583 14.0586 10.9583Z" fill="#0D253F"></path><path d="M6.57506 20.9333C5.81673 20.9333 5.10007 20.4666 4.6084 19.65L3.92507 18.5166C3.67507 18.1 3.4834 17.4166 3.4834 16.9333V6.12496C3.4834 4.42496 4.86673 3.04163 6.56673 3.04163C8.26673 3.04163 9.65007 4.42496 9.65007 6.12496V16.925C9.65007 17.4083 9.4584 18.0916 9.2084 18.5083L8.52506 19.6416C8.05007 20.4666 7.3334 20.9333 6.57506 20.9333ZM6.57506 4.29163C5.56673 4.29163 4.74173 5.11663 4.74173 6.12496V16.925C4.74173 17.1833 4.86673 17.6416 5.00006 17.8666L5.6834 19C5.94173 19.4333 6.26673 19.675 6.57506 19.675C6.8834 19.675 7.2084 19.425 7.46673 19L8.15007 17.8666C8.2834 17.6416 8.4084 17.1833 8.4084 16.925V6.12496C8.4084 5.11663 7.5834 4.29163 6.57506 4.29163Z" fill="#0D253F"></path><path d="M9.0334 8.45837H4.1084C3.76673 8.45837 3.4834 8.17504 3.4834 7.83337C3.4834 7.49171 3.76673 7.20837 4.1084 7.20837H9.0334C9.37506 7.20837 9.6584 7.49171 9.6584 7.83337C9.6584 8.17504 9.37506 8.45837 9.0334 8.45837Z" fill="#0D253F"></path></svg>