<svg viewBox="0 0 24 24" xmlns="http://www.w3.org/2000/svg" class="css-1kb832m"><path d="M12.0003 20.9584C7.05866 20.9584 3.04199 16.9417 3.04199 12.0001C3.04199 7.05841 7.05866 3.04175 12.0003 3.04175C16.942 3.04175 20.9587 7.05841 20.9587 12.0001C20.9587 16.9417 16.942 20.9584 12.0003 20.9584ZM12.0003 4.29175C7.75033 4.29175 4.29199 7.75008 4.29199 12.0001C4.29199 16.2501 7.75033 19.7084 12.0003 19.7084C16.2503 19.7084 19.7087 16.2501 19.7087 12.0001C19.7087 7.75008 16.2503 4.29175 12.0003 4.29175Z" fill="#0D253F"></path><path d="M10.8162 14.9834C10.6495 14.9834 10.4912 14.9167 10.3745 14.8001L8.01621 12.4417C7.77454 12.2001 7.77454 11.8001 8.01621 11.5584C8.25788 11.3167 8.65788 11.3167 8.89954 11.5584L10.8162 13.4751L15.0995 9.19175C15.3412 8.95008 15.7412 8.95008 15.9829 9.19175C16.2245 9.43341 16.2245 9.83341 15.9829 10.0751L11.2579 14.8001C11.1412 14.9167 10.9829 14.9834 10.8162 14.9834Z" fill="#197EEF"></path></svg>