<svg viewBox="0 0 32 32" xmlns="http://www.w3.org/2000/svg" class="css-zb0rts"><path d="M16.0003 30.3334C8.09366 30.3334 1.66699 23.9067 1.66699 16.0001C1.66699 8.09342 8.09366 1.66675 16.0003 1.66675C23.907 1.66675 30.3337 8.09342 30.3337 16.0001C30.3337 23.9067 23.907 30.3334 16.0003 30.3334ZM16.0003 3.66675C9.20033 3.66675 3.66699 9.20008 3.66699 16.0001C3.66699 22.8001 9.20033 28.3334 16.0003 28.3334C22.8003 28.3334 28.3337 22.8001 28.3337 16.0001C28.3337 9.20008 22.8003 3.66675 16.0003 3.66675Z" fill="white"></path><path d="M14.1069 20.7732C13.8402 20.7732 13.5869 20.6666 13.4002 20.4799L9.62691 16.7066C9.24025 16.3199 9.24025 15.6799 9.62691 15.2932C10.0136 14.9066 10.6536 14.9066 11.0402 15.2932L14.1069 18.3599L20.9602 11.5066C21.3469 11.1199 21.9869 11.1199 22.3736 11.5066C22.7602 11.8932 22.7602 12.5332 22.3736 12.9199L14.8136 20.4799C14.6269 20.6666 14.3736 20.7732 14.1069 20.7732Z" fill="white"></path></svg>