<svg viewBox="0 0 32 32" xmlns="http://www.w3.org/2000/svg" class="css-zb0rts"><path d="M8 19.8534C7.45333 19.8534 7 19.4 7 18.8534V13.1333C7 12.5866 7.45333 12.1333 8 12.1333C8.54667 12.1333 9 12.5866 9 13.1333V18.8534C9 19.4134 8.54667 19.8534 8 19.8534Z" fill="white"></path><path d="M12 21.76C11.4533 21.76 11 21.3067 11 20.76V11.24C11 10.6933 11.4533 10.24 12 10.24C12.5467 10.24 13 10.6933 13 11.24V20.76C13 21.32 12.5467 21.76 12 21.76Z" fill="white"></path><path d="M16 23.6666C15.4533 23.6666 15 23.2133 15 22.6666V9.33325C15 8.78659 15.4533 8.33325 16 8.33325C16.5467 8.33325 17 8.78659 17 9.33325V22.6666C17 23.2133 16.5467 23.6666 16 23.6666Z" fill="white"></path><path d="M20 21.76C19.4533 21.76 19 21.3067 19 20.76V11.24C19 10.6933 19.4533 10.24 20 10.24C20.5467 10.24 21 10.6933 21 11.24V20.76C21 21.32 20.5467 21.76 20 21.76Z" fill="white"></path><path d="M24 19.8534C23.4533 19.8534 23 19.4 23 18.8534V13.1333C23 12.5866 23.4533 12.1333 24 12.1333C24.5467 12.1333 25 12.5866 25 13.1333V18.8534C25 19.4134 24.5467 19.8534 24 19.8534Z" fill="white"></path><path d="M20.0003 30.3334H12.0003C4.76033 30.3334 1.66699 27.2401 1.66699 20.0001V12.0001C1.66699 4.76008 4.76033 1.66675 12.0003 1.66675H20.0003C27.2403 1.66675 30.3337 4.76008 30.3337 12.0001V20.0001C30.3337 27.2401 27.2403 30.3334 20.0003 30.3334ZM12.0003 3.66675C5.85366 3.66675 3.66699 5.85341 3.66699 12.0001V20.0001C3.66699 26.1467 5.85366 28.3334 12.0003 28.3334H20.0003C26.147 28.3334 28.3337 26.1467 28.3337 20.0001V12.0001C28.3337 5.85341 26.147 3.66675 20.0003 3.66675H12.0003Z" fill="white"></path></svg>