<svg width="40" height="40" viewBox="0 0 40 40" fill="none" xmlns="http://www.w3.org/2000/svg" w="40px" h="40px"><path d="M19.9997 37.9166C10.1163 37.9166 2.08301 29.8833 2.08301 20C2.08301 10.1166 10.1163 2.08331 19.9997 2.08331C29.883 2.08331 37.9163 10.1166 37.9163 20C37.9163 29.8833 29.883 37.9166 19.9997 37.9166ZM19.9997 4.58331C11.4997 4.58331 4.58301 11.5 4.58301 20C4.58301 28.5 11.4997 35.4166 19.9997 35.4166C28.4997 35.4166 35.4163 28.5 35.4163 20C35.4163 11.5 28.4997 4.58331 19.9997 4.58331Z" fill="white"></path><path d="M15.0004 36.25H13.3337C12.6504 36.25 12.0837 35.6833 12.0837 35C12.0837 34.3167 12.6171 33.7667 13.3004 33.75C10.6837 24.8167 10.6837 15.1833 13.3004 6.25C12.6171 6.23333 12.0837 5.68333 12.0837 5C12.0837 4.31667 12.6504 3.75 13.3337 3.75H15.0004C15.4004 3.75 15.7837 3.95 16.0171 4.26667C16.2504 4.6 16.3171 5.01667 16.1837 5.4C13.0504 14.8167 13.0504 25.1833 16.1837 34.6167C16.3171 35 16.2504 35.4167 16.0171 35.75C15.7837 36.05 15.4004 36.25 15.0004 36.25Z" fill="white"></path><path d="M25 36.25C24.8667 36.25 24.7333 36.2333 24.6 36.1833C23.95 35.9666 23.5833 35.25 23.8167 34.6C26.95 25.1833 26.95 14.8166 23.8167 5.38331C23.6 4.73331 23.95 4.01664 24.6 3.79997C25.2667 3.58331 25.9667 3.93331 26.1833 4.58331C29.5 14.5166 29.5 25.45 26.1833 35.3666C26.0167 35.9166 25.5167 36.25 25 36.25Z" fill="white"></path><path d="M20 28.6667C15.35 28.6667 10.7167 28.0167 6.25 26.7C6.23333 27.3667 5.68333 27.9167 5 27.9167C4.31667 27.9167 3.75 27.35 3.75 26.6667V25C3.75 24.6 3.95 24.2167 4.26667 23.9833C4.6 23.75 5.01667 23.6833 5.4 23.8167C14.8167 26.95 25.2 26.95 34.6167 23.8167C35 23.6833 35.4167 23.75 35.75 23.9833C36.0833 24.2167 36.2667 24.6 36.2667 25V26.6667C36.2667 27.35 35.7 27.9167 35.0167 27.9167C34.3333 27.9167 33.7833 27.3833 33.7667 26.7C29.2833 28.0167 24.65 28.6667 20 28.6667Z" fill="white"></path><path d="M35.0003 16.25C34.867 16.25 34.7336 16.2333 34.6003 16.1833C25.1836 13.05 14.8003 13.05 5.38362 16.1833C4.71696 16.4 4.01696 16.05 3.80029 15.4C3.60029 14.7333 3.95029 14.0333 4.60029 13.8167C14.5336 10.5 25.467 10.5 35.3836 13.8167C36.0336 14.0333 36.4003 14.75 36.167 15.4C36.017 15.9167 35.517 16.25 35.0003 16.25Z" fill="white"></path></svg>