<svg viewBox="0 0 24 24" xmlns="http://www.w3.org/2000/svg" class="css-1fkr8dp"><path d="M3.66629 20.9582C3.49963 20.9582 3.34127 20.8915 3.2246 20.7749C3.06627 20.6165 2.99964 20.3832 3.05798 20.1665L4.10798 16.2415C3.40798 14.9415 3.04129 13.4749 3.04129 11.9915C3.04129 7.04987 7.05796 3.0332 11.9996 3.0332C16.9413 3.0332 20.958 7.04987 20.958 11.9915C20.958 16.9332 16.9413 20.9499 11.9996 20.9499C10.4913 20.9499 9.01632 20.5749 7.69965 19.8582L3.83297 20.9332C3.77464 20.9499 3.72463 20.9582 3.66629 20.9582ZM7.78296 18.5665C7.8913 18.5665 7.99963 18.5999 8.09963 18.6499C9.27463 19.3416 10.6246 19.7082 11.9996 19.7082C16.2496 19.7082 19.708 16.2499 19.708 11.9999C19.708 7.74988 16.2496 4.29154 11.9996 4.29154C7.74963 4.29154 4.29129 7.74988 4.29129 11.9999C4.29129 13.3582 4.64962 14.6832 5.32462 15.8499C5.40795 15.9915 5.43297 16.1665 5.3913 16.3249L4.55797 19.4415L7.62463 18.5915C7.67463 18.5749 7.73296 18.5665 7.78296 18.5665Z" fill="#0D253F"></path><path d="M14.2826 16.7999C13.7659 16.7999 13.2326 16.6832 12.6742 16.4416C12.1492 16.2166 11.6242 15.9166 11.1159 15.5416C10.6159 15.1749 10.1242 14.7582 9.67425 14.3082C9.22425 13.8499 8.80754 13.3666 8.44088 12.8666C8.06588 12.3416 7.76587 11.8249 7.5492 11.3166C7.31587 10.7666 7.19922 10.2249 7.19922 9.70825C7.19922 9.34158 7.26587 8.99158 7.39087 8.66658C7.5242 8.32491 7.74088 8.01657 8.02421 7.74991C8.55754 7.22491 9.32424 7.03326 9.93258 7.32493C10.1409 7.41659 10.3159 7.56659 10.4492 7.76659L11.4159 9.1249C11.5159 9.25824 11.5909 9.3999 11.6492 9.54157C11.7159 9.70824 11.7576 9.87493 11.7576 10.0333C11.7576 10.2499 11.6992 10.4666 11.5826 10.6583C11.5076 10.7833 11.3992 10.9333 11.2575 11.0749L11.1492 11.1916C11.1992 11.2582 11.2575 11.3416 11.3492 11.4416C11.5242 11.6416 11.7159 11.8582 11.9242 12.0666C12.1325 12.2666 12.3409 12.4666 12.5492 12.6416C12.6492 12.7249 12.7326 12.7916 12.7992 12.8332L12.9159 12.7166C13.0659 12.5666 13.2159 12.4499 13.3659 12.3749C13.6409 12.1999 14.0659 12.1583 14.4409 12.3166C14.5742 12.3666 14.7075 12.4416 14.8492 12.5416L16.2409 13.5249C16.4326 13.6582 16.5826 13.8416 16.6826 14.0499C16.7659 14.2582 16.7992 14.4416 16.7992 14.6332C16.7992 14.8832 16.7409 15.1249 16.6326 15.3582C16.5242 15.5749 16.3992 15.7666 16.2492 15.9416C15.9825 16.2333 15.6742 16.4499 15.3409 16.5916C15.0076 16.7333 14.6492 16.7999 14.2826 16.7999ZM9.32421 8.4499C9.27421 8.4499 9.10758 8.4499 8.89925 8.65824C8.74092 8.80824 8.63256 8.96659 8.55756 9.14159C8.48256 9.31659 8.44922 9.51659 8.44922 9.71659C8.44922 10.0666 8.53254 10.4416 8.69921 10.8416C8.87421 11.2582 9.13256 11.6999 9.44923 12.1416C9.77423 12.5833 10.1409 13.0249 10.5492 13.4332C10.9576 13.8332 11.3909 14.2082 11.8409 14.5416C12.2742 14.8582 12.7159 15.1082 13.1576 15.2999C13.7909 15.5749 14.3742 15.6416 14.8492 15.4416C15.0159 15.3749 15.1659 15.2583 15.3159 15.1083C15.3909 15.0249 15.4492 14.9416 15.4992 14.8332C15.5242 14.7749 15.5409 14.7082 15.5409 14.6499C15.5409 14.6332 15.5409 14.6083 15.5159 14.5583L14.1242 13.5916C14.0659 13.5499 14.0075 13.5166 13.9575 13.4999C13.9242 13.5166 13.8742 13.5416 13.7826 13.6332L13.4659 13.9499C13.2242 14.1916 12.8409 14.2582 12.5326 14.1499L12.3826 14.0832C12.1909 13.9832 11.9742 13.8333 11.7326 13.6249C11.4992 13.4249 11.2742 13.2166 11.0326 12.9832C10.7992 12.7416 10.5909 12.5166 10.3909 12.2832C10.1742 12.0249 10.0242 11.8166 9.92424 11.6416L9.83258 11.4249C9.80758 11.3416 9.79921 11.2499 9.79921 11.1666C9.79921 10.9332 9.88258 10.7249 10.0409 10.5582L10.3576 10.2333C10.4493 10.1416 10.4826 10.0916 10.4992 10.0583C10.4742 9.99992 10.4409 9.94991 10.3992 9.89158L9.4242 8.51659L9.32421 8.4499Z" fill="#197EEF"></path></svg>