<svg viewBox="0 0 32 32" xmlns="http://www.w3.org/2000/svg" class="css-zb0rts"><g clip-path="url(#clip0_420_2457)"><path d="M23.6775 18.3874C23.6152 18.3575 21.2823 17.2087 20.8677 17.0595C20.6985 16.9987 20.5172 16.9394 20.3244 16.9394C20.0093 16.9394 19.7447 17.0964 19.5386 17.4048C19.3056 17.7512 18.6001 18.5758 18.3821 18.8221C18.3537 18.8546 18.3148 18.8935 18.2915 18.8935C18.2706 18.8935 17.9096 18.7448 17.8003 18.6973C15.2978 17.6103 13.3982 14.9961 13.1378 14.5553C13.1006 14.4919 13.099 14.4632 13.0987 14.4632C13.1078 14.4296 13.192 14.3452 13.2354 14.3017C13.3625 14.176 13.5002 14.0103 13.6333 13.85C13.6964 13.774 13.7596 13.698 13.8216 13.6263C14.0149 13.4014 14.1009 13.2269 14.2006 13.0247L14.2529 12.9197C14.4964 12.4358 14.2884 12.0275 14.2212 11.8957C14.166 11.7853 13.181 9.40799 13.0763 9.15823C12.8244 8.55553 12.4916 8.2749 12.0292 8.2749C11.9863 8.2749 12.0292 8.2749 11.8492 8.28249C11.6301 8.29173 10.4369 8.44882 9.90929 8.7814C9.34981 9.13412 8.40332 10.2585 8.40332 12.2358C8.40332 14.0155 9.53267 15.6958 10.0176 16.3348C10.0296 16.351 10.0517 16.3837 10.0838 16.4306C11.9408 19.1425 14.2557 21.1523 16.6024 22.0898C18.8616 22.9922 19.9314 23.0965 20.5396 23.0965C20.5397 23.0965 20.5397 23.0965 20.5397 23.0965C20.7953 23.0965 20.9999 23.0765 21.1804 23.0587L21.2948 23.0478C22.0753 22.9786 23.7904 22.0899 24.1806 21.0057C24.4879 20.1518 24.5689 19.2188 24.3645 18.8802C24.2244 18.65 23.9831 18.5341 23.6775 18.3874Z" fill="white"></path><path d="M16.2831 0C7.61646 0 0.565649 6.99782 0.565649 15.5993C0.565649 18.3813 1.31017 21.1045 2.72056 23.4879L0.0210253 31.451C-0.0292604 31.5995 0.00814216 31.7636 0.11796 31.8754C0.197233 31.9564 0.304766 32 0.414584 32C0.456662 32 0.499051 31.9937 0.540402 31.9805L8.84378 29.3419C11.116 30.5559 13.6841 31.1968 16.2832 31.1968C24.9489 31.1969 31.999 24.1998 31.999 15.5993C31.999 6.99782 24.9489 0 16.2831 0ZM16.2831 27.9474C13.8374 27.9474 11.4687 27.2412 9.43256 25.9051C9.36409 25.8602 9.28461 25.8371 9.20461 25.8371C9.16233 25.8371 9.11994 25.8435 9.07869 25.8566L4.91921 27.1788L6.26196 23.2173C6.30539 23.0891 6.28368 22.9477 6.20368 22.8384C4.65313 20.7198 3.83349 18.2166 3.83349 15.5993C3.83349 8.78961 9.41833 3.24945 16.283 3.24945C23.1467 3.24945 28.731 8.78961 28.731 15.5993C28.7311 22.4081 23.147 27.9474 16.2831 27.9474Z" fill="white"></path></g><defs><clipPath id="clip0_420_2457"><rect width="32" height="32" fill="white"></rect></clipPath></defs></svg>